<svg width="90" height="80" viewBox="0 0 90 80" fill="none" xmlns="http://www.w3.org/2000/svg">
<path d="M41.9166 32.9696C41.808 32.8455 41.7537 32.6516 41.7537 32.3801V31.6278C41.7537 31.3564 41.808 31.1625 41.9166 31.0384C42.0252 30.9143 42.2346 30.86 42.5448 30.86H43.4522V27.3389L42.8628 27.6879C42.8162 27.7267 42.7542 27.7422 42.6921 27.7422C42.6068 27.7422 42.537 27.7034 42.475 27.6181L41.3814 26.0515C41.3427 26.0049 41.3271 25.9584 41.3271 25.9041C41.3271 25.8111 41.3814 25.7413 41.4823 25.687L44.2123 24.1513C44.3286 24.0893 44.4372 24.0428 44.5458 24.0195C44.6543 23.9962 44.8095 23.9807 45.0111 23.9807H46.0659C46.3839 23.9807 46.6088 24.0428 46.7406 24.1669C46.8725 24.2909 46.9345 24.4848 46.9345 24.7485V30.86H47.8574C48.1677 30.86 48.3771 30.9221 48.4857 31.0384C48.5942 31.1625 48.6485 31.3564 48.6485 31.6278V32.3801C48.6485 32.6516 48.5942 32.8455 48.4857 32.9696C48.3771 33.0937 48.1677 33.1479 47.8574 33.1479H42.5603C42.2501 33.1479 42.0407 33.0859 41.9321 32.9696H41.9166Z" fill="#999999"/>
<path d="M36.5268 37.8945C36.4802 37.848 36.4492 37.7704 36.4492 37.6696V34.7379C36.4492 34.6371 36.4725 34.5673 36.5268 34.513C36.5733 34.4665 36.6664 34.4432 36.7827 34.4432H38.1089C38.6673 34.4432 39.0706 34.5441 39.3188 34.7535C39.5748 34.9551 39.6989 35.2653 39.6989 35.6841C39.6989 36.1029 39.5748 36.4054 39.3188 36.6148C39.0629 36.8242 38.6596 36.9173 38.1089 36.9173H37.7754V37.6774C37.7754 37.7782 37.7522 37.8557 37.6979 37.9023C37.6514 37.9488 37.5583 37.9721 37.4342 37.9721H36.775C36.6509 37.9721 36.5656 37.9488 36.519 37.9023L36.5268 37.8945ZM37.9926 36.0331C38.1089 36.0331 38.202 36.0021 38.2718 35.9478C38.3416 35.8858 38.3726 35.8005 38.3726 35.6841C38.3726 35.5678 38.3416 35.4747 38.2718 35.4127C38.202 35.3507 38.1089 35.3274 37.9926 35.3274H37.6126V36.0409H37.9926V36.0331Z" fill="#999999"/>
<path d="M39.9467 37.8944C39.9002 37.8479 39.8691 37.7703 39.8691 37.6695V34.7378C39.8691 34.637 39.8924 34.5672 39.9467 34.5129C39.9932 34.4664 40.0863 34.4431 40.2026 34.4431H40.8619C40.986 34.4431 41.079 34.4664 41.1256 34.5129C41.1721 34.5594 41.2031 34.637 41.2031 34.7378V37.0878H42.4983C42.6147 37.0878 42.7 37.1111 42.7387 37.1576C42.7775 37.2041 42.8008 37.2817 42.8008 37.3825V37.6695C42.8008 37.7703 42.7775 37.8479 42.7387 37.8944C42.6922 37.9409 42.6147 37.9642 42.4983 37.9642H40.2026C40.0785 37.9642 39.9932 37.9409 39.9467 37.8944Z" fill="#999999"/>
<path d="M42.8867 37.8634C42.8867 37.8634 42.8944 37.7936 42.9177 37.747L44.2982 34.6448C44.3292 34.575 44.368 34.5207 44.4145 34.4896C44.4533 34.4586 44.5154 34.4431 44.5929 34.4431H45.1979C45.2754 34.4431 45.3375 34.4586 45.3762 34.4896C45.4228 34.5207 45.4538 34.5672 45.4926 34.6448L46.8653 37.747C46.8808 37.7936 46.8964 37.8323 46.8964 37.8634C46.8964 37.9332 46.8576 37.9719 46.7723 37.9719H45.7252C45.6089 37.9719 45.5391 37.9254 45.5081 37.8324L45.3762 37.4523H44.3913L44.2672 37.8324C44.2362 37.9254 44.1664 37.9719 44.05 37.9719H43.003C42.9254 37.9719 42.8789 37.9332 42.8789 37.8634H42.8867ZM45.1048 36.6302L44.8876 35.9865L44.6705 36.6302H45.1048Z" fill="#999999"/>
<path d="M47.3152 37.5841C46.943 37.2739 46.7568 36.8163 46.7568 36.2114C46.7568 35.6065 46.9352 35.1411 47.2997 34.8309C47.6643 34.5207 48.1761 34.3733 48.8431 34.3733C49.1456 34.3733 49.417 34.4043 49.6497 34.4586C49.8901 34.5129 50.084 34.5905 50.2469 34.6913C50.2934 34.7223 50.3167 34.7533 50.3167 34.7921C50.3167 34.8231 50.3012 34.8697 50.2702 34.924L49.991 35.3738C49.9599 35.4203 49.9289 35.4436 49.8824 35.4436C49.8591 35.4436 49.8126 35.4281 49.7583 35.4048C49.6575 35.3583 49.5489 35.3195 49.4325 35.2885C49.3162 35.2574 49.1844 35.2497 49.037 35.2497C48.7268 35.2497 48.4941 35.335 48.3312 35.4979C48.1684 35.6607 48.0908 35.9012 48.0908 36.2192C48.0908 36.5371 48.1761 36.7698 48.3545 36.9404C48.5329 37.1111 48.7733 37.1886 49.0835 37.1886C49.3472 37.1886 49.5954 37.1343 49.8126 37.0335C49.8746 37.0025 49.9134 36.9947 49.9367 36.9947C49.9754 36.9947 50.0142 37.018 50.0453 37.0645L50.3245 37.5066C50.3555 37.5609 50.371 37.6074 50.371 37.6384C50.371 37.6772 50.3477 37.7082 50.3012 37.7393C50.1383 37.8401 49.9444 37.9176 49.704 37.9719C49.4636 38.0262 49.1921 38.0572 48.8897 38.0572C48.2149 38.0572 47.6953 37.9021 47.3152 37.5919V37.5841Z" fill="#999999"/>
<path d="M50.727 37.8945C50.6804 37.848 50.6494 37.7704 50.6494 37.6696V34.7379C50.6494 34.6371 50.6727 34.5673 50.727 34.513C50.7735 34.4665 50.8666 34.4432 50.9829 34.4432H53.2786C53.3949 34.4432 53.4802 34.4665 53.519 34.513C53.5656 34.5596 53.5811 34.6371 53.5811 34.7379V35.0249C53.5811 35.1257 53.5578 35.2033 53.519 35.2498C53.4725 35.2964 53.3949 35.3196 53.2786 35.3196H51.9756V35.7617H52.7745C52.8908 35.7617 52.9761 35.785 53.0149 35.8315C53.0537 35.878 53.0769 35.9556 53.0769 36.0564V36.3356C53.0769 36.4364 53.0537 36.514 53.0149 36.5605C52.9684 36.6071 52.8908 36.6303 52.7745 36.6303H51.9756V37.0724H53.2708C53.3872 37.0724 53.4725 37.0957 53.5113 37.1422C53.55 37.1888 53.5733 37.2663 53.5733 37.3671V37.6541C53.5733 37.7549 53.55 37.8325 53.5113 37.879C53.4647 37.9255 53.3872 37.9488 53.2708 37.9488H50.9752C50.8511 37.9488 50.7657 37.9255 50.7192 37.879L50.727 37.8945Z" fill="#999999"/>
<path d="M10.468 57.1751C9.59159 57.02 8.69193 56.8028 7.96289 56.2444C8.10249 56.6632 8.25761 57.0975 8.49028 57.4931C8.70744 57.8963 8.95562 58.2919 9.22707 58.6564C9.63037 59.2303 10.15 59.7034 10.7084 60.0602L12.151 57.4775C11.6003 57.3534 11.0497 57.2681 10.4757 57.1751H10.468Z" fill="#999999"/>
<path d="M6.61338 42.765C5.94639 42.2997 5.28716 41.78 4.82181 41.0355C4.81406 41.8809 4.89162 42.7805 5.08551 43.6259C5.17082 44.0524 5.3492 44.4557 5.51983 44.8435C5.69821 45.2235 5.91537 45.5726 6.15579 45.8828C7.03219 47.0074 8.45924 47.4184 9.80097 47.5658C10.119 49.0316 10.53 50.4819 11.0264 51.8935C10.7549 51.6298 10.4602 51.3816 10.1345 51.1799C9.41319 50.7146 8.62211 50.4276 7.83103 50.0941C7.03994 49.7606 6.24111 49.3651 5.66719 48.6826C5.72148 49.1092 5.78352 49.5512 5.92312 49.9855C6.05497 50.4199 6.21008 50.8464 6.39622 51.2497C6.59011 51.653 6.77625 52.0486 7.05546 52.3898C7.31915 52.7388 7.60611 53.0413 7.92409 53.305C9.0254 54.2357 10.5378 54.352 11.926 54.2202C11.926 54.2202 11.926 54.2357 11.9338 54.2434C12.2207 54.9027 12.531 55.5464 12.8567 56.1746L13.6866 54.6933C13.516 54.3598 13.3531 54.0263 13.198 53.6928C14.2683 52.7156 15.2144 51.6453 15.5945 50.4199C15.6875 50.0864 15.7418 49.7529 15.7496 49.4116C15.7496 49.0781 15.7651 48.7291 15.7263 48.3879C15.6875 48.0466 15.6177 47.7131 15.5247 47.3796C15.4161 47.0539 15.3385 46.7204 15.2222 46.4102C14.9275 47.1082 14.4389 47.7131 13.9348 48.3336C13.4306 48.9463 12.8877 49.59 12.5775 50.3501C12.4224 50.7534 12.3526 51.1954 12.3293 51.6453C11.7864 50.2415 11.3444 48.7834 10.9798 47.3021C12.1587 46.573 13.2212 45.7122 13.7719 44.5566C13.9192 44.2386 14.0201 43.9128 14.0899 43.5793C14.1674 43.2381 14.1752 42.8968 14.2062 42.5401C14.2605 41.8343 14.1829 41.113 14.0356 40.446C13.7021 41.0975 13.1359 41.6249 12.562 42.1445C11.9881 42.6642 11.3754 43.1993 10.9876 43.8896C10.7627 44.2696 10.6231 44.7039 10.5223 45.1538C10.2508 43.6492 10.0647 42.1213 9.95609 40.5934C11.1582 40.0738 12.3526 39.3913 12.9886 38.3132C13.3065 37.716 13.5935 37.0801 13.7176 36.3976C13.7796 36.0563 13.8184 35.7073 13.8339 35.3661C13.865 35.0248 13.896 34.6836 13.896 34.3578C13.4461 34.9162 12.8179 35.3273 12.2363 35.7538C11.6391 36.1726 11.0109 36.5992 10.5145 37.2119C10.2198 37.5532 10.0104 37.9642 9.86302 38.3985C9.85526 37.972 9.83975 37.5454 9.84751 37.1189C9.85526 36.002 9.94057 34.9007 10.0647 33.8149C10.6231 33.6753 11.1892 33.5047 11.7011 33.272C12.2983 32.9928 12.8179 32.6361 13.291 32.1552C13.516 31.9148 13.7098 31.6433 13.8805 31.3564C14.0588 31.0694 14.1674 30.7514 14.3225 30.4489C14.6173 29.8362 14.8034 29.1615 14.9275 28.5178C14.4156 28.9754 13.7874 29.2546 13.1282 29.5338C12.4689 29.813 11.7787 30.0922 11.2435 30.6041C10.9023 30.9143 10.6153 31.3098 10.3671 31.7441C10.5378 30.798 10.7394 29.8673 10.9953 28.9599C11.166 28.3627 11.3599 27.781 11.5693 27.2071C12.7559 27.1683 13.9813 26.9822 14.9042 26.2531C15.4471 25.8808 15.9047 25.3845 16.2847 24.8183C16.4709 24.5314 16.6958 24.2599 16.8664 23.9574C17.0448 23.6627 17.2077 23.3602 17.3473 23.05C16.7656 23.399 16.0986 23.5464 15.4239 23.6782C14.7336 23.8023 14.0976 23.9729 13.4384 24.3375C13.0739 24.5546 12.6938 24.8261 12.3914 25.1751C12.911 24.0272 13.4927 22.9414 14.1209 21.9177C14.2838 21.6462 14.4621 21.3981 14.6328 21.1421C15.7031 21.3205 16.8897 21.3825 17.9134 20.8474C18.4951 20.5682 19.069 20.1727 19.5732 19.6763C19.8136 19.4281 20.1005 19.1877 20.341 18.924C20.5891 18.6603 20.8141 18.3888 21.0312 18.1096C20.3875 18.3656 19.7283 18.4044 19.0613 18.4354C18.3865 18.4509 17.7506 18.5052 17.0525 18.7379C16.657 18.8775 16.2692 19.0946 15.9047 19.3661C16.7113 18.319 17.5412 17.3418 18.3865 16.4577C18.5804 16.256 18.7743 16.0699 18.9604 15.876C19.9144 16.2017 21.008 16.4189 22.1093 16.0389C22.7297 15.845 23.3657 15.5115 23.9629 15.0927C24.2576 14.8755 24.5756 14.6739 24.8625 14.4412C25.1573 14.2085 25.4365 13.9681 25.7001 13.7199C25.0176 13.9138 24.3739 13.8905 23.7302 13.8518C23.0787 13.8052 22.4583 13.7742 21.7447 13.9138C21.3492 13.9991 20.9382 14.1542 20.5349 14.3559C21.7913 13.208 23.0012 12.2308 24.1025 11.401C24.9634 11.812 25.9794 12.1067 27.135 11.812C28.4146 11.5173 29.8339 10.6642 31.0283 9.77226C30.3303 9.93513 29.6943 9.8886 29.0816 9.82656C28.4612 9.75675 27.8485 9.68695 27.1427 9.77226C26.7239 9.81879 26.2741 9.9584 25.832 10.1368C26.0104 10.0127 26.1888 9.88084 26.3594 9.76451C27.3986 9.04323 28.1975 8.44604 28.7249 8.01173C29.2523 7.57741 29.5237 7.32147 29.5237 7.32147C29.5237 7.32147 29.1747 7.45332 28.5542 7.73252C27.9338 8.02724 27.0496 8.50033 25.9871 9.2061C25.8242 9.32243 25.6381 9.44653 25.4597 9.56287C25.7777 9.2061 26.0647 8.84158 26.2818 8.47706C26.6463 7.8566 26.8325 7.23615 27.0496 6.64672C27.2668 6.05728 27.5227 5.45235 28.0113 4.86292C26.6153 5.56868 25.1417 6.61569 24.3351 7.74802C23.5984 8.81831 23.5363 9.87309 23.6759 10.8193C22.5591 11.6336 21.3337 12.5798 20.0462 13.7199C20.2789 13.3554 20.4961 12.9831 20.6434 12.6108C20.9226 11.9283 21.0002 11.2381 21.1476 10.6021C21.2872 9.9584 21.4733 9.29141 21.8999 8.62442C21.5586 8.84158 21.2174 9.08201 20.8839 9.33794C20.5504 9.59388 20.2169 9.84982 19.9299 10.1523C19.3405 10.7495 18.8208 11.3699 18.5029 12.0059C17.9289 13.2158 18.0453 14.3171 18.371 15.2866C18.1771 15.4805 17.9755 15.6666 17.7816 15.8682C16.9207 16.7601 16.0676 17.7529 15.2377 18.8232C15.4006 18.3888 15.5557 17.9623 15.6255 17.5435C15.7651 16.7989 15.6953 16.0699 15.7186 15.3874C15.7341 14.6971 15.7961 13.9758 16.1219 13.2158C15.8116 13.4872 15.5014 13.7897 15.1989 14.0999C14.9042 14.4179 14.6017 14.7282 14.3613 15.0927C13.8727 15.8062 13.4617 16.5352 13.2678 17.2488C12.942 18.6138 13.3298 19.7306 13.9192 20.6613C13.7409 20.925 13.5625 21.1809 13.3919 21.4523C12.7404 22.5071 12.1354 23.6394 11.5925 24.8261C11.6546 24.3452 11.7011 23.8876 11.6546 23.43C11.6003 22.6545 11.3366 21.9254 11.197 21.2274C11.0419 20.5217 10.9255 19.7694 11.0729 18.9162C10.817 19.2575 10.5688 19.6298 10.3361 20.0098C10.1112 20.3976 9.87077 20.7776 9.7079 21.1886C9.38216 22.0185 9.16501 22.8561 9.13398 23.6084C9.16501 25.0587 9.9018 26.1058 10.7549 26.8891C10.5378 27.4785 10.3361 28.0757 10.1577 28.6884C9.87853 29.6191 9.66137 30.5808 9.47523 31.558C9.4287 31.0539 9.32787 30.5498 9.14949 30.0922C8.83927 29.3321 8.44373 28.7039 8.08696 28.0369C7.7302 27.3699 7.38119 26.6409 7.31139 25.7645C6.96239 26.5634 6.69094 27.4553 6.52807 28.3316C6.435 28.766 6.45051 29.2158 6.45051 29.6346C6.46602 30.0612 6.52031 30.4645 6.61338 30.8367C6.78401 31.589 7.20281 32.1862 7.70693 32.6671C8.1335 33.0781 8.62986 33.3961 9.13398 33.6676C8.99438 34.7921 8.89356 35.9245 8.87029 37.0723C8.85478 37.5299 8.86253 37.9952 8.86253 38.4528C8.68415 37.9875 8.47475 37.5454 8.22657 37.1499C7.77674 36.4751 7.19506 35.94 6.63665 35.3738C6.06273 34.8077 5.55861 34.1717 5.29491 33.3418C5.20184 33.7684 5.11653 34.2105 5.07775 34.6525C5.06224 35.0946 5.06224 35.5444 5.10102 35.9865C5.17858 36.8629 5.32594 37.716 5.72923 38.383C6.435 39.6317 7.66816 40.2677 8.91682 40.6477C8.98662 42.1833 9.14174 43.7189 9.37441 45.2546C9.14949 44.8823 8.89356 44.5255 8.57557 44.2231C7.96287 43.6414 7.27262 43.2148 6.61338 42.7495V42.765Z" fill="#999999"/>
<path d="M65.9132 11.401C67.0145 12.2308 68.2244 13.208 69.4808 14.3559C69.0853 14.1542 68.6665 13.9914 68.2709 13.9138C67.5574 13.7742 66.937 13.8052 66.2855 13.8518C65.6417 13.8905 64.998 13.9138 64.3155 13.7199C64.5792 13.9681 64.8584 14.2085 65.1531 14.4412C65.4401 14.6739 65.7581 14.8833 66.0528 15.0927C66.65 15.5115 67.286 15.845 67.9064 16.0389C69.0077 16.4266 70.1013 16.2095 71.0552 15.876C71.2491 16.0699 71.4353 16.256 71.6291 16.4577C72.4745 17.3418 73.3044 18.3113 74.111 19.3661C73.7465 19.0946 73.3509 18.8697 72.9631 18.7379C72.2574 18.5052 71.6214 18.4509 70.9544 18.4354C70.2874 18.4121 69.6282 18.3733 68.9845 18.1096C69.1939 18.3888 69.4265 18.6603 69.6747 18.924C69.9151 19.1877 70.1943 19.4281 70.4425 19.6763C70.9466 20.1649 71.5206 20.5682 72.1022 20.8474C73.126 21.3825 74.3126 21.3205 75.3829 21.1421C75.5535 21.3981 75.7319 21.654 75.8948 21.9177C76.523 22.9414 77.1047 24.0272 77.6243 25.1751C77.3141 24.8338 76.934 24.5546 76.5773 24.3375C75.918 23.973 75.2821 23.8023 74.5918 23.6782C73.9171 23.5464 73.2501 23.399 72.6684 23.05C72.808 23.3525 72.9709 23.6627 73.1493 23.9574C73.3199 24.2522 73.5448 24.5314 73.7309 24.8183C74.111 25.3845 74.5686 25.8808 75.1115 26.2531C76.0266 26.9744 77.2598 27.1605 78.4464 27.2071C78.6558 27.781 78.8497 28.3627 79.0203 28.9599C79.2763 29.8673 79.4779 30.798 79.6485 31.7441C79.4004 31.3098 79.1134 30.9143 78.7721 30.6041C78.2292 30.0922 77.539 29.8052 76.8875 29.5338C76.2283 29.2546 75.6001 28.9754 75.0882 28.5178C75.2123 29.1693 75.3984 29.8362 75.6931 30.4489C75.8482 30.7514 75.9568 31.0694 76.1352 31.3564C76.3058 31.6433 76.4997 31.9148 76.7246 32.1552C77.19 32.6361 77.7174 32.9928 78.3146 33.272C78.8342 33.5124 79.3926 33.6753 79.951 33.8149C80.0751 34.9007 80.1527 36.002 80.1682 37.1189C80.1682 37.5454 80.1604 37.972 80.1527 38.3985C80.0053 37.9642 79.7959 37.5609 79.5012 37.2119C79.0048 36.5992 78.3766 36.1649 77.7794 35.7538C77.1977 35.335 76.5695 34.9162 76.1197 34.3578C76.1197 34.6913 76.1507 35.0248 76.1817 35.3661C76.1973 35.7151 76.236 36.0563 76.2981 36.3976C76.4144 37.0801 76.7014 37.7238 77.0271 38.3132C77.6553 39.3913 78.8497 40.0738 80.0596 40.5934C79.951 42.1213 79.7649 43.6414 79.4934 45.1538C79.3926 44.7039 79.253 44.2696 79.0281 43.8896C78.6403 43.2071 78.0276 42.6719 77.4537 42.1445C76.8798 41.6249 76.3136 41.0975 75.9801 40.446C75.8327 41.113 75.7629 41.8343 75.8095 42.5401C75.8482 42.8968 75.8482 43.2381 75.9258 43.5793C75.9956 43.9128 76.0964 44.2463 76.2438 44.5566C76.7944 45.7122 77.857 46.573 79.0358 47.3021C78.6713 48.7834 78.2292 50.2337 77.6863 51.6453C77.6631 51.1954 77.601 50.7534 77.4382 50.3501C77.1279 49.59 76.5773 48.9463 76.0809 48.3336C75.5768 47.7209 75.0882 47.1082 74.7935 46.4102C74.6771 46.7204 74.5996 47.0539 74.491 47.3796C74.3979 47.7054 74.3281 48.0466 74.2893 48.3879C74.2428 48.7291 74.2661 49.0781 74.2661 49.4116C74.2738 49.7451 74.3281 50.0864 74.4212 50.4199C74.7935 51.6453 75.7474 52.7233 76.8177 53.6928C76.6626 54.034 76.4997 54.3675 76.3291 54.6933L77.159 56.1746C77.4847 55.5464 77.7949 54.9027 78.0819 54.2434C78.0819 54.2434 78.0819 54.2279 78.0896 54.2202C79.4857 54.352 80.998 54.2357 82.0916 53.305C82.4096 53.049 82.6965 52.7388 82.9602 52.3898C83.2394 52.0486 83.4256 51.653 83.6195 51.2497C83.8056 50.8387 83.9607 50.4121 84.0925 49.9855C84.2322 49.5512 84.2942 49.1092 84.3485 48.6826C83.7746 49.3651 82.9757 49.7606 82.1846 50.0941C81.3936 50.4276 80.6025 50.7146 79.8812 51.1799C79.5555 51.3816 79.2608 51.6298 78.9893 51.8935C79.4857 50.4819 79.889 49.0316 80.2147 47.5658C81.5564 47.4107 82.9835 46.9996 83.8599 45.8828C84.1081 45.5726 84.3175 45.2235 84.4958 44.8435C84.6665 44.4635 84.8449 44.0524 84.9302 43.6259C85.1241 42.7805 85.2016 41.8731 85.1939 41.0355C84.7285 41.7878 84.0693 42.3074 83.4023 42.765C82.7353 43.2303 82.0528 43.6569 81.4401 44.2386C81.1299 44.541 80.8739 44.8978 80.6413 45.2701C80.8739 43.7422 81.029 42.1988 81.0989 40.6632C82.3475 40.2832 83.5807 39.655 84.2864 38.3985C84.6897 37.7315 84.8371 36.8784 84.9147 36.002C84.9457 35.56 84.9534 35.1101 84.9379 34.6681C84.8991 34.226 84.8138 33.7761 84.7285 33.3573C84.4648 34.1872 83.9607 34.8232 83.3868 35.3893C82.8284 35.9555 82.2389 36.4906 81.7969 37.1654C81.5487 37.5609 81.3315 38.0107 81.1609 38.4683C81.1609 38.0107 81.1609 37.5454 81.1531 37.0878C81.1299 35.94 81.0291 34.8076 80.8894 33.6831C81.3936 33.4116 81.8899 33.0936 82.3165 32.6826C82.8206 32.2017 83.2394 31.5968 83.41 30.8522C83.5031 30.48 83.5574 30.0689 83.5729 29.6501C83.5729 29.2313 83.5884 28.7815 83.4954 28.3472C83.3247 27.4708 83.0533 26.5789 82.712 25.78C82.6422 26.6564 82.301 27.3855 81.9365 28.0524C81.5797 28.7194 81.1842 29.3554 80.8739 30.1077C80.6956 30.573 80.6025 31.0694 80.5482 31.5735C80.3621 30.5963 80.1449 29.6346 79.8657 28.7039C79.6873 28.0912 79.4857 27.494 79.2685 26.9046C80.1139 26.1135 80.8584 25.0742 80.8894 23.6239C80.8584 22.8716 80.6413 22.034 80.3155 21.2042C80.1527 20.7854 79.92 20.4053 79.6873 20.0253C79.4546 19.6453 79.2065 19.2808 78.9505 18.9317C79.0979 19.7771 78.9816 20.5294 78.8264 21.2429C78.6868 21.941 78.4231 22.67 78.3688 23.4456C78.3223 23.9031 78.3688 24.3685 78.4309 24.8416C77.8958 23.655 77.2908 22.5226 76.6316 21.4679C76.4609 21.1964 76.2826 20.9405 76.1042 20.6768C76.6936 19.7461 77.0814 18.6293 76.7557 17.2643C76.5618 16.5507 76.1507 15.8217 75.6621 15.1082C75.4217 14.7437 75.1192 14.4334 74.8245 14.1155C74.522 13.8052 74.2118 13.5028 73.9016 13.2313C74.2273 13.9914 74.2894 14.7126 74.3049 15.4029C74.3281 16.0854 74.2661 16.8144 74.3979 17.559C74.4677 17.9855 74.6151 18.4121 74.7857 18.8387C73.9559 17.7684 73.1027 16.7757 72.2418 15.8838C72.048 15.6821 71.8463 15.496 71.6524 15.3021C71.9859 14.3326 72.0945 13.2313 71.5206 12.0214C71.1948 11.3855 70.683 10.7572 70.0935 10.1678C69.7988 9.86534 69.4653 9.6094 69.1396 9.35346C68.8061 9.09752 68.4648 8.85709 68.1236 8.63994C68.5501 9.30693 68.7363 9.96616 68.8759 10.6176C69.0232 11.2536 69.1086 11.9439 69.38 12.6264C69.5274 12.9986 69.7445 13.3631 69.9772 13.7354C68.6975 12.6031 67.4643 11.6491 66.3475 10.8348C66.4871 9.8886 66.4251 8.83382 65.6883 7.76354C64.8817 6.63121 63.4081 5.59194 62.0121 4.87842C62.5007 5.46785 62.7566 6.0728 62.9738 6.66223C63.191 7.25166 63.3771 7.87212 63.7416 8.49258C63.9588 8.85709 64.2457 9.22161 64.5637 9.57837C64.3853 9.45428 64.2069 9.33019 64.0363 9.22161C62.9738 8.50809 62.0896 8.04274 61.4692 7.74802C60.841 7.46106 60.4997 7.33697 60.4997 7.33697C60.4997 7.33697 60.7712 7.59291 61.2986 8.02723C61.8259 8.46155 62.6248 9.05874 63.664 9.78002C63.8347 9.89636 64.0131 10.0282 64.1914 10.1523C63.7494 9.97391 63.3073 9.84206 62.8807 9.78778C62.175 9.69471 61.5623 9.77227 60.9418 9.84207C60.3213 9.91187 59.6931 9.95064 58.9951 9.78778C60.1895 10.6797 61.6088 11.5328 62.8885 11.8275C64.0441 12.1145 65.0601 11.8275 65.921 11.4165L65.9132 11.401Z" fill="#999999"/>
<path d="M80.7814 58.6642C81.0528 58.2997 81.301 57.9042 81.5182 57.5009C81.7508 57.0976 81.8982 56.671 82.0456 56.2522C81.3165 56.8106 80.4169 57.0278 79.5405 57.1829C78.9743 57.2759 78.4159 57.369 77.8652 57.4854L79.3078 60.068C79.8584 59.7112 80.3858 59.2381 80.7814 58.6642Z" fill="#999999"/>
<path d="M37.915 12.6961C38.0391 12.6961 38.1555 12.7116 38.2796 12.7426L39.4584 13.0218L45.0037 3.08676L50.5491 13.0218L51.7279 12.7426C51.8443 12.7116 51.9684 12.7038 52.0925 12.6961L45.0115 0L37.9306 12.6961H37.915Z" fill="#999999"/>
<path d="M64.8277 35.5445L64.4322 36.0409L64.9751 37.8092C65.0836 38.1582 65.0681 38.5227 64.9518 38.8484L87.071 78.5033H2.9295L25.0487 38.8484C24.9324 38.5227 24.9169 38.1582 25.0255 37.8092L25.5684 36.0409L25.1728 35.5445L0.370117 80.0001H89.6304L64.8277 35.5367V35.5445Z" fill="#999999"/>
<path d="M64.4786 72.6321C64.626 72.5235 64.6958 72.3994 64.6958 72.2366C64.6958 72.1125 64.6493 71.9961 64.564 71.8876C64.4786 71.779 64.3623 71.7092 64.2227 71.6859L63.5635 71.7635V72.7872H63.8272C64.1219 72.7872 64.339 72.7329 64.4864 72.6321H64.4786Z" fill="#999999"/>
<path d="M64.6182 73.2836C64.4709 73.1595 64.277 73.0897 64.0443 73.0897H63.5635V74.2531L64.0443 74.2919H64.1529C64.3778 74.2919 64.5484 74.2453 64.6648 74.129C64.7889 74.0204 64.8432 73.8886 64.8432 73.7334C64.8432 73.5551 64.7656 73.4 64.6182 73.2759V73.2836Z" fill="#999999"/>
<path d="M16.6097 71.6782C16.4624 71.6782 16.315 71.7014 16.1599 71.7557C16.0281 71.8488 15.9272 72.0117 15.8419 72.2288C15.7644 72.446 15.7256 72.6864 15.7256 72.9501C15.7256 73.3689 15.8264 73.7024 16.0203 73.9583C16.2142 74.2065 16.4779 74.3384 16.8114 74.3384C16.9277 74.3384 17.0441 74.3228 17.1681 74.2918C17.3155 74.191 17.4396 74.0359 17.5327 73.811C17.6257 73.5938 17.6723 73.3456 17.6723 73.0742C17.6723 72.6554 17.5792 72.3219 17.3853 72.0582C17.1914 71.8023 16.9355 71.6704 16.6175 71.6704L16.6097 71.6782Z" fill="#999999"/>
<path d="M29.0586 73.3456H30.1289L29.5937 72.0659L29.0586 73.3456Z" fill="#999999"/>
<path d="M35.2627 72.3451C35.2627 72.0349 35.1386 71.8177 34.8982 71.6936L34.0605 71.7712V72.9966C34.2234 73.0198 34.3553 73.0353 34.4638 73.0353C34.7508 73.0353 34.9602 72.9733 35.0843 72.8337C35.2006 72.7018 35.2627 72.539 35.2627 72.3451Z" fill="#999999"/>
<path d="M42.584 11.494C42.8554 11.494 43.1269 11.5638 43.3673 11.6879L45.0037 12.5488L46.6402 11.6801C46.8806 11.556 47.1521 11.4862 47.4235 11.4862C47.8191 11.4862 48.1913 11.6258 48.4938 11.8818L45.0037 5.62292L41.5137 11.8818C41.8161 11.6336 42.1884 11.4862 42.584 11.4862V11.494Z" fill="#999999"/>
<path d="M64.0984 39.8486L62.9041 40.7483L62.9894 42.6019C63.0204 43.3077 62.6094 43.9591 61.9579 44.2306L60.2516 44.9441L59.8716 46.7589C59.732 47.4492 59.1658 47.9766 58.4678 48.0774L57.033 48.2791C57.033 48.2791 57.0563 48.3334 57.064 48.3644C57.9016 52.6921 58.9099 57.0197 60.05 61.2388C60.0965 61.4017 60.05 61.5801 59.9336 61.6964C59.8406 61.7895 59.7165 61.8438 59.5846 61.8438C59.5536 61.8438 59.5148 61.8438 59.4838 61.836C57.32 61.3552 55.1406 60.8355 52.9845 60.2926C51.3481 61.7972 49.7194 63.3484 48.1217 64.9073C48.0286 65.0004 47.9046 65.0469 47.7805 65.0469C47.7417 65.0469 47.6951 65.0469 47.6564 65.0314C47.4935 64.9848 47.3617 64.853 47.3151 64.6901C46.462 61.5336 45.6787 58.3149 44.9807 55.0963C44.2826 58.3149 43.5071 61.5336 42.6462 64.6901C42.5997 64.853 42.4756 64.9848 42.3049 65.0314C42.2662 65.0391 42.2196 65.0469 42.1809 65.0469C42.0568 65.0469 41.9327 65.0004 41.8396 64.9073C40.2497 63.3484 38.6132 61.7972 36.9768 60.2926C34.8207 60.8355 32.6336 61.3552 30.4775 61.836C30.4465 61.836 30.4077 61.8438 30.3767 61.8438C30.2448 61.8438 30.1207 61.7895 30.0277 61.6964C29.9113 61.5723 29.8648 61.4017 29.9113 61.2388C31.0592 56.9965 32.0752 52.6378 32.9128 48.2868C32.9128 48.2868 32.9128 48.2791 32.9128 48.2713L31.5478 48.0774C30.8498 47.9766 30.2836 47.4492 30.144 46.7589L29.764 44.9441L28.0577 44.2306C27.4063 43.9591 26.9952 43.3077 27.0262 42.6019L27.1115 40.7483L25.9172 39.8486L5.13965 77.0837H84.8837L64.1062 39.8486H64.0984ZM13.3064 71.709L12.3447 73.3687V74.3382L12.7868 74.3925V74.6329H11.3209L11.2899 74.4778C11.3907 74.4313 11.5303 74.3692 11.7087 74.3072V73.392L10.7237 71.6703L10.3903 71.6315V71.391H11.7087L11.7397 71.5462L11.414 71.678L11.9491 72.6242L12.0888 73.0353H12.112L12.8411 71.678L12.43 71.6315V71.391H13.6709L13.7019 71.5462C13.5856 71.6082 13.4538 71.6625 13.3064 71.709ZM17.921 74.2762C17.6108 74.5864 17.2153 74.7337 16.7267 74.7337C16.238 74.7337 15.827 74.5786 15.509 74.2684C15.191 73.9582 15.0359 73.5471 15.0359 73.0353C15.0359 72.5234 15.191 72.1046 15.5013 71.7788C15.8115 71.4531 16.207 71.2902 16.6879 71.2902C17.1687 71.2902 17.5875 71.4531 17.9055 71.7788C18.2235 72.1046 18.3864 72.5311 18.3864 73.0508C18.3864 73.5704 18.2313 73.9659 17.921 74.2684V74.2762ZM23.1716 73.2524C23.1561 74.2374 22.7141 74.7337 21.8454 74.7337C21.3723 74.7337 21 74.6019 20.7286 74.3305C20.4571 74.059 20.3175 73.6945 20.3175 73.2214V71.6858L19.9065 71.6392V71.3988H21.3878L21.4189 71.5539C21.3335 71.6004 21.1784 71.6625 20.969 71.7323V73.3067C20.969 73.6324 21.0543 73.8884 21.2172 74.059C21.3801 74.2296 21.6127 74.3227 21.8997 74.3227C22.0703 74.3227 22.2332 74.2917 22.3806 74.2219C22.59 74.0668 22.6908 73.741 22.6908 73.2679V71.7013L22.2254 71.647V71.4066H23.5904L23.6215 71.5617C23.5362 71.6082 23.381 71.6702 23.1716 71.7401V73.2602V73.2524ZM31.6176 74.6407H30.0742L30.0432 74.4856C30.1595 74.4235 30.3224 74.3615 30.5318 74.2994L30.2836 73.7022H28.9341L28.6704 74.346L29.1901 74.408V74.6484H27.7785L27.7475 74.4933C27.8716 74.4313 28.0189 74.3692 28.1896 74.3227L29.3995 71.5694L29.3452 71.4453L29.9036 71.2902L31.2453 74.3692L31.6253 74.4158V74.6562L31.6176 74.6407ZM36.2865 74.6407H35.3481L34.6035 73.3687H34.0684V74.3382L34.5958 74.4002V74.6407H32.9981L32.9671 74.4856L33.4169 74.3072V71.6858L33.0369 71.6547V71.4066L34.6346 71.3678C35.0301 71.3678 35.3481 71.4608 35.5963 71.647C35.8444 71.8331 35.9685 72.0658 35.9685 72.3527C35.9685 72.5544 35.9065 72.7405 35.7746 72.9112C35.6428 73.0818 35.4644 73.2136 35.2317 73.2912L35.9453 74.377L36.2943 74.4158V74.6562L36.2865 74.6407ZM37.8997 71.647V71.3988H40.5056V71.5384C40.5056 71.7711 40.4824 72.0193 40.4358 72.2752H40.0713L39.9937 71.8021L38.939 71.7401V72.8646L40.1256 72.7716V73.2369L38.939 73.1904V74.2684L40.0403 74.2064L40.2031 73.6712L40.5677 73.6945C40.5677 74.028 40.5522 74.3382 40.5056 74.6329H37.8842L37.8532 74.4778L38.303 74.2994V71.678L37.923 71.647H37.8997ZM38.9079 69.0178C36.9613 69.0023 35.0456 68.9945 33.1998 68.979C29.4925 68.948 26.0412 68.8704 23.0708 68.8317C20.1081 68.7929 17.6341 68.6998 15.9123 68.661C14.1828 68.6067 13.1978 68.568 13.1978 68.568C13.1978 68.568 14.1828 68.5369 15.9123 68.4749C17.6418 68.4361 20.1081 68.3431 23.0708 68.3043C26.0335 68.2655 29.4925 68.1879 33.1998 68.1569C35.0534 68.1414 36.969 68.1337 38.9079 68.1181C40.8546 68.1181 42.8323 68.1104 44.8023 68.1026C46.78 68.1026 48.7499 68.1104 50.6966 68.1181C52.6433 68.1337 54.5589 68.1414 56.4048 68.1569C60.112 68.1879 63.5633 68.2655 66.5337 68.3043C69.4964 68.3431 71.9705 68.4361 73.6922 68.4749C75.4218 68.5292 76.4067 68.568 76.4067 68.568C76.4067 68.568 75.4218 68.599 73.6922 68.661C71.9627 68.6998 69.4964 68.7929 66.5337 68.8317C63.5711 68.8704 60.112 68.948 56.4048 68.979C54.5512 68.9945 52.6355 69.0023 50.6966 69.0178C48.7499 69.0178 46.7722 69.0256 44.8023 69.0333C42.8246 69.0333 40.8546 69.0256 38.9079 69.0178ZM65.192 74.3925C64.9438 74.5554 64.6026 74.6407 64.1838 74.6484H62.5008L62.4697 74.4933L62.9196 74.3149V71.6935L62.5396 71.6625V71.4143C63.16 71.391 63.6719 71.3755 64.0674 71.3755C64.463 71.3755 64.7887 71.4531 65.0214 71.6004C65.2618 71.7556 65.3781 71.9572 65.3781 72.2054C65.3781 72.376 65.3161 72.5311 65.192 72.6707C65.0679 72.8103 64.8895 72.8956 64.6569 72.9267C64.9438 72.9655 65.161 73.0663 65.3161 73.2136C65.4712 73.3687 65.5488 73.5471 65.5488 73.7488C65.5488 74.0125 65.4247 74.2296 65.1765 74.3925H65.192ZM47.5323 74.6484H45.7873L45.7562 74.4933L46.144 74.3537L46.3146 74.2994V71.7168L45.5391 71.7556L45.4693 72.314H45.1125C45.066 72.0425 45.0349 71.7788 45.0349 71.5306V71.3755L46.6481 71.3988C47.2143 71.3988 47.7417 71.3988 48.238 71.3755V71.5074C48.238 71.7633 48.2225 72.0348 48.1682 72.3217H47.8037L47.7339 71.7633L46.9584 71.7245V74.346L47.54 74.4158V74.6562L47.5323 74.6484ZM53.5817 74.6484H52.0151L51.9841 74.4933L52.4339 74.3149V73.2369H50.8517V74.3537L51.3558 74.4158V74.6562H49.7814L49.7504 74.5011L50.2002 74.3227V71.709L49.7892 71.6625V71.4221H51.2628L51.2938 71.5772C51.2085 71.6237 51.0534 71.6858 50.844 71.7556V72.8569H52.4261V71.709L52.0151 71.6625V71.4221H53.4964L53.5274 71.5772C53.4421 71.6237 53.287 71.6858 53.0776 71.7556V74.3615L53.5817 74.4235V74.664V74.6484ZM57.8163 74.6484H55.1949L55.1639 74.4933L55.6137 74.3149V71.6935L55.2337 71.6625V71.4143H57.8396V71.5539C57.8396 71.7866 57.8163 72.0348 57.7698 72.2907H57.4053L57.3277 71.8176L56.2729 71.7556V72.8801L57.4596 72.7871V73.2524L56.2729 73.2059V74.2839L57.3743 74.2219L57.5371 73.6867L57.9016 73.71C57.9016 74.0435 57.8861 74.3537 57.8396 74.6484H57.8163ZM69.9307 74.6484H67.3093L67.2783 74.4933L67.7281 74.3149V71.6935L67.3481 71.6625V71.4143H69.954V71.5539C69.954 71.7866 69.9307 72.0348 69.8842 72.2907H69.5197L69.4421 71.8176L68.3873 71.7556V72.8801L69.574 72.7871V73.2524L68.3873 73.2059V74.2839L69.4887 74.2219L69.6515 73.6867L70.016 73.71C70.016 74.0435 70.0005 74.3537 69.954 74.6484H69.9307ZM74.018 74.4778C73.7853 74.6562 73.4828 74.7493 73.1261 74.7493C72.9244 74.7493 72.7073 74.7182 72.4746 74.664C72.2419 74.6019 72.0635 74.5243 71.9317 74.4235V74.408V74.2374C71.9317 73.9814 71.955 73.7488 72.0015 73.5471H72.335L72.5056 74.1986C72.7305 74.3227 72.9942 74.3847 73.3045 74.3847H73.4208C73.6224 74.2839 73.7155 74.1366 73.7155 73.9194C73.7155 73.7333 73.5992 73.5781 73.351 73.4463L72.5134 73.043C72.1333 72.8336 71.9472 72.5699 71.9472 72.2442C71.9472 71.965 72.0713 71.7401 72.3117 71.5694C72.5599 71.3988 72.8701 71.3057 73.2502 71.3057C73.5371 71.3057 73.8629 71.36 74.2119 71.4686C74.2274 71.7478 74.2119 72.0425 74.1421 72.345H73.7853L73.6845 71.8331C73.4828 71.7245 73.2502 71.6703 72.9865 71.6703H72.8236C72.653 71.7711 72.5754 71.9107 72.5754 72.1046C72.5754 72.283 72.6995 72.4303 72.9554 72.5544L73.7543 72.9189C74.1653 73.1361 74.3747 73.4153 74.3747 73.772C74.3747 74.059 74.2584 74.2917 74.018 74.4778ZM79.1523 72.3217H78.7877L78.7179 71.7633L77.9424 71.7245V74.346L78.524 74.4158V74.6562H76.7713L76.7402 74.5011L77.128 74.3615L77.2986 74.3072V71.7245L76.5231 71.7633L76.4533 72.3217H76.0965C76.05 72.0503 76.019 71.7866 76.019 71.5384V71.3833L77.6321 71.4066C78.1983 71.4066 78.7257 71.4066 79.2221 71.3833V71.5151C79.2221 71.7711 79.2065 72.0425 79.1523 72.3295V72.3217Z" fill="#999999"/>
<path d="M30.3682 61.3629C32.6173 60.8665 34.8587 60.3314 37.1079 59.7574C38.8141 61.3241 40.5049 62.9295 42.1723 64.566C42.6765 62.7046 43.1496 60.8355 43.5994 58.9664C44.0492 57.0972 44.468 55.2126 44.8558 53.328C44.5611 53.3047 44.2741 53.2039 44.0259 53.0333L42.5136 51.9707L40.7841 52.6222C40.691 52.661 40.5902 52.6842 40.4893 52.6998C40.3885 52.7153 40.2877 52.7308 40.1869 52.7308C39.6905 52.7308 39.2252 52.5136 38.8994 52.1413L37.6973 50.7376L35.867 50.9392C35.7894 50.947 35.7196 50.947 35.642 50.9392C35.6033 50.9392 35.5722 50.9392 35.5335 50.9392C35.4869 50.9392 35.4404 50.9315 35.3939 50.9237C35.3551 50.9237 35.3241 50.9082 35.293 50.9004C35.2465 50.8927 35.2 50.8772 35.1612 50.8617C35.1302 50.8539 35.0914 50.8384 35.0604 50.8229C35.0138 50.8074 34.975 50.7841 34.9363 50.7608C34.9052 50.7453 34.8742 50.7298 34.8432 50.7143C34.8044 50.691 34.7656 50.66 34.7269 50.6367C34.6958 50.6135 34.6726 50.598 34.6416 50.5747C34.6028 50.5437 34.564 50.5126 34.533 50.4739C34.5097 50.4506 34.4864 50.4273 34.4632 50.4041C34.4244 50.3653 34.3934 50.3188 34.3546 50.28C34.3391 50.2567 34.3158 50.2412 34.3003 50.2179C34.2538 50.1481 34.2072 50.0783 34.1762 50.0008L33.3774 48.3721C33.168 49.4656 32.9431 50.5514 32.7181 51.6372C32.0279 54.8946 31.2446 58.1442 30.3682 61.3629Z" fill="#999999"/>
<path d="M56.5818 48.4497L55.8218 50.0008C55.783 50.0784 55.7442 50.1482 55.6977 50.2102C55.6822 50.2335 55.6667 50.2568 55.6434 50.2723C55.6124 50.3188 55.5736 50.3576 55.5348 50.3964C55.5115 50.4196 55.4883 50.4429 55.465 50.4662C55.4262 50.4972 55.3952 50.536 55.3564 50.567C55.3332 50.5903 55.3021 50.6058 55.2711 50.6291C55.2323 50.6601 55.1936 50.6834 55.1548 50.7066C55.1238 50.7221 55.0927 50.7376 55.0617 50.7531C55.0229 50.7764 54.9764 50.7919 54.9299 50.8152C54.8988 50.8307 54.8601 50.8385 54.829 50.854C54.7825 50.8695 54.736 50.885 54.6972 50.8927C54.6662 50.9005 54.6274 50.9083 54.5964 50.916C54.5498 50.9238 54.5033 50.9315 54.4568 50.9315C54.418 50.9315 54.387 50.9315 54.3482 50.9315C54.2706 50.9315 54.2008 50.9315 54.1233 50.9315L52.2929 50.7299L51.0908 52.1337C51.0132 52.2267 50.9202 52.312 50.8271 52.3818C50.734 52.4516 50.6255 52.5137 50.5169 52.568C50.2997 52.6688 50.0593 52.7231 49.8111 52.7231C49.6095 52.7231 49.4078 52.6843 49.2139 52.6145L47.4844 51.963L45.972 53.0256C45.91 53.0721 45.8402 53.1109 45.7704 53.1497C45.561 53.2582 45.3283 53.3125 45.0879 53.328C45.2818 54.2742 45.4834 55.2127 45.6928 56.1511C45.9022 57.0895 46.1194 58.028 46.3443 58.9664C46.7941 60.8356 47.2672 62.7047 47.7714 64.566C49.4388 62.9296 51.1296 61.3319 52.8358 59.7575C53.9604 60.0445 55.085 60.3237 56.2096 60.5874C57.3341 60.8511 58.4587 61.1148 59.5833 61.3629C58.4277 57.0973 57.4272 52.7929 56.5896 48.4497H56.5818Z" fill="#999999"/>
<path d="M33.6255 15.5113C33.1213 15.519 32.6793 15.8448 32.5164 16.3179L31.8339 18.3111L29.8019 18.8695C29.4374 18.9703 29.1504 19.234 29.0108 19.5675C28.9643 19.6761 28.9333 19.8002 28.9255 19.9243L28.7549 22.026L26.9245 23.0731C26.8702 23.1041 26.816 23.1429 26.7694 23.1739C26.6221 23.2902 26.5135 23.4376 26.4359 23.6005C26.3351 23.8176 26.2963 24.0658 26.3429 24.314L26.6996 26.3925L25.9473 27.1293L25.195 27.8661C25.1019 27.9514 25.0321 28.0522 24.9779 28.1608C24.8072 28.4788 24.784 28.8666 24.9391 29.2156L25.8077 31.139L24.7064 32.9383C24.5746 33.1555 24.5203 33.3959 24.5358 33.6363C24.5513 33.8768 24.6366 34.1094 24.7917 34.3033L26.1102 35.9475L25.4897 37.964C25.3967 38.2665 25.4277 38.5767 25.5673 38.8482C25.6448 39.011 25.7689 39.1506 25.9163 39.267L27.5993 40.5311L27.5527 41.5859L27.5062 42.6407C27.4985 42.8501 27.545 43.0517 27.6381 43.2301C27.7311 43.4085 27.863 43.5636 28.0336 43.6799C28.0956 43.7265 28.1654 43.7653 28.243 43.7963L30.1897 44.6029L30.6162 46.6659C30.6395 46.79 30.686 46.9063 30.7481 47.0071C30.7791 47.0614 30.8101 47.108 30.8489 47.1545C30.9265 47.2476 31.0118 47.3329 31.1126 47.4027C31.26 47.5035 31.4306 47.5733 31.6167 47.6043L33.703 47.9068L34.6337 49.7992C34.7888 50.1094 35.0603 50.3266 35.3782 50.4197C35.4868 50.4507 35.5954 50.4662 35.704 50.4662C35.7505 50.4662 35.7893 50.4662 35.8358 50.4662L37.9299 50.2335L39.3026 51.8312C39.419 51.963 39.5586 52.0716 39.7137 52.1414C39.7912 52.1802 39.8688 52.2035 39.9541 52.219C40.0394 52.2345 40.1247 52.2422 40.21 52.2422C40.2798 52.2422 40.3496 52.2422 40.4194 52.2267C40.4892 52.2112 40.559 52.1957 40.6288 52.1724L42.5988 51.4279L44.3206 52.6378C44.53 52.7851 44.7626 52.8549 45.0031 52.8549C45.2435 52.8549 45.4839 52.7851 45.6856 52.6378L47.4073 51.4279L49.3773 52.1724C49.5169 52.2267 49.6565 52.25 49.7961 52.25C50.1373 52.25 50.4708 52.1026 50.7035 51.8312L52.0763 50.2335L54.1703 50.4662C54.2168 50.4662 54.2556 50.4662 54.3021 50.4662C54.4185 50.4662 54.5271 50.4507 54.6279 50.4197C54.8373 50.3576 55.0312 50.2413 55.1785 50.0784C55.2561 49.9931 55.3181 49.9 55.3647 49.7992L56.2954 47.9068L58.3816 47.6043C58.6919 47.5578 58.9633 47.3949 59.1494 47.1623C59.258 47.0227 59.3433 46.852 59.3821 46.6659L59.8087 44.6029L61.7554 43.7963C62.1044 43.6489 62.3526 43.3542 62.4534 43.0052C62.4844 42.8889 62.4999 42.7648 62.4922 42.6407L62.3913 40.5389L64.0743 39.2747C64.1208 39.2359 64.1674 39.1972 64.2139 39.1506C64.5164 38.8404 64.625 38.3906 64.5009 37.9718L63.8804 35.9553L65.1989 34.3111C65.354 34.1172 65.4393 33.8768 65.4548 33.6441C65.4703 33.4037 65.416 33.1632 65.2842 32.9461L64.1829 31.1468L65.0515 29.2233C65.1524 28.9907 65.1834 28.7425 65.1368 28.5098C65.0903 28.2771 64.974 28.0522 64.7956 27.8738L63.2832 26.408L63.64 24.3295C63.6633 24.2054 63.6633 24.0813 63.64 23.965C63.609 23.7245 63.5004 23.4996 63.3375 23.3212C63.2522 23.2282 63.1591 23.1506 63.0506 23.0886L61.2202 22.0416L61.0496 19.9398C61.0186 19.5675 60.8169 19.234 60.5145 19.0323C60.4136 18.9625 60.2973 18.916 60.181 18.885L58.149 18.3266L57.4665 16.3334C57.3656 16.0387 57.1562 15.7982 56.8848 15.6586C56.7762 15.6043 56.6599 15.5656 56.5435 15.5423C56.4815 15.5345 56.4194 15.5268 56.3574 15.5268L54.2479 15.488L53.0923 13.7275C53.038 13.6421 52.9682 13.5646 52.8984 13.5025C52.751 13.3707 52.5726 13.2776 52.3865 13.2311C52.2934 13.2078 52.1926 13.1923 52.0918 13.1923C51.9987 13.1923 51.9056 13.2001 51.8126 13.2233L49.7651 13.7119L48.2062 12.2926C47.9812 12.091 47.6943 11.9824 47.4073 11.9824C47.2212 11.9824 47.0273 12.029 46.8489 12.122L44.9875 13.107L43.1262 12.122C43.0409 12.0755 42.9478 12.0445 42.8547 12.0212C42.7617 11.9979 42.6686 11.9902 42.5678 11.9902C42.498 11.9902 42.4204 11.9902 42.3506 12.0134C42.211 12.0367 42.0714 12.091 41.9473 12.1686C41.8853 12.2073 41.8232 12.2539 41.7689 12.3004L40.21 13.7197L38.1625 13.2311C38.116 13.2233 38.0695 13.2233 38.0229 13.2156C37.9764 13.2156 37.9299 13.2001 37.8833 13.2001C37.4878 13.2001 37.1078 13.394 36.8906 13.7352L35.735 15.4958L33.6255 15.5345V15.5113ZM42.3584 15.2631C43.2192 15.1312 44.1034 15.0614 44.9953 15.0614C49.4781 15.0614 53.5731 16.7677 56.6521 19.5752C60.1422 22.7473 62.3448 27.3309 62.3448 32.4109C62.3448 37.4909 60.1499 42.0668 56.6521 45.2466C53.5731 48.0464 49.4781 49.7604 44.9953 49.7604C44.0956 49.7604 43.2192 49.6906 42.3584 49.5588C38.6279 48.9848 35.2852 47.2243 32.7335 44.6727C32.338 44.2771 31.9657 43.8661 31.6167 43.4395C29.1427 40.4381 27.6536 36.599 27.6536 32.4109C27.6536 28.2228 29.1427 24.3838 31.6167 21.3823C31.9735 20.9558 32.3458 20.5447 32.7335 20.1492C35.2852 17.5975 38.6279 15.837 42.3584 15.2631Z" fill="#999999"/>
<path d="M34.0596 25.0276C33.9433 25.206 33.827 25.3844 33.7184 25.5627C32.5007 27.5559 31.8027 29.8982 31.8027 32.4033C31.8027 34.9084 32.5007 37.2506 33.7184 39.2438C33.827 39.4222 33.9433 39.6005 34.0596 39.7789C34.6568 40.6553 35.3471 41.4619 36.1304 42.1677C36.4406 42.4546 36.7664 42.7183 37.1076 42.9743C37.7824 43.4784 38.5114 43.9282 39.2792 44.2927C39.4731 44.3858 39.667 44.4711 39.8609 44.5564C41.4431 45.2234 43.1726 45.5957 44.9952 45.5957C52.2778 45.5957 58.1954 39.6704 58.1954 32.3955C58.1954 25.1207 52.27 19.1953 44.9952 19.1953C43.1726 19.1953 41.4431 19.5676 39.8609 20.2346C39.667 20.3199 39.4654 20.4052 39.2792 20.4983C38.5114 20.8705 37.7824 21.3126 37.1076 21.8167C36.7664 22.0727 36.4406 22.3364 36.1304 22.6233C35.3471 23.3369 34.6491 24.1357 34.0596 25.0121V25.0276ZM37.2162 22.9568C38.4261 21.9563 39.8299 21.1885 41.3655 20.7077C41.7455 20.5913 42.1411 20.4905 42.5366 20.4052C42.7383 20.3664 42.9399 20.3276 43.1416 20.2966C43.7465 20.2036 44.3747 20.157 45.0029 20.157C46.9031 20.157 48.7024 20.5913 50.3078 21.3669C50.4862 21.4522 50.6646 21.5453 50.8352 21.6384C51.5255 22.0184 52.1847 22.4605 52.7896 22.9568C55.5119 25.206 57.2492 28.603 57.2492 32.4033C57.2492 36.2036 55.5119 39.6005 52.7896 41.8497C52.1847 42.3461 51.5332 42.7881 50.8352 43.1682C50.6646 43.2612 50.4862 43.3543 50.3078 43.4396C48.7024 44.2152 46.9031 44.6495 45.0029 44.6495C44.367 44.6495 43.7465 44.603 43.1416 44.5099C42.9399 44.4789 42.7383 44.4401 42.5366 44.4013C42.1411 44.316 41.7455 44.2152 41.3655 44.0989C39.8299 43.618 38.4261 42.8502 37.2162 41.8497C36.4562 41.2215 35.7814 40.5157 35.192 39.7246C34.843 39.2515 34.5172 38.7552 34.238 38.2355C34.0519 37.8865 33.8735 37.5298 33.7184 37.1653C33.0979 35.6994 32.7567 34.094 32.7567 32.4033C32.7567 30.7125 33.0979 29.1071 33.7184 27.6413C33.8735 27.2767 34.0441 26.92 34.238 26.571C34.5172 26.0513 34.843 25.555 35.192 25.0819C35.7814 24.2986 36.4639 23.585 37.2162 22.9568Z" fill="#999999"/>
<path d="M56.7293 32.0775C56.7293 31.8759 56.7138 31.6742 56.6906 31.4726C56.6751 31.2709 56.6518 31.0693 56.6285 30.8676C56.6053 30.666 56.5665 30.4721 56.5277 30.2782C56.3028 29.1071 55.8995 28.0058 55.3799 27.0285C55.0308 26.3771 54.6276 25.7721 54.201 25.2292C53.7744 24.6863 53.3013 24.1977 52.8205 23.7711C52.3396 23.3446 51.8433 22.9801 51.3469 22.6698C50.8505 22.3596 50.3619 22.1037 49.8811 21.8943C49.6406 21.7857 49.408 21.6926 49.1831 21.6151C48.7255 21.4444 48.2989 21.3203 47.8956 21.2273C47.694 21.1807 47.5001 21.142 47.3217 21.1032C46.9572 21.0334 46.6237 20.9946 46.3367 20.9713C46.0498 20.9481 45.8016 20.9403 45.6077 20.9248C45.2121 20.9248 45.0027 20.9248 45.0027 20.9248C45.0027 20.9248 45.1191 20.9248 45.3517 20.9403C45.4293 20.9403 45.5146 20.9481 45.6154 20.9558C45.7163 20.9636 45.8248 20.9791 45.9412 20.9869C46.0653 21.0024 46.1971 21.0179 46.3367 21.0334C46.6237 21.0722 46.9417 21.1265 47.3062 21.204C47.6629 21.2816 48.0585 21.3902 48.4773 21.5375C48.8961 21.6849 49.3382 21.8632 49.7958 22.0882C50.7109 22.5302 51.6804 23.174 52.6033 24.0193C53.0609 24.4459 53.503 24.9267 53.9063 25.4619C54.3096 25.997 54.6896 26.5865 55.0076 27.2224C55.6513 28.4944 56.0701 29.968 56.1864 31.5113C56.3028 33.0547 56.0856 34.6757 55.535 36.2035C55.3954 36.5836 55.2403 36.9636 55.0541 37.3281C54.8757 37.6926 54.6741 38.0494 54.4492 38.3984C54.0071 39.0886 53.4875 39.7401 52.9058 40.3218C52.0294 41.1982 51.0134 41.9272 49.9121 42.4701C49.5476 42.6485 49.1675 42.8114 48.7875 42.951C47.2596 43.5016 45.6465 43.711 44.0876 43.5947C42.5442 43.4784 41.0706 43.0596 39.8064 42.4158C39.4884 42.253 39.1782 42.0823 38.8912 41.8962C38.0071 41.3456 37.247 40.6941 36.6033 40.0116C35.7579 39.0886 35.122 38.1192 34.6721 37.204C34.5636 36.9713 34.4627 36.7464 34.3697 36.5293C34.0982 35.87 33.9121 35.2496 33.7957 34.7144C33.7182 34.3577 33.6639 34.0319 33.6251 33.745C33.5863 33.458 33.5631 33.2176 33.5398 33.0237C33.5321 32.822 33.5243 32.6747 33.5165 32.5739C33.5165 32.473 33.5088 32.4188 33.5088 32.4188V32.4575C33.5088 32.5351 33.5088 32.729 33.5088 33.0237C33.5088 33.1245 33.5165 33.2331 33.5243 33.3572C33.5398 33.5976 33.5553 33.8923 33.6019 34.2181C33.6251 34.3809 33.6484 34.5593 33.6872 34.7377C33.757 35.1022 33.85 35.5055 33.9741 35.9321C34.106 36.3586 34.2688 36.8162 34.4783 37.2971C34.6877 37.7702 34.9436 38.2665 35.2538 38.7629C35.564 39.2593 35.9363 39.7556 36.3551 40.2365C36.7817 40.7173 37.2703 41.1827 37.8132 41.617C38.3561 42.0513 38.9533 42.4546 39.6125 42.8036C40.5897 43.331 41.691 43.7343 42.8622 43.9515C43.2499 44.029 43.6532 44.0833 44.0565 44.1143C45.662 44.2539 47.3682 44.06 48.9736 43.4861C49.5786 43.269 50.1603 43.0053 50.7264 42.6873C50.9126 42.5787 51.0987 42.4701 51.2848 42.3538C52.0139 41.8885 52.6964 41.3533 53.3091 40.7406C53.4642 40.5855 53.6116 40.4304 53.7512 40.2675C54.7594 39.1352 55.5505 37.809 56.0468 36.4052C56.551 35.0014 56.7604 33.5201 56.7138 32.093L56.7293 32.0775Z" fill="#999999"/>
<path d="M57.3116 20.9402C57.1487 20.7618 56.9781 20.5912 56.8075 20.4283C56.6369 20.2655 56.4662 20.1026 56.2956 19.9475C55.9466 19.6372 55.5976 19.3503 55.2408 19.0866C54.7057 18.6833 54.1706 18.3343 53.6432 18.0163C53.108 17.7061 52.5806 17.4346 52.0688 17.2097C51.0373 16.7521 50.0678 16.4341 49.1992 16.2247C48.9122 16.1549 48.633 16.0929 48.3693 16.0464C47.8419 15.9455 47.3611 15.8835 46.95 15.8447C46.5312 15.8059 46.1822 15.7904 45.8952 15.7749C45.4609 15.7749 45.1817 15.7749 45.0731 15.7749C45.0343 15.7749 45.0188 15.7749 45.0188 15.7749C45.0188 15.7749 45.0964 15.7749 45.2438 15.7827C45.3911 15.7827 45.6083 15.7982 45.903 15.8137C46.0426 15.8292 46.2055 15.8369 46.3838 15.8602C46.7328 15.899 47.1517 15.9455 47.617 16.0231C47.8497 16.0619 48.0978 16.1084 48.3615 16.1704C48.8812 16.2868 49.4551 16.4341 50.0678 16.6435C50.6805 16.8529 51.3242 17.1089 51.9912 17.4269C53.3329 18.0706 54.7445 18.9858 56.094 20.2112C56.2568 20.3663 56.4275 20.5291 56.5903 20.692C57.7382 21.8476 58.793 23.2436 59.6151 24.8723C60.0882 25.7953 60.4837 26.7957 60.7784 27.8428C60.856 28.1065 60.918 28.3702 60.9801 28.6416C61.1662 29.4482 61.2903 30.2781 61.3601 31.1234C61.4221 31.9688 61.4221 32.8297 61.3601 33.6983C61.2438 35.1409 60.9413 36.5912 60.4372 37.9872C60.0339 39.104 59.4987 40.1821 58.855 41.1903C58.2113 42.1986 57.4512 43.1448 56.5981 43.9979C56.1715 44.4244 55.7217 44.8277 55.2564 45.2C55.0237 45.3862 54.7833 45.5723 54.5351 45.7429C53.3174 46.6193 51.9835 47.3328 50.5874 47.8369C48.3538 48.6435 45.9883 48.9383 43.7236 48.7676C43.1575 48.7211 42.6068 48.6513 42.0562 48.5582C40.4197 48.2635 38.8608 47.7361 37.4725 47.0304C35.6189 46.0919 34.0523 44.8432 32.8191 43.5093C32.664 43.3386 32.5167 43.168 32.3771 42.9974C32.0901 42.6562 31.8186 42.3149 31.5705 41.9659C30.9422 41.105 30.4381 40.2364 30.0348 39.3988C29.3911 38.057 29.0033 36.8161 28.7784 35.7691C28.6621 35.2495 28.5923 34.7764 28.538 34.3653C28.4837 33.9543 28.4527 33.5975 28.4294 33.3105C28.4061 32.7366 28.3906 32.4341 28.3906 32.4341C28.3906 32.4341 28.3906 32.4807 28.3906 32.5582C28.3906 32.6668 28.3906 32.8529 28.3906 33.1089C28.3906 33.1709 28.3906 33.2407 28.3906 33.3105C28.4061 33.5975 28.4216 33.9543 28.4604 34.3653C28.4837 34.5747 28.507 34.7996 28.538 35.0323C28.569 35.2727 28.6078 35.5209 28.6621 35.7846C28.8637 36.8394 29.2205 38.1113 29.8332 39.4841C29.9107 39.6547 29.9883 39.8253 30.0736 40.0037C30.2442 40.3527 30.4304 40.7017 30.6398 41.0585C30.8492 41.4152 31.0741 41.772 31.3223 42.1288C31.6946 42.6639 32.1056 43.199 32.5709 43.7187C32.8812 44.0677 33.2147 44.4012 33.5637 44.7347C34.4401 45.5645 35.4483 46.3401 36.5806 47.0148C36.8056 47.1467 37.0382 47.2785 37.2709 47.4026C38.2093 47.9067 39.2331 48.3256 40.3111 48.6435C41.3892 48.9615 42.5215 49.1787 43.6849 49.2718C46.0038 49.4656 48.4546 49.1787 50.7658 48.3488C51.9214 47.9378 53.0382 47.3871 54.093 46.7279C55.14 46.0609 56.125 45.2853 57.0091 44.4089C58.7619 42.6329 60.1269 40.4768 60.949 38.1656C61.7711 35.8544 62.0659 33.4036 61.872 31.0769C61.7324 29.3319 61.3136 27.6566 60.6853 26.1365C60.5845 25.8806 60.4682 25.6324 60.3596 25.392C60.2433 25.1438 60.1269 24.9034 60.0028 24.6707C59.2505 23.2514 58.3354 22.0105 57.3349 20.9557L57.3116 20.9402Z" fill="#999999"/>
</svg>
