<svg width="64" height="80" viewBox="0 0 64 80" fill="none" xmlns="http://www.w3.org/2000/svg">
<path d="M18.0986 57.2623C18.0042 57.1747 17.957 57.0332 17.957 56.8512V51.4262C17.957 51.2443 18.0042 51.1027 18.0986 51.0151C18.1929 50.9275 18.3479 50.8804 18.577 50.8804H21.0301C22.0544 50.8804 22.8025 51.0691 23.2742 51.4532C23.7459 51.8306 23.9751 52.4034 23.9751 53.1717C23.9751 53.9399 23.7392 54.5128 23.2742 54.8834C22.8025 55.2608 22.0612 55.4495 21.0435 55.4495H20.4303V56.8512C20.4303 57.0399 20.3831 57.1747 20.2888 57.2623C20.1944 57.3499 20.0327 57.3971 19.8036 57.3971H18.5838C18.3614 57.3971 18.1996 57.3499 18.1053 57.2623H18.0986ZM20.8144 53.8254C21.0301 53.8254 21.2053 53.7715 21.3333 53.6636C21.4614 53.5558 21.522 53.3941 21.522 53.1717C21.522 52.9493 21.4614 52.7808 21.3333 52.673C21.2053 52.5652 21.0368 52.5112 20.8144 52.5112H20.1135V53.8254H20.8144Z" fill="#999999"/>
<path d="M24.4198 57.2623C24.3255 57.1747 24.2783 57.0332 24.2783 56.8512V51.4262C24.2783 51.2443 24.3255 51.1027 24.4198 51.0151C24.5142 50.9275 24.6692 50.8804 24.8983 50.8804H27.3514C28.3757 50.8804 29.1237 51.0691 29.5955 51.4532C30.0672 51.8306 30.2963 52.4034 30.2963 53.1717C30.2963 53.6299 30.2155 54.0208 30.047 54.3375C29.8785 54.6543 29.6224 54.9036 29.272 55.0788L30.229 56.986C30.2559 57.0399 30.2694 57.0938 30.2694 57.1612C30.2694 57.2286 30.2424 57.2893 30.1953 57.3364C30.1413 57.3836 30.0807 57.4038 29.9931 57.4038H28.2611C28.1533 57.4038 28.0657 57.3904 27.9983 57.3634C27.9309 57.3364 27.8905 57.2825 27.8568 57.2151L27.0953 55.436H26.7448V56.8647C26.7448 57.0534 26.6977 57.1882 26.6033 57.2758C26.509 57.3634 26.3472 57.4106 26.1181 57.4106H24.8983C24.6759 57.4106 24.5142 57.3634 24.4198 57.2758V57.2623ZM27.1357 53.8254C27.3513 53.8254 27.5266 53.7715 27.6546 53.6636C27.7827 53.5558 27.8433 53.3941 27.8433 53.1717C27.8433 52.9493 27.7827 52.7808 27.6546 52.673C27.5266 52.5652 27.3581 52.5112 27.1357 52.5112H26.4348V53.8254H27.1357Z" fill="#999999"/>
<path d="M30.9433 57.2623C30.8489 57.1747 30.8018 57.0332 30.8018 56.8512V51.4262C30.8018 51.2443 30.8489 51.1027 30.9433 51.0151C31.0376 50.9275 31.1926 50.8804 31.4218 50.8804H32.6415C32.8774 50.8804 33.0391 50.9208 33.1267 51.0084C33.2211 51.096 33.2683 51.2308 33.2683 51.4262V56.8512C33.2683 57.0399 33.2211 57.1747 33.1267 57.2623C33.0324 57.3499 32.8707 57.3971 32.6415 57.3971H31.4218C31.1994 57.3971 31.0376 57.3499 30.9433 57.2623Z" fill="#999999"/>
<path d="M33.8823 57.2894C33.815 57.2152 33.7812 57.0804 33.7812 56.885C33.7812 56.6896 33.8015 56.5211 33.8352 56.4065C33.8756 56.292 33.9699 56.1437 34.1182 55.955L36.8206 52.5181H34.4484C34.2193 52.5181 34.0643 52.4709 33.9699 52.3833C33.8756 52.2957 33.8284 52.1542 33.8284 51.9722V51.4331C33.8284 51.2511 33.8756 51.1096 33.9699 51.022C34.0643 50.9344 34.2193 50.8872 34.4484 50.8872H39.5162C39.7184 50.8872 39.8599 50.9209 39.9273 50.995C39.9947 51.0691 40.0284 51.2039 40.0284 51.3994C40.0284 51.5948 40.0082 51.7565 39.9745 51.8711C39.9341 51.9857 39.8397 52.1407 39.6915 52.3294L37.016 55.7663H39.4354C39.6645 55.7663 39.8195 55.8135 39.9138 55.9011C40.0082 55.9887 40.0554 56.1302 40.0554 56.3122V56.8513C40.0554 57.04 40.0082 57.1748 39.9138 57.2624C39.8195 57.35 39.6645 57.3972 39.4354 57.3972H34.2934C34.0913 57.3972 33.9497 57.3635 33.8823 57.2894Z" fill="#999999"/>
<path d="M40.7011 57.2623C40.6067 57.1747 40.5596 57.0332 40.5596 56.8512V51.4262C40.5596 51.2443 40.6067 51.1027 40.7011 51.0151C40.7954 50.9275 40.9504 50.8804 41.1796 50.8804H45.4252C45.6409 50.8804 45.7959 50.9208 45.87 51.0084C45.9509 51.096 45.9913 51.2308 45.9913 51.4262V51.9654C45.9913 52.1541 45.9509 52.2956 45.87 52.3832C45.7891 52.4708 45.6409 52.5112 45.4252 52.5112H43.0261V53.3334H44.502C44.7176 53.3334 44.8726 53.3738 44.9467 53.4614C45.0276 53.5491 45.068 53.6838 45.068 53.8793V54.3982C45.068 54.5869 45.0276 54.7284 44.9467 54.816C44.8659 54.9036 44.7176 54.9441 44.502 54.9441H43.0261V55.7662H45.4185C45.6341 55.7662 45.7891 55.8067 45.8633 55.8943C45.9441 55.9819 45.9778 56.1167 45.9778 56.3121V56.8512C45.9778 57.0399 45.9374 57.1814 45.8633 57.269C45.7824 57.3566 45.6341 57.3971 45.4185 57.3971H41.1796C40.9572 57.3971 40.7954 57.3499 40.7011 57.2623Z" fill="#999999"/>
<path d="M11.1434 41.6612L11.2984 41.331L11.4871 41.3983L11.1232 42.544L10.9884 42.5305C10.9749 42.4429 10.9682 42.3149 10.9614 42.1599L10.2471 41.9307L8.64994 42.2812L8.53537 42.5305L8.34668 42.4631L8.67015 41.432L8.80493 41.4455L8.8319 41.7353L9.70797 41.5534L10.0651 41.5399V41.5196L9.18907 40.6099L9.04754 40.9199L8.85885 40.8525L9.16211 39.8888L9.29689 39.9023C9.3171 40.0101 9.32385 40.1246 9.32385 40.2527L10.3886 41.4186L11.1501 41.6612H11.1434Z" fill="#999999"/>
<path d="M10.3676 37.1056C10.5563 36.7484 10.8326 36.5126 11.1898 36.4115C11.5469 36.3037 11.9176 36.3508 12.3017 36.553C12.6724 36.7484 12.9082 37.018 13.0093 37.3617C13.1171 37.7054 13.07 38.0558 12.8813 38.4063C12.6926 38.7634 12.423 38.9993 12.0726 39.1071C11.7221 39.215 11.365 39.1745 10.9943 38.9791C10.6237 38.7836 10.3743 38.5073 10.2598 38.1569C10.1452 37.8065 10.1789 37.456 10.3608 37.1056H10.3676ZM10.5091 37.6649C10.5293 37.7997 10.6034 37.9345 10.7315 38.076C10.8595 38.2176 11.0213 38.3389 11.21 38.44C11.5132 38.6017 11.7963 38.6623 12.0524 38.6152C12.3084 38.568 12.5039 38.4265 12.6319 38.1839C12.6791 38.0963 12.7128 38.0087 12.7397 37.9076C12.7263 37.7593 12.6521 37.611 12.5308 37.4628C12.4095 37.3078 12.2478 37.1797 12.0456 37.0786C11.7424 36.9169 11.4593 36.8563 11.1965 36.8967C10.9337 36.9371 10.745 37.0719 10.6169 37.3078C10.563 37.4156 10.5226 37.5302 10.5024 37.6649H10.5091Z" fill="#999999"/>
<path d="M14.1154 32.0984C14.1019 32.1792 14.0615 32.3073 13.9941 32.4825L14.9645 33.271C15.5845 33.7966 15.6721 34.3357 15.2273 34.8883C14.9847 35.1916 14.7017 35.3601 14.3917 35.3938C14.0817 35.4275 13.7717 35.3264 13.4684 35.0838L12.4845 34.2886L12.2419 34.5244L12.0869 34.3964L12.8484 33.4529L12.9697 33.5136C12.9563 33.5944 12.9158 33.7225 12.8484 33.8977L13.8526 34.7131C14.0615 34.8816 14.2637 34.9625 14.4591 34.9423C14.6545 34.9288 14.8297 34.8277 14.978 34.639C15.0656 34.5312 15.1263 34.4099 15.16 34.2751C15.16 34.0594 15.0184 33.8236 14.7084 33.581L13.711 32.7723L13.4347 33.0418L13.2797 32.9138L13.9873 32.0444L14.1086 32.1051L14.1154 32.0984Z" fill="#999999"/>
<path d="M21.2382 29.3893L21.3461 29.5578L20.2813 30.2587L20.1869 30.1643C20.2409 30.07 20.3217 29.9554 20.4363 29.8139L19.9915 29.5174L19.0615 30.1306L19.1693 30.69L19.5535 30.5013L19.6613 30.6698L18.6976 31.31L18.6033 31.2156C18.6639 31.1146 18.738 31.0067 18.8256 30.8989L18.4078 28.4593L18.3135 28.3987L18.6235 28.0415L20.9417 29.5443L21.2248 29.4028L21.2382 29.3893ZM19.7422 29.3422L18.792 28.7019L19.0076 29.8274L19.7422 29.3422Z" fill="#999999"/>
<path d="M24.8366 27.7854L24.9107 27.9741L24.2031 28.2706L23.2326 27.536L22.8283 27.7113L23.1316 28.4391L23.5494 28.3245L23.6235 28.5132L22.4172 29.0186L22.3431 28.9108L22.6261 28.6345L21.7905 26.6397L21.4872 26.7341L21.4131 26.5454L22.6059 26.013C22.9024 25.885 23.1787 25.858 23.4213 25.9186C23.6639 25.9793 23.8324 26.1208 23.9268 26.3365C23.9874 26.4847 24.0009 26.6465 23.9537 26.8217C23.9133 26.9902 23.8122 27.1452 23.6639 27.2799L24.5468 27.873L24.8231 27.7921L24.8366 27.7854ZM22.707 27.4282C22.835 27.3945 22.9429 27.3676 23.0237 27.3271C23.2461 27.2328 23.3809 27.1182 23.4281 26.9834C23.4752 26.8419 23.4685 26.7004 23.4079 26.5521C23.3068 26.3163 23.145 26.1882 22.9226 26.1747L22.3161 26.4982L22.707 27.4282Z" fill="#999999"/>
<path d="M28.1998 26.3568C28.2672 26.6196 28.3009 26.8757 28.3144 27.1183L26.2051 27.5833L26.1511 27.462L26.4814 27.2396L26.0164 25.1303L25.6996 25.1707L25.6592 24.9685L27.7483 24.5103L27.7753 24.6181C27.8157 24.8068 27.8427 25.0089 27.8427 25.2246L27.5461 25.292L27.3979 24.9213L26.5353 25.0561L26.7307 25.9592L27.6674 25.6761L27.7483 26.0535L26.7914 26.2287L26.9801 27.0981L27.8561 26.8555L27.8898 26.3972L28.1863 26.3568H28.1998Z" fill="#999999"/>
<path d="M35.013 24.2945V24.4023C34.9927 24.6112 34.959 24.8336 34.9051 25.0628L34.6086 25.0425L34.5817 24.5775L33.9482 24.5034L33.7999 26.6532L34.2717 26.7408L34.2514 26.943L32.816 26.8419L32.7958 26.7071L33.1193 26.6128L33.2608 26.5791L33.409 24.463L32.7688 24.4495L32.6812 24.9078L32.3914 24.8875C32.3645 24.6652 32.3577 24.4495 32.378 24.2406L32.3914 24.1125L33.7056 24.2204C34.1706 24.2541 34.6019 24.2743 35.013 24.2945Z" fill="#999999"/>
<path d="M39.2186 27.7921L39.1647 27.9876L37.918 27.6506V27.5158L38.3223 27.4687L38.5515 26.6128L37.298 26.2758L37.0621 27.1654L37.453 27.3204L37.3991 27.5091L36.1523 27.1722V27.0374L36.5567 26.9902L37.116 24.9145L36.7993 24.7865L36.8532 24.5911L38.0258 24.9078V25.0426C37.9382 25.0628 37.8034 25.0763 37.6215 25.0898L37.3856 25.9658L38.6391 26.3028L38.8817 25.393L38.5649 25.265L38.6189 25.0695L39.7915 25.3863V25.5211C39.7039 25.5413 39.5691 25.5548 39.3871 25.5682L38.8278 27.6372L39.2186 27.7921Z" fill="#999999"/>
<path d="M42.7635 28.776C42.6489 29.0254 42.5209 29.2478 42.3793 29.4499L40.4385 28.5065L40.4722 28.3784L40.8698 28.4121L41.8133 26.4713L41.5437 26.3095L41.638 26.1276L43.5587 27.0643L43.5115 27.1721C43.4239 27.3474 43.3228 27.5158 43.188 27.691L42.9185 27.5563L43.033 27.1721L42.2715 26.7408L41.8672 27.5765L42.7769 27.9336L42.6085 28.2773L41.7459 27.8191L41.355 28.621L42.1906 28.9715L42.5006 28.6345L42.7567 28.7828L42.7635 28.776Z" fill="#999999"/>
<path d="M47.979 31.8222C48.1273 32.0041 48.2081 32.1861 48.2149 32.3613C48.2216 32.5433 48.1744 32.6915 48.0599 32.8196C47.9116 32.9813 47.7162 33.042 47.4736 33.0015C47.231 32.9611 46.9816 32.8263 46.7188 32.5972L45.7012 31.6672L45.7686 31.5526L46.1392 31.6941L47.5949 30.1037L47.386 29.8746L47.5275 29.7263C47.9183 30.0498 48.2351 30.3261 48.4777 30.5485C48.7203 30.7709 48.8686 30.9933 48.9292 31.2157C48.9899 31.4381 48.9494 31.6268 48.8079 31.7818C48.7136 31.8828 48.5922 31.9435 48.4372 31.9637C48.289 31.9772 48.1272 31.93 47.9722 31.8222H47.979ZM46.8333 32.3209L46.894 32.3815C47.0288 32.5028 47.1636 32.5702 47.2983 32.5702C47.4331 32.5702 47.541 32.5231 47.6286 32.4287C47.7296 32.3209 47.7701 32.1861 47.7431 32.0244C47.7162 31.8626 47.642 31.7211 47.5005 31.5931L47.204 31.3235L46.557 32.0311L46.8266 32.3209H46.8333ZM47.9453 30.5215L47.3725 31.1483L47.5275 31.2898C47.7027 31.4515 47.8712 31.5391 48.0127 31.5594C48.161 31.5728 48.2755 31.5324 48.3631 31.4381C48.4305 31.3639 48.4709 31.2696 48.4777 31.155C48.4777 31.0404 48.4507 30.9394 48.3833 30.845L47.9386 30.5215H47.9453Z" fill="#999999"/>
<path d="M50.5198 35.7713C50.3041 35.9398 50.0952 36.0813 49.8728 36.1959L48.5654 34.4774L48.653 34.3763L48.9967 34.5852L50.7152 33.2778L50.5467 33.0083L50.7085 32.887L52.0024 34.5852L51.9148 34.6594C51.7598 34.7739 51.5846 34.8818 51.3959 34.9828L51.2139 34.7402L51.4835 34.4504L50.9982 33.7294L50.2637 34.2887L50.9106 35.0165L50.6074 35.2524L50.048 34.4572L49.3404 34.9963L49.9267 35.6837L50.358 35.522L50.5198 35.7713Z" fill="#999999"/>
<path d="M52.3529 39.0735C52.144 39.1813 51.9283 39.1881 51.706 39.087C51.4836 38.9859 51.3016 38.8039 51.1668 38.5411C51.0927 38.3928 51.032 38.2244 50.9849 38.0357C50.9377 37.847 50.931 37.6785 50.9512 37.5437H50.9646L51.086 37.4696C51.2747 37.3752 51.4499 37.3011 51.6183 37.2607L51.7464 37.5033L51.3353 37.8739C51.3353 38.0828 51.3825 38.3052 51.5038 38.5276L51.551 38.6085C51.6925 38.7163 51.8475 38.7298 52.0025 38.6489C52.1373 38.5815 52.2046 38.4333 52.2114 38.2041L52.1844 37.4359C52.1912 37.0787 52.3125 36.8428 52.5483 36.7148C52.7505 36.607 52.9594 36.6137 53.1818 36.7215C53.4042 36.8294 53.5862 37.0248 53.7277 37.3011C53.8355 37.51 53.9231 37.7661 53.977 38.0626C53.7816 38.1839 53.5592 38.2783 53.3099 38.3457L53.1751 38.0828L53.512 37.8133C53.512 37.6246 53.4649 37.4359 53.3638 37.2405L53.2964 37.1259C53.1616 37.0383 53.0268 37.0315 52.892 37.1057C52.764 37.1731 52.7033 37.3213 52.7101 37.5572L52.7438 38.2783C52.7438 38.6624 52.6157 38.9185 52.3597 39.0533L52.3529 39.0735Z" fill="#999999"/>
<path d="M55.6487 42.4092L55.5476 42.4429C55.3455 42.5035 55.1231 42.5575 54.8939 42.5844L54.8063 42.3014L55.2309 42.1059L55.0692 41.4859L53.0137 42.1396L53.1013 42.6114L52.9059 42.6653L52.4746 41.2905L52.5892 41.2231L52.7913 41.4927L52.8789 41.614L54.9007 40.9738L54.6783 40.374L54.22 40.4616L54.1324 40.1853C54.3346 40.0775 54.53 39.9966 54.7255 39.9292L54.8535 39.8955L55.2376 41.1625C55.3792 41.6072 55.5139 42.0183 55.6487 42.4025V42.4092Z" fill="#999999"/>
<path d="M25.1201 48.535L24.2912 48.8787H24.1766C23.8734 48.8787 23.6173 48.8248 23.4151 48.6967C23.2129 48.5754 23.0579 48.4204 22.9569 48.225C22.8558 48.0296 22.8086 47.8274 22.8086 47.605C22.8086 47.2074 22.9434 46.8772 23.2062 46.6211C23.4758 46.365 23.8195 46.2369 24.2508 46.2369C24.581 46.2369 24.864 46.3178 25.0864 46.4661V46.4796V46.5739C25.0864 46.7356 25.0595 46.8974 25.0123 47.0659H24.709L24.6416 46.6817C24.426 46.5874 24.1968 46.5402 23.9542 46.5402H23.7992C23.6442 46.6413 23.5229 46.7761 23.4421 46.958C23.3612 47.14 23.3208 47.3422 23.3208 47.5578C23.3208 47.8476 23.4016 48.0835 23.5634 48.2722C23.7251 48.4609 23.934 48.5552 24.1968 48.5552C24.3114 48.5552 24.4597 48.5417 24.6349 48.5013V47.9487C24.4529 47.8948 24.3114 47.8409 24.2103 47.7869L24.2373 47.6589H25.4234V47.8409L25.1134 47.888V48.535H25.1201Z" fill="#999999"/>
<path d="M29.2915 48.6159V48.8046H28.5704L27.9976 47.8274H27.5865V48.5687L27.9909 48.6159V48.8046H26.7711L26.7441 48.6833L27.0878 48.5485V46.5402L26.7913 46.5133V46.3246L28.0111 46.2976C28.3144 46.2976 28.557 46.3717 28.7457 46.5133C28.9344 46.6548 29.0287 46.8368 29.0287 47.0524C29.0287 47.2074 28.9815 47.3489 28.8804 47.477C28.7794 47.6117 28.6446 47.7061 28.4694 47.7667L29.0152 48.5956L29.2848 48.6294L29.2915 48.6159ZM27.5865 47.5376C27.7078 47.5578 27.8089 47.5646 27.8965 47.5646C28.1189 47.5646 28.2739 47.5174 28.3683 47.4096C28.4626 47.3085 28.5098 47.1804 28.5098 47.0322C28.5098 46.7963 28.4154 46.6278 28.2268 46.5335L27.5865 46.5874V47.5241V47.5376Z" fill="#999999"/>
<path d="M33.4562 48.6157V48.8044H32.2701L32.2432 48.6831C32.3308 48.6359 32.4588 48.5888 32.6206 48.5416L32.4319 48.0833H31.3941L31.1919 48.5753L31.5895 48.6225V48.8112H30.5045L30.4775 48.6899C30.5719 48.6427 30.6865 48.5955 30.8145 48.5551L31.7445 46.4457L31.7041 46.3514L32.1286 46.2368L33.1597 48.5955L33.4495 48.6292L33.4562 48.6157ZM32.3173 47.8138L31.913 46.8299L31.5019 47.8138H32.3173Z" fill="#999999"/>
<path d="M37.1699 48.8045L36.678 48.8517L35.3099 46.8501L35.3773 47.3421V48.5754L35.7345 48.6158V48.8045H34.6832L34.6562 48.6832L34.9999 48.5484V46.5402L34.7236 46.5065V46.3177H35.5458L36.8667 48.2788L36.7993 47.7936V46.5604L36.4017 46.5132V46.3245H37.4867L37.5136 46.4458C37.4328 46.4862 37.3182 46.5334 37.1767 46.5806V48.8112L37.1699 48.8045Z" fill="#999999"/>
<path d="M40.2026 46.2909C40.5665 46.2909 40.8698 46.4122 41.1124 46.6548C41.355 46.8974 41.4696 47.1939 41.4696 47.5444C41.4696 47.915 41.3483 48.2183 41.0989 48.4541C40.8563 48.6833 40.5261 48.8046 40.115 48.8113H38.902L38.875 48.69L39.2187 48.5552V46.547L38.9289 46.52V46.3313C39.3804 46.3111 39.805 46.3044 40.1891 46.3044L40.2026 46.2909ZM40.0746 48.5215C40.3306 48.5215 40.5396 48.4339 40.6946 48.252C40.8496 48.07 40.9304 47.8409 40.9304 47.5579C40.9304 47.3422 40.8833 47.14 40.7822 46.9513C40.6811 46.7694 40.553 46.6346 40.398 46.547L39.7241 46.6009V48.4744C39.8387 48.5081 39.9533 48.5215 40.0678 48.5215H40.0746Z" fill="#999999"/>
<path d="M28.1799 0H19.5605L25.4101 9.3404C25.1136 9.81214 24.8575 10.3176 24.662 10.8432C24.5947 11.0184 24.534 11.2004 24.4801 11.3824C24.3723 11.7463 24.2914 12.1237 24.2307 12.501C24.1768 12.8852 24.1431 13.2761 24.1431 13.6737C24.1431 14.5767 24.2914 15.446 24.5677 16.2547C24.6755 16.5782 24.8103 16.8949 24.9586 17.1982C25.0327 17.3532 25.1136 17.5015 25.1944 17.6497L26.4681 16.4906C26.7512 16.2345 27.0814 16.0458 27.4386 15.938C27.3577 15.7628 27.2836 15.5876 27.2229 15.4056C27.0342 14.8597 26.9264 14.2802 26.9264 13.6669C26.9264 13.1278 27.0073 12.6089 27.1555 12.1169L27.4655 12.6156C27.4992 12.6763 27.5396 12.7302 27.5868 12.7841C27.8901 13.148 28.3416 13.3704 28.8201 13.3704H35.9635C36.0714 13.3704 36.1792 13.3569 36.287 13.33C36.597 13.2491 36.8733 13.0536 37.0485 12.7706L37.3855 12.2382C37.4192 12.3528 37.4462 12.4674 37.4731 12.5887C37.5001 12.7032 37.5203 12.8245 37.5338 12.9458C37.5675 13.1884 37.5877 13.431 37.5877 13.6804C37.5877 13.9028 37.5742 14.1184 37.5472 14.3341C37.4664 14.9743 37.2709 15.5808 36.9811 16.1334C37.1698 16.2345 37.3451 16.3558 37.5068 16.5041L39.1309 17.9732C39.9127 16.7265 40.3642 15.2573 40.3642 13.6804C40.3642 12.7032 40.189 11.7665 39.8722 10.9039C39.6835 10.385 39.4409 9.88626 39.1511 9.42127L45.0546 0.00674569H36.4353L32.9309 5.6002C32.7086 5.57998 32.4862 5.57324 32.257 5.57324C32.0616 5.57324 31.8662 5.57998 31.6775 5.59346L28.1731 0.00674569L28.1799 0ZM25.0058 13.8489C25.0058 13.8489 25.0058 13.8287 25.0058 13.795C25.0058 13.7613 25.0058 13.7073 25.0058 13.64C25.0058 13.5726 24.999 13.485 24.999 13.3906C24.999 13.2895 24.999 13.175 24.999 13.0469C25.0125 12.7908 25.0327 12.4741 25.0934 12.1169C25.1203 11.935 25.1607 11.7463 25.2147 11.5508C25.2686 11.3554 25.3292 11.1465 25.4034 10.9308C25.5112 10.6276 25.646 10.3041 25.8212 9.98062L26.1986 10.5804C26.084 10.7624 25.9762 10.9511 25.8886 11.133C25.6999 11.5104 25.5449 11.8676 25.4371 12.1978C25.3831 12.3595 25.3292 12.5145 25.2888 12.6628C25.2484 12.8111 25.2079 12.9458 25.181 13.0671C25.1271 13.3097 25.0731 13.5052 25.0529 13.64C25.026 13.7747 25.0125 13.8489 25.0125 13.8489H25.0058ZM32.6749 6.30107C32.7422 6.30107 32.8096 6.30781 32.8838 6.31455C33.1735 6.3415 33.4835 6.37521 33.7599 6.42912C34.0429 6.47629 34.3192 6.55042 34.582 6.63128C34.8448 6.71215 35.1009 6.81324 35.3368 6.92106C35.822 7.13671 36.2331 7.41303 36.5903 7.68933C36.7722 7.82411 36.934 7.97238 37.0822 8.1139C37.2305 8.25542 37.3585 8.40366 37.4798 8.53844C37.7157 8.81475 37.8977 9.07084 38.0392 9.2865C38.1807 9.50215 38.2818 9.67737 38.3425 9.79868C38.4098 9.91998 38.4435 9.98062 38.4435 9.98062C38.4435 9.98062 38.3964 9.9267 38.302 9.82562C38.2548 9.7717 38.2009 9.71106 38.1335 9.64367C38.0661 9.56954 37.9853 9.48866 37.8977 9.40105C37.8101 9.31344 37.709 9.2191 37.5944 9.11127C37.2575 8.80127 36.8261 8.45085 36.287 8.12737C36.1051 8.01954 35.9164 7.91845 35.7142 7.8241C35.512 7.72975 35.3031 7.63542 35.074 7.56129C34.6292 7.40629 34.144 7.29845 33.6318 7.23105C33.369 7.19736 33.1331 7.18389 32.8568 7.17715C32.7962 7.17715 32.7355 7.17715 32.6749 7.17715L32.1223 6.29433C32.2301 6.29433 32.3379 6.29433 32.4457 6.29433C32.5333 6.29433 32.6007 6.29434 32.6749 6.30107Z" fill="#999999"/>
<path d="M61.7875 46.3043L63.1286 43.3189C63.2904 42.9617 63.3308 42.5776 63.2567 42.2137C63.1893 41.8498 63.0073 41.5061 62.731 41.2298L61.5382 40.0707L60.3791 38.9452L60.9384 35.7239C60.9721 35.5352 60.9721 35.3398 60.9452 35.1511C60.9182 34.9624 60.8643 34.7872 60.7834 34.6187C60.7026 34.4502 60.6015 34.2952 60.4734 34.1537C60.3454 34.0122 60.1971 33.8976 60.0286 33.7965L57.1915 32.1724L56.9286 28.9107C56.9219 28.8163 56.9084 28.7152 56.8815 28.6276C56.7265 27.9807 56.2278 27.455 55.5741 27.2731L52.4202 26.4037L51.3554 23.3105C51.2004 22.8522 50.8702 22.4816 50.4524 22.2659C50.203 22.1379 49.9267 22.0637 49.6302 22.057L46.3617 22.0031L44.5624 19.2738C44.4748 19.139 44.3737 19.0244 44.2591 18.9233C43.9222 18.6133 43.4774 18.4448 43.0124 18.4448C42.8709 18.4448 42.7226 18.4583 42.5811 18.4987L39.4002 19.2603L36.9809 17.0633C36.8057 16.9016 36.6102 16.787 36.3946 16.7062C36.1857 16.6253 35.9565 16.5848 35.7341 16.5848C35.4376 16.5848 35.1411 16.6522 34.8715 16.8005L31.9805 18.3303L29.0894 16.8005C28.8198 16.659 28.5166 16.5848 28.2268 16.5848C27.7753 16.5848 27.3305 16.7466 26.98 17.0633L25.767 18.1618L24.5539 19.2603L21.3731 18.4987C21.2316 18.465 21.0833 18.4448 20.9418 18.4448C20.3285 18.4448 19.7422 18.7481 19.3985 19.2805L17.5992 22.0098L14.3307 22.0637C13.6501 22.0772 13.0368 22.4613 12.7268 23.0476C12.6796 23.1353 12.6459 23.2229 12.6122 23.3105L11.5475 26.4037L8.39356 27.2731C8.29921 27.3 8.21161 27.3337 8.124 27.3742C7.814 27.5157 7.55117 27.7381 7.36248 28.0144C7.3153 28.0818 7.26813 28.1559 7.23443 28.2368C7.13334 28.4322 7.07269 28.6479 7.04574 28.8702C7.04574 28.8837 7.04574 28.8972 7.039 28.9174L6.77618 32.1792L3.939 33.8033C3.68292 33.9515 3.47401 34.147 3.31901 34.3828C3.05618 34.767 2.94836 35.2522 3.02923 35.7307L3.33249 37.4694L3.58857 38.952L1.24336 41.2298C0.967056 41.4993 0.785101 41.843 0.71771 42.2137C0.663797 42.49 0.677277 42.773 0.751407 43.0493C0.778364 43.1437 0.812055 43.2313 0.85249 43.3189L2.19358 46.3043L0.488582 49.0943C0.333583 49.3437 0.245975 49.62 0.225757 49.8963C0.219018 49.9906 0.219018 50.085 0.225757 50.1726C0.245975 50.5432 0.38749 50.9071 0.630098 51.2104L2.67205 53.7645L1.7151 56.8915C1.48597 57.6395 1.7488 58.4482 2.37554 58.9132L4.9903 60.881L4.84204 64.1495C4.84204 64.2439 4.84205 64.3449 4.84879 64.4393C4.92292 65.0997 5.34748 65.686 5.98096 65.9488L9.00008 67.2023L9.66725 70.4034C9.68747 70.4978 9.71442 70.5921 9.74812 70.6797C9.8829 71.0369 10.1255 71.3401 10.4288 71.549C10.5029 71.603 10.5838 71.6501 10.6714 71.6906C10.8399 71.7714 11.0218 71.8321 11.2172 71.8591L11.5812 71.913L14.4588 72.3241L15.9009 75.2623C15.9414 75.3432 15.9818 75.4173 16.0357 75.4914C16.3794 75.9969 16.9522 76.3001 17.5655 76.3001C17.6329 76.3001 17.7003 76.3001 17.7677 76.2866L21.0159 75.9295L23.1455 78.4162C23.3274 78.6251 23.5431 78.7869 23.7857 78.8947C23.907 78.9486 24.0283 78.989 24.1631 79.016C24.2911 79.0429 24.4259 79.0564 24.5539 79.0564C24.6618 79.0564 24.7763 79.0497 24.8842 79.0295C24.992 79.0092 25.0998 78.9823 25.2076 78.9418L28.2672 77.7895L30.9426 79.6697C31.1044 79.7842 31.2728 79.8651 31.4548 79.919C31.6368 79.9729 31.8187 79.9999 32.0074 79.9999C32.3781 79.9999 32.7487 79.8853 33.0722 79.6629L35.7476 77.7827L38.8072 78.9351C38.915 78.9756 39.0228 79.0025 39.1307 79.0227C39.2385 79.043 39.3463 79.0497 39.4609 79.0497C39.9933 79.0497 40.5122 78.8206 40.8693 78.4027L41.9341 77.1627L42.9989 75.9227L46.2472 76.2799C46.2808 76.2799 46.3146 76.2799 46.3482 76.2799C46.3819 76.2799 46.4156 76.2799 46.4493 76.2799C46.8874 76.2799 47.3052 76.1249 47.6287 75.8553C47.8241 75.6936 47.9926 75.4847 48.1072 75.2488L49.5493 72.3106L52.7841 71.8456C53.458 71.7512 54.0174 71.293 54.2532 70.6662C54.2869 70.5786 54.3139 70.4843 54.3341 70.3899L55.0013 67.1888L58.0204 65.9354C58.2899 65.8208 58.5258 65.6523 58.7078 65.4434C58.8291 65.3019 58.9302 65.1469 59.0043 64.9717C59.0784 64.8032 59.1323 64.6213 59.1526 64.4258C59.166 64.3315 59.166 64.2371 59.1593 64.136L59.011 60.8676L61.6258 58.8997C62.2458 58.428 62.5086 57.6193 62.2862 56.878L61.3293 53.7511L62.4615 52.3291L63.3712 51.1969C63.6138 50.8937 63.7486 50.5298 63.7756 50.1591C63.7958 49.7885 63.7082 49.4111 63.506 49.0741L61.801 46.2841L61.7875 46.3043ZM15.8942 26.7272C18.3135 24.9144 21.0496 23.5059 23.9946 22.5827C26.5218 21.7942 29.2107 21.3696 31.9939 21.3696C36.6304 21.3696 41.0041 22.549 44.8185 24.6246C45.9641 25.2446 47.0559 25.9522 48.0937 26.7272C50.1693 28.2772 52.0091 30.1237 53.5658 32.1994C54.3408 33.2372 55.0417 34.3289 55.6684 35.4746C57.7441 39.2889 58.9234 43.6559 58.9234 48.2991C58.9234 63.1454 46.8469 75.2219 32.0007 75.2219C30.1474 75.2219 28.3346 75.0332 26.5824 74.676C24.3922 74.2245 22.3031 73.5101 20.342 72.5667C18.3809 71.6232 16.5479 70.4438 14.8901 69.0691C13.5625 67.9706 12.3359 66.7441 11.2375 65.4165C7.39617 60.7597 5.08465 54.7956 5.08465 48.2991C5.08465 39.4843 9.34378 31.6468 15.9077 26.7272H15.8942Z" fill="#999999"/>
<path d="M13.1106 56.2649C13.6296 57.4914 14.263 58.6573 15.0043 59.7423C15.5569 60.5577 16.1702 61.3327 16.8306 62.0673C18.3739 63.7656 20.2002 65.2077 22.2354 66.3129C23.6843 67.1014 25.2411 67.7214 26.8787 68.146C27.2089 68.2336 27.5391 68.3077 27.8693 68.3751C29.2037 68.6514 30.5784 68.7929 31.9936 68.7929C32.3441 68.7929 32.6945 68.7862 33.0449 68.766C33.3954 68.7458 33.7391 68.7188 34.0828 68.6851C37.5197 68.3347 40.7141 67.1284 43.4367 65.2886C44.798 64.3653 46.0447 63.2871 47.1499 62.074C48.4708 60.6184 49.5895 58.974 50.4588 57.1814C50.6003 56.8849 50.7419 56.5817 50.8699 56.2717C51.9077 53.8186 52.4805 51.1297 52.4805 48.306C52.4805 46.1899 52.1571 44.1413 51.5573 42.2206C51.2608 41.2569 50.8901 40.3269 50.4588 39.4306C50.0275 38.5343 49.5288 37.6784 48.9762 36.8563C47.5003 34.6728 45.6201 32.7926 43.4367 31.3167C40.7141 29.4769 37.5197 28.2706 34.0828 27.9202C33.7391 27.8865 33.3954 27.8596 33.0449 27.8393C32.6945 27.8191 32.3441 27.8124 31.9936 27.8124C30.5784 27.8124 29.2037 27.9539 27.8693 28.2302C27.5391 28.2976 27.2089 28.3717 26.8787 28.4593C25.2411 28.8839 23.6843 29.4972 22.2354 30.2924C20.2002 31.3976 18.3806 32.8398 16.8306 34.538C16.3926 35.0232 15.968 35.5287 15.5772 36.0543C14.2024 37.8941 13.1241 39.9765 12.4233 42.2206C11.8235 44.1413 11.5 46.1899 11.5 48.306C11.5 51.1297 12.0728 53.8254 13.1106 56.2717V56.2649ZM19.2163 34.2348C19.4387 34.0326 19.6745 33.8304 19.9037 33.635C20.8404 32.86 21.858 32.1726 22.9363 31.5863C23.745 31.1482 24.5874 30.7641 25.4634 30.4474C27.4987 29.6993 29.7023 29.295 31.9936 29.295C33.301 29.295 34.5815 29.4298 35.8215 29.6791C36.1315 29.7398 36.4347 29.8139 36.738 29.8948C37.951 30.2048 39.1169 30.6361 40.2288 31.1752C40.5051 31.31 40.7814 31.4515 41.051 31.593C42.1293 32.1793 43.1401 32.8667 44.0836 33.6417C44.3195 33.8371 44.5486 34.0326 44.771 34.2415C48.5988 37.7189 51.0047 42.7395 51.0047 48.306C51.0047 51.5812 50.169 54.6677 48.7066 57.3566C48.4169 57.8958 48.0934 58.4214 47.7564 58.9269C47.4127 59.4323 47.0488 59.9242 46.658 60.3892C46.4625 60.6251 46.2671 60.8543 46.0582 61.0766C45.6471 61.5282 45.2158 61.9595 44.771 62.3638C44.5486 62.566 44.3127 62.7682 44.0836 62.9636C43.6119 63.3545 43.1267 63.7184 42.6212 64.0621C41.8597 64.5742 41.0645 65.0325 40.2356 65.4369C39.1304 65.9692 37.9578 66.4005 36.7447 66.7173C36.4415 66.7982 36.1382 66.8655 35.8282 66.9329C34.5949 67.189 33.3145 67.3171 32.0004 67.3171C30.0326 67.3171 28.1389 67.0205 26.353 66.4612C25.1602 66.0905 24.0213 65.6053 22.943 65.019C22.4039 64.7292 21.8782 64.4058 21.3728 64.0688C20.6113 63.5566 19.8969 62.9906 19.2163 62.3773C18.7648 61.9662 18.3335 61.5349 17.9291 61.0901C17.7269 60.8677 17.5248 60.6319 17.3293 60.4027C14.6135 57.114 12.9826 52.9021 12.9826 48.3195C12.9826 42.753 15.3885 37.7324 19.2163 34.255V34.2348Z" fill="#999999"/>
<path d="M49.4549 43.2179C49.1045 42.0588 48.6462 40.967 48.1071 39.9562C47.9723 39.7001 47.8308 39.4507 47.6893 39.2081C46.8199 37.7525 45.7821 36.4855 44.6836 35.4207C44.5017 35.2455 44.313 35.0703 44.131 34.9086C43.7536 34.5783 43.3763 34.2683 42.9921 33.9853C41.8465 33.1294 40.6806 32.469 39.5687 31.9838C38.086 31.3368 36.7248 30.9595 35.5926 30.7505C35.0265 30.6427 34.5143 30.582 34.0695 30.5484C33.7326 30.5214 33.4361 30.5012 33.18 30.4944C33.0924 30.4944 33.0115 30.4877 32.9374 30.481C32.3241 30.481 31.9939 30.481 31.9939 30.481C31.9939 30.481 32.0411 30.481 32.1287 30.4877C32.2163 30.4877 32.3511 30.5012 32.5263 30.5079C32.6408 30.5079 32.7824 30.5214 32.9306 30.5281C33.3148 30.5618 33.8067 30.6158 34.393 30.7034C34.6289 30.7371 34.8782 30.7842 35.1478 30.8381C35.2826 30.8651 35.4174 30.892 35.5589 30.9257C36.3945 31.1144 37.3515 31.3975 38.3826 31.8221C38.7263 31.9636 39.0767 32.1186 39.4339 32.2938C40.3234 32.7251 41.2467 33.2777 42.1632 33.9449C42.7158 34.3492 43.2617 34.794 43.7941 35.2859C44.3265 35.7846 44.8454 36.3305 45.3373 36.9168C45.4991 37.1123 45.6608 37.3144 45.8226 37.5233C46.456 38.3522 47.0356 39.2688 47.5343 40.2594C48.5317 42.234 49.1921 44.5118 49.3673 46.9177C49.4145 47.5174 49.428 48.124 49.4078 48.7372C49.401 49.0405 49.3808 49.3505 49.3538 49.6537C49.2999 50.267 49.2191 50.8803 49.1045 51.4935C48.9293 52.41 48.6867 53.3198 48.3632 54.2094C48.2554 54.5059 48.1408 54.8024 48.0195 55.0922C47.7702 55.6718 47.4871 56.2446 47.1771 56.7972C46.8671 57.3498 46.5234 57.8889 46.146 58.4078C45.7754 58.9268 45.371 59.4254 44.9465 59.9039C44.7308 60.1398 44.5152 60.3757 44.286 60.5981C43.383 61.5011 42.3789 62.3098 41.3006 62.9905C40.4919 63.5026 39.6495 63.9541 38.7802 64.3248C38.4904 64.4461 38.1939 64.5674 37.8974 64.6685C35.5252 65.5243 33.0182 65.8546 30.6056 65.6726C30.0059 65.6254 29.4196 65.5513 28.8333 65.4502C27.0878 65.147 25.43 64.5876 23.9541 63.8396C22.7141 63.2196 21.6022 62.4648 20.6115 61.6494C20.0185 61.1574 19.4726 60.6385 18.9807 60.1061C18.8189 59.9242 18.6572 59.7489 18.5022 59.567C17.8889 58.8459 17.3498 58.1046 16.8915 57.3768C16.5478 56.8309 16.2446 56.285 15.9885 55.7459C15.9009 55.5707 15.82 55.3887 15.7392 55.2135C15.5033 54.6879 15.3078 54.1824 15.1394 53.6905C15.0248 53.367 14.9305 53.0503 14.8429 52.747C14.7552 52.4437 14.6879 52.154 14.6205 51.8709C14.4992 51.3116 14.4115 50.8061 14.3509 50.3681C14.2902 49.93 14.2498 49.5527 14.2229 49.2427C14.2229 49.1685 14.2161 49.0944 14.2094 49.027C14.2026 48.8922 14.1959 48.7776 14.1892 48.6766C14.1757 48.434 14.1689 48.3059 14.1689 48.3059C14.1689 48.3059 14.1689 48.4879 14.1689 48.845C14.1689 48.9596 14.1689 49.1011 14.1689 49.2494C14.1892 49.7076 14.2161 50.3344 14.3172 51.1026C14.3509 51.3587 14.3913 51.6283 14.4452 51.9113C14.5463 52.4774 14.6946 53.1042 14.8968 53.7713C14.9439 53.9398 14.9979 54.1083 15.0585 54.2768C15.2337 54.7957 15.4359 55.3281 15.6785 55.8874C15.9211 56.44 16.2041 57.0128 16.5411 57.5857C17.0937 58.5426 17.7744 59.5131 18.6033 60.4498C19.6007 61.5685 20.8002 62.64 22.1952 63.5565C22.6602 63.8665 23.1454 64.1563 23.6509 64.4259C23.907 64.5607 24.1631 64.6887 24.4259 64.8167C26.2657 65.6928 28.348 66.2859 30.5517 66.4678C33.0452 66.6767 35.7004 66.387 38.1871 65.4907C39.1239 65.1604 40.0337 64.7426 40.9097 64.2507C41.1995 64.0889 41.4893 63.9137 41.7723 63.7385C42.3384 63.3813 42.8843 62.9905 43.41 62.5726C43.9356 62.1548 44.441 61.71 44.9195 61.2315C45.3912 60.7531 45.8428 60.2476 46.2606 59.722C46.8873 58.9335 47.4534 58.0979 47.9386 57.2218C48.4306 56.3457 48.8417 55.4359 49.1786 54.4992C49.401 53.8724 49.5897 53.2457 49.738 52.6055C50.1154 51.0083 50.2636 49.3842 50.2097 47.8005C50.1962 47.4837 50.1828 47.167 50.1558 46.857C50.0547 45.6035 49.8121 44.3837 49.4684 43.2246L49.4549 43.2179Z" fill="#999999"/>
<path d="M32.1893 22.4548C32.0613 22.4548 31.9939 22.4548 31.9939 22.4548C31.9939 22.4548 32.1152 22.4548 32.3444 22.4683C32.5735 22.4818 32.9172 22.4953 33.362 22.5155C33.8067 22.5559 34.3526 22.6031 34.9928 22.6907C35.633 22.7716 36.3676 22.8929 37.1763 23.0681C37.5806 23.1557 38.0052 23.2568 38.45 23.3781C38.8948 23.4994 39.353 23.6409 39.8248 23.7959C40.7682 24.1126 41.7724 24.517 42.8169 25.0157C43.8548 25.5144 44.9263 26.1209 45.9978 26.8353C46.5302 27.1924 47.0693 27.5833 47.6017 28.0011C48.1341 28.4189 48.6665 28.8637 49.1854 29.3422C50.7354 30.7844 52.218 32.5096 53.4715 34.4976C53.6804 34.8278 53.8826 35.1648 54.0847 35.5152C54.2802 35.8589 54.4689 36.2161 54.6576 36.5733C55.0215 37.2943 55.3584 38.0357 55.6617 38.8107C56.1132 39.963 56.4906 41.1761 56.7736 42.4228C57.0567 43.6695 57.2589 44.9635 57.3599 46.2709C57.6295 49.7685 57.1712 53.4547 55.9178 56.9186C55.136 59.0819 54.0308 61.1576 52.6695 63.0512C51.8541 64.1902 50.9443 65.2617 49.9536 66.2523C49.2932 66.9128 48.5924 67.5395 47.8645 68.119C46.045 69.5814 44.03 70.7945 41.9071 71.7043C41.4826 71.8862 41.0513 72.0547 40.62 72.2097C37.1561 73.4699 33.4833 73.9214 29.9722 73.6519C26.4746 73.3823 23.1455 72.4119 20.2746 70.9427C17.3903 69.4804 14.9642 67.5462 13.0435 65.4773C11.1431 63.3882 9.7144 61.1912 8.71701 59.1089C7.96897 57.5521 7.44333 56.0695 7.07941 54.7486C6.95811 54.3039 6.85702 53.8793 6.76941 53.475C6.41898 51.8508 6.29768 50.5502 6.21681 49.6606C6.21007 49.4382 6.19659 49.2428 6.18985 49.0743C6.18985 48.9867 6.18312 48.9126 6.17638 48.8385C6.1629 48.4813 6.14941 48.2993 6.14941 48.2993C6.14941 48.2993 6.14941 48.3667 6.14941 48.4948C6.14941 48.5824 6.14941 48.6969 6.14941 48.8385C6.14941 48.98 6.14941 49.1484 6.14941 49.3506C6.14941 49.4517 6.14941 49.5528 6.14941 49.6674C6.14941 49.7819 6.16289 49.8965 6.16963 50.0178C6.18985 50.3885 6.2168 50.8198 6.26398 51.305C6.27746 51.4667 6.29767 51.6352 6.31789 51.8037C6.35833 52.1474 6.40551 52.518 6.4729 52.9089C6.50659 53.1043 6.54028 53.3065 6.58072 53.5087C6.62115 53.7108 6.66159 53.9265 6.70876 54.1421C6.85028 54.7891 7.0255 55.4765 7.24789 56.1976C7.32202 56.4402 7.4029 56.6828 7.48377 56.9321C7.73985 57.6802 8.03637 58.4552 8.39354 59.2571C9.33702 61.3867 10.732 63.6712 12.6459 65.8278C13.1244 66.3669 13.6433 66.8925 14.1892 67.4047C15.0046 68.1797 15.9009 68.921 16.8579 69.6151C17.8216 70.3093 18.8526 70.9562 19.9511 71.5425C22.1481 72.7084 24.6078 73.6047 27.2294 74.0966C28.1054 74.2584 28.995 74.3797 29.9048 74.4538C33.5035 74.7503 37.3111 74.3056 40.903 73.0251C41.7993 72.7084 42.6821 72.331 43.5448 71.9132C43.9761 71.7043 44.4006 71.4819 44.8184 71.246C46.0787 70.5451 47.285 69.7364 48.4239 68.8334C49.1787 68.2336 49.9065 67.5867 50.5939 66.906C50.9376 66.5623 51.2678 66.2051 51.5845 65.848C53.8354 63.3141 55.5943 60.3556 56.713 57.2152C57.3532 55.4226 57.7845 53.5693 58.0204 51.7228C58.081 51.2578 58.1282 50.7995 58.1619 50.3345C58.263 48.9463 58.2562 47.5715 58.1484 46.2169C58.0406 44.8624 57.8249 43.5348 57.5149 42.2476C57.2049 40.9672 56.7938 39.7272 56.3086 38.5478C55.9852 37.7593 55.628 36.9978 55.2371 36.27C54.853 35.5355 54.4352 34.8346 53.9904 34.1607C53.1076 32.8196 52.1304 31.5998 51.0993 30.5081C50.5871 29.9622 50.0547 29.45 49.5223 28.9715C48.7136 28.2505 47.8847 27.6102 47.0558 27.0307C45.6743 26.0737 44.2861 25.3055 42.9517 24.7124C42.6821 24.5911 42.4193 24.4833 42.1565 24.3755C40.3302 23.6274 38.6387 23.1692 37.2032 22.8996C35.5589 22.5829 34.2448 22.529 33.3552 22.4751C32.7959 22.4751 32.405 22.4683 32.1826 22.4683L32.1893 22.4548Z" fill="#999999"/>
<path d="M26.4681 35.4005L25.8818 35.3398L26.2323 35.8115L28.537 38.9115L26.2929 42.052L26.0503 42.3957L26.4614 42.3417C27.7688 42.1733 29.0762 42.0183 30.3836 41.8363L31.0373 43.2043C31.2664 43.6896 31.5023 44.1613 31.7381 44.6465C31.5427 44.1478 31.3473 43.6559 31.1451 43.1572L30.5453 41.6746L30.5183 41.6072H30.4375C29.2379 41.7083 28.0384 41.8228 26.8388 41.9374L29.0088 39.0463L29.1099 38.9115L29.0088 38.77L26.9938 35.98L30.4173 36.3641L30.6127 36.3844L30.6936 36.2024L32.0751 33.0485L33.4836 36.1889L33.5509 36.3439L33.7194 36.3237L37.3114 35.8924C36.6172 36.8763 35.9231 37.8535 35.2357 38.8441L35.1885 38.9115L35.2357 38.9722L36.1927 40.1987C36.5094 40.6098 36.8329 41.0141 37.1564 41.4185C36.8666 40.9872 36.5835 40.5559 36.287 40.1313L35.4514 38.9183C36.2601 37.8737 37.0485 36.8224 37.8438 35.7711L38.0999 35.4409L37.6753 35.4813L33.834 35.852L32.2975 32.3072L32.0616 31.7681L31.819 32.3072L30.2623 35.8115L26.4547 35.4072L26.4681 35.4005Z" fill="#999999"/>
<path d="M29.803 38.8983L29.7558 38.8377L28.8393 37.6651C28.5361 37.2742 28.2261 36.8901 27.9161 36.4992C28.1924 36.9103 28.4687 37.3281 28.745 37.7325L29.5402 38.8916C28.9404 39.6531 28.3541 40.4214 27.7678 41.1896L27.5117 41.5198L27.9363 41.4794L30.7263 41.2233L31.8382 43.8044L32.0741 44.3435L32.3167 43.8044L33.4489 41.2638L36.2119 41.5536L36.7982 41.6142L36.4478 41.1425L34.7697 38.8916L36.3871 36.6003L36.6297 36.2566L36.2187 36.3105C35.2617 36.4386 34.298 36.5599 33.3411 36.7014L32.7345 35.4344C32.5189 34.9829 32.3032 34.5449 32.0808 34.1001C32.2628 34.5651 32.438 35.0234 32.6267 35.4884L33.1861 36.8699L33.213 36.9373H33.2939C34.143 36.8699 34.9921 36.7957 35.848 36.7216L34.298 38.7703L34.1969 38.9051L34.298 39.0466L35.693 40.9875L33.3141 40.7179L33.1187 40.6977L33.0378 40.8796L32.0808 43.0766L31.0969 40.8999L31.0228 40.7449L30.8543 40.7651L28.3069 41.0818C28.7922 40.3809 29.2841 39.6868 29.7626 38.9792L29.8098 38.9118L29.803 38.8983Z" fill="#999999"/>
<path d="M20.376 59.54C20.376 59.54 21.8249 59.6816 24.0016 59.7894C25.0866 59.8433 26.3603 59.8905 27.7216 59.9242C28.4023 59.9376 29.1031 59.9579 29.8175 59.9646C30.5318 59.9646 31.2596 59.9713 31.9807 59.9781C32.7086 59.9781 33.4296 59.9713 34.144 59.9646C34.8583 59.9646 35.5592 59.9376 36.2399 59.9309C37.6012 59.9039 38.8681 59.8568 39.9598 59.7961C42.1366 59.695 43.5855 59.5468 43.5855 59.5468C43.5855 59.5468 42.1366 59.3985 39.9598 59.2974C38.8748 59.2435 37.6012 59.1964 36.2399 59.1627C35.5592 59.1492 34.8583 59.1289 34.144 59.1289C33.4296 59.1289 32.7018 59.1222 31.9807 59.1155C31.2529 59.1155 30.5318 59.1222 29.8175 59.1289C29.1031 59.1289 28.4023 59.1559 27.7216 59.1694C26.3603 59.2031 25.0934 59.2435 24.0016 59.3042C21.8249 59.4053 20.376 59.5535 20.376 59.5535V59.54Z" fill="#999999"/>
<path d="M9.81558 54.9777C9.62015 54.3105 9.43819 53.6905 9.26971 53.1177C9.14841 52.5314 9.05406 51.9855 8.95971 51.5003C8.91254 51.2577 8.87211 51.0218 8.83168 50.8062C8.80472 50.5838 8.79123 50.3749 8.77102 50.1862C8.73732 49.8021 8.70363 49.4719 8.67667 49.2023C8.6295 48.6699 8.60254 48.3801 8.60254 48.3801C8.60254 48.3801 8.60254 48.6632 8.60254 49.2023C8.60254 49.4719 8.60255 49.8021 8.60928 50.1929C8.60928 50.3884 8.60928 50.5973 8.62276 50.8264C8.64971 51.0488 8.67667 51.2847 8.71037 51.534C8.77102 52.0327 8.83167 52.5921 8.91928 53.1918C9.05406 53.7849 9.19558 54.4319 9.35058 55.1192C9.41123 55.4697 9.55949 55.8066 9.66732 56.1638C9.78862 56.521 9.90993 56.8849 10.0312 57.2623C10.1391 57.6464 10.3412 58.0036 10.503 58.3877C10.6782 58.7651 10.8534 59.156 11.0354 59.5536C11.2308 59.9444 11.4667 60.3218 11.6891 60.7194C11.8036 60.9149 11.9182 61.117 12.0328 61.3192C12.1473 61.5214 12.2619 61.7236 12.4101 61.9123C12.9695 62.667 13.4951 63.5027 14.1893 64.2305C15.463 65.7872 17.1073 67.1688 18.9134 68.4155C19.3784 68.7053 19.8501 68.9951 20.3286 69.2916C20.8071 69.5814 21.326 69.8038 21.8314 70.0598C22.0875 70.1879 22.3436 70.3092 22.5997 70.4372C22.8692 70.5383 23.1321 70.6394 23.4016 70.7405C23.9408 70.9292 24.4732 71.1583 25.0325 71.3201C25.5918 71.4683 26.1579 71.6098 26.7173 71.7581L27.1418 71.8659L27.5799 71.9333L28.456 72.0681L29.3388 72.2029C29.6353 72.2568 29.9116 72.2433 30.2014 72.2703L31.9468 72.3646C34.2988 72.304 36.644 71.9872 38.8679 71.3201C39.4205 71.1583 39.9529 70.9292 40.4988 70.7405C40.7683 70.6394 41.0312 70.5383 41.3007 70.4372C41.5568 70.3092 41.8129 70.1879 42.069 70.0598C42.5744 69.797 43.0933 69.5814 43.5718 69.2916C44.0435 68.9951 44.5153 68.7053 44.987 68.4155C46.7931 67.1688 48.4307 65.7872 49.7111 64.2305C50.4053 63.5027 50.9309 62.6738 51.4903 61.9123C51.6318 61.7236 51.7531 61.5214 51.8676 61.3192C51.9822 61.117 52.0968 60.9216 52.2113 60.7262C52.4337 60.3286 52.6696 59.9512 52.865 59.5603C53.047 59.1627 53.2222 58.7718 53.3974 58.3944C53.5592 58.0103 53.7613 57.6531 53.8692 57.269C53.9972 56.8916 54.1185 56.5277 54.2331 56.1705C54.3409 55.8134 54.4892 55.4764 54.5498 55.126C54.7048 54.4386 54.8463 53.7984 54.9811 53.1986C55.0687 52.5921 55.1226 52.0327 55.19 51.534C55.217 51.2847 55.2507 51.0488 55.2776 50.8264C55.2911 50.604 55.2776 50.3951 55.2911 50.1997C55.2911 49.8088 55.2911 49.4786 55.2979 49.209C55.2979 48.6699 55.2979 48.3869 55.2979 48.3869C55.2979 48.3869 55.2709 48.6699 55.2237 49.209C55.1968 49.4786 55.1698 49.8088 55.1294 50.1929C55.1092 50.3884 55.0957 50.5973 55.0687 50.8197C55.0283 51.0353 54.9879 51.2712 54.9407 51.5138C54.8463 52.0058 54.7587 52.5449 54.6307 53.1312C54.4622 53.704 54.2802 54.3308 54.0915 54.9912C54.0107 55.3282 53.8422 55.6516 53.7209 55.9886C53.5861 56.3255 53.4446 56.676 53.2963 57.0331C53.1683 57.3971 52.9594 57.7407 52.7842 58.1047C52.6022 58.4618 52.4135 58.8325 52.2181 59.2099C52.0159 59.5805 51.7666 59.931 51.5307 60.3083C51.4094 60.4903 51.2948 60.679 51.1735 60.8677C51.0522 61.0564 50.9376 61.2451 50.7894 61.4203C50.2166 62.1279 49.6909 62.9097 48.9968 63.5836C47.7231 65.0392 46.1057 66.2927 44.3738 67.4586C42.6148 68.6109 40.6066 69.4533 38.5242 70.1272C36.4149 70.7472 34.1909 71.0303 31.967 71.0775L30.2823 70.9966C29.9992 70.9764 29.7027 70.9899 29.4331 70.9359L28.6244 70.8146L27.8158 70.6933L27.4114 70.6327L27.0071 70.5316C26.4747 70.3968 25.9355 70.262 25.4032 70.1272C23.3208 69.4533 21.3125 68.6109 19.5536 67.4586L19.2166 67.2564L18.8999 67.0272C18.691 66.8722 18.4821 66.724 18.2732 66.569C17.8621 66.259 17.4308 65.9827 17.0669 65.6322C16.6895 65.302 16.3121 64.9718 15.9414 64.6416C15.5775 64.3046 15.2608 63.934 14.9306 63.5836C14.2364 62.9097 13.7175 62.1212 13.138 61.4203C12.9897 61.2451 12.8684 61.0564 12.7538 60.8677C12.6325 60.679 12.5112 60.4903 12.3967 60.3083C12.1675 59.9377 11.9182 59.5805 11.7093 59.2099C11.5138 58.8325 11.3319 58.4618 11.1432 58.1047C10.968 57.7407 10.7591 57.3971 10.631 57.0331C10.4895 56.676 10.348 56.3255 10.2065 55.9886C10.0784 55.6449 9.90993 55.3214 9.8358 54.9912L9.81558 54.9777Z" fill="#999999"/>
</svg>
