<svg width="80" height="80" viewBox="0 0 80 80" fill="none" xmlns="http://www.w3.org/2000/svg">
<path d="M29.7742 70.6904C29.165 70.485 28.5415 70.2583 27.8826 70.0103C27.9251 69.6419 27.9606 69.2664 27.9818 68.898L24.9 65.8162C24.9 66.6309 24.9354 67.4457 25.1621 68.1967C25.2471 68.4871 25.3747 68.7634 25.5164 69.0256C25.0417 68.8059 24.5529 68.5792 24.064 68.3313C23.3485 67.9699 22.6187 67.5661 21.8819 67.141C22.2503 65.795 22.5054 64.4134 22.3424 63.2586L19.8415 60.7578C19.8061 61.2253 19.7353 61.7071 19.6573 62.1959C19.5157 63.0744 19.3669 63.9954 19.5015 64.8527C19.5511 65.1928 19.6432 65.5187 19.7707 65.8304C18.6513 65.0723 17.539 64.2222 16.448 63.287C17.0998 61.8984 17.6241 60.446 17.5319 59.185C17.4965 58.8803 17.4398 58.5757 17.3548 58.2781L15.612 56.5353C15.4987 57.0312 15.3286 57.5342 15.1444 58.0585C14.8469 58.8803 14.5918 59.688 14.5564 60.5523C14.5422 60.9349 14.5918 61.2962 14.691 61.6504C14.025 60.9916 13.3733 60.3043 12.7569 59.5675C12.4522 59.2062 12.1618 58.8166 11.8713 58.434C12.268 57.9026 12.6435 57.35 12.9482 56.7903C13.3307 56.089 13.5645 55.4159 13.6566 54.7075C13.6566 54.6649 13.6566 54.6224 13.6637 54.5728L11.8075 52.7167C11.7438 52.8371 11.6729 52.9575 11.6021 53.078C11.2053 53.7865 10.7448 54.5445 10.5961 55.3451C10.5181 55.7418 10.504 56.1527 10.5465 56.5566C9.76008 55.3451 9.03744 54.0698 8.41399 52.7308C9.03036 52.1712 9.59713 51.5831 10.0435 50.9455L8.61236 49.5144H7.7622C7.63468 49.8899 7.57092 50.2866 7.54966 50.6975C7.40089 50.3079 7.25919 49.9111 7.12458 49.5144H5.79267C5.94145 49.9962 6.09022 50.4708 6.25317 50.9455C5.98395 50.6834 5.69348 50.4425 5.36759 50.237C4.91417 49.9466 4.42533 49.7269 3.93649 49.5144H1.35059C1.44977 49.7836 1.54896 50.0528 1.6694 50.315C1.86068 50.7188 2.05197 51.1084 2.32118 51.4485C2.58332 51.7886 2.87379 52.1003 3.18551 52.3553C4.27655 53.2763 5.7785 53.3897 7.16001 53.2622C7.16001 53.2693 7.16001 53.2764 7.16709 53.2834C7.74803 54.6224 8.42108 55.9048 9.16497 57.1304C8.88158 56.9675 8.58402 56.8329 8.26521 56.7266C7.42214 56.4503 6.57907 56.3298 5.70057 56.1881C4.82915 56.0323 3.93649 55.8197 3.21385 55.2671C3.35554 55.6851 3.50432 56.1102 3.73812 56.507C3.95774 56.9108 4.19862 57.3004 4.46784 57.6618C4.98502 58.3986 5.70765 58.9724 6.43029 59.3479C7.15292 59.7234 8.00308 59.7942 8.80365 59.7234C9.4271 59.6667 10.0435 59.5179 10.6315 59.3196C10.9361 59.7376 11.2337 60.1485 11.5525 60.5452C12.1476 61.2962 12.7781 61.9905 13.4228 62.6706C13.1111 62.5856 12.7852 62.5218 12.4664 62.4793C11.5879 62.3801 10.6457 62.5289 9.75299 62.5643C8.85324 62.6139 7.9039 62.5998 7.03248 62.2455C7.25919 62.6281 7.53549 62.9894 7.82597 63.3507C8.12352 63.6979 8.42816 64.0521 8.7824 64.3355C9.49795 64.9023 10.256 65.384 11.0991 65.5399C12.5444 65.8658 14.018 65.3061 15.3215 64.5197C16.4267 65.5186 17.5532 66.4255 18.6938 67.2402C18.3821 67.226 18.0562 67.2261 17.7374 67.2686C16.8235 67.389 15.9379 67.7078 15.0311 67.9699C14.1242 68.2392 13.1749 68.4517 12.2468 68.2817C12.8277 68.9547 13.5716 69.5286 14.3651 69.9678C14.7618 70.1945 15.1869 70.3433 15.6049 70.4708C16.03 70.5842 16.448 70.6692 16.8802 70.6621C18.3821 70.6621 19.7494 69.7836 20.9326 68.7138C21.6977 69.1814 22.4558 69.6277 23.1926 70.0245C23.7027 70.3008 24.2128 70.5558 24.7087 70.8038C24.397 70.8463 24.0853 70.9172 23.7735 71.0164C22.888 71.3068 22.0449 71.8311 21.1876 72.2774C20.3304 72.7308 19.4165 73.1488 18.4671 73.1772C19.8415 74.254 21.7332 74.9838 23.4264 74.6366C24.9 74.3461 26.1327 73.2055 27.1458 71.909C28.5769 72.5183 29.9089 73 31.0991 73.3897C30.844 73.4818 30.589 73.5952 30.3339 73.7298C29.4979 74.1832 28.7257 74.8704 27.9393 75.4868C27.1529 76.1102 26.3028 76.6912 25.3605 76.9108C26.8837 77.7538 28.8745 78.1577 30.5394 77.513C31.8359 77.01 32.8348 75.8339 33.5929 74.4878L29.7955 70.6904H29.7742Z" fill="#999999"/>
<path d="M5.98372 26.1562C5.77118 26.7442 5.5728 27.3394 5.39569 27.9486C5.19023 28.6217 5.02729 29.316 4.87851 30.0173H5.77826C5.90578 29.401 6.04748 28.7846 6.21751 28.1895C6.38754 27.5944 6.57883 27.0205 6.78428 26.4538C7.96034 26.4113 9.1789 26.2271 10.0928 25.5115C10.6313 25.1431 11.0847 24.6472 11.4602 24.0875C11.6444 23.8041 11.864 23.5349 12.0411 23.2373C12.2182 22.9469 12.3812 22.6422 12.5158 22.3376C11.9348 22.6847 11.276 22.8264 10.61 22.961C9.92279 23.0886 9.29225 23.2515 8.64046 23.6128C8.27915 23.8254 7.90366 24.1017 7.59902 24.4417C8.1162 23.3011 8.69006 22.2242 9.31351 21.2111C9.47645 20.9419 9.65357 20.6939 9.8236 20.4389C10.8863 20.616 12.0624 20.6727 13.0755 20.1484C13.6493 19.8721 14.2232 19.4754 14.7191 18.9865C14.96 18.7386 15.2434 18.5048 15.4772 18.2356C15.718 17.9734 15.9518 17.7042 16.1573 17.4279C15.5197 17.683 14.8608 17.7255 14.2019 17.7467C13.536 17.7609 12.9054 17.8176 12.204 18.0443C11.8144 18.1789 11.4247 18.3985 11.0634 18.6677C11.864 17.6263 12.6929 16.6557 13.5289 15.7843C13.7202 15.5859 13.9115 15.4017 14.1027 15.2104C15.0521 15.5363 16.136 15.7489 17.2271 15.3734C17.8434 15.175 18.474 14.8491 19.0691 14.4311C19.3596 14.2186 19.6784 14.0131 19.9618 13.7793C20.2522 13.5526 20.5285 13.3117 20.7907 13.0638C20.1176 13.255 19.4729 13.2338 18.8353 13.1984C18.1906 13.1488 17.5742 13.1204 16.8658 13.2621C16.469 13.3401 16.0652 13.503 15.6684 13.7014C16.9153 12.5607 18.1197 11.5972 19.2108 10.7683C20.0609 11.1722 21.074 11.4697 22.2218 11.1792C23.4899 10.8888 24.8998 10.0386 26.0829 9.16013C25.3886 9.32307 24.7581 9.28055 24.1488 9.2097C23.5324 9.13886 22.9231 9.06803 22.2218 9.16013C21.8038 9.20972 21.3645 9.34431 20.9253 9.52143C21.1024 9.3939 21.2795 9.26639 21.4495 9.15303C22.4768 8.43748 23.2703 7.84945 23.7946 7.41728C24.3188 6.98512 24.588 6.73716 24.588 6.73716C24.588 6.73716 24.248 6.86468 23.6245 7.14806C23.0082 7.43853 22.1297 7.90613 21.0811 8.61459C20.9182 8.72795 20.734 8.84839 20.5569 8.96883C20.8686 8.61459 21.1591 8.25328 21.3716 7.89197C21.7329 7.2756 21.9171 6.65924 22.1367 6.07829C22.3564 5.49027 22.6114 4.88807 23.0932 4.30713C21.7046 5.00851 20.2451 6.04286 19.4446 7.16932C18.7149 8.23202 18.6511 9.28056 18.7928 10.2157C17.6805 11.0234 16.469 11.9656 15.1938 13.0921C15.4276 12.7308 15.6401 12.3624 15.7889 11.994C16.0652 11.3139 16.1431 10.6337 16.2919 10.0032C16.4336 9.36556 16.6107 8.69961 17.0358 8.04074C16.7028 8.26036 16.3627 8.49416 16.0298 8.7492C15.7039 9.00425 15.3709 9.25931 15.0804 9.55686C14.4924 10.1449 13.9823 10.7612 13.6635 11.3989C13.0896 12.5962 13.203 13.6943 13.536 14.6578C13.3376 14.8491 13.1463 15.0333 12.9479 15.2388C12.0907 16.1243 11.2476 17.1091 10.4258 18.1718C10.5887 17.7467 10.7375 17.3216 10.8084 16.9037C10.943 16.1669 10.8792 15.4442 10.9076 14.7641C10.9217 14.0769 10.9855 13.3613 11.3043 12.6104C10.9926 12.8867 10.6879 13.1771 10.3904 13.4888C10.0999 13.8077 9.79526 14.1123 9.56147 14.4736C9.07263 15.1821 8.6688 15.9047 8.47752 16.6132C8.15871 17.9664 8.54128 19.0786 9.12222 19.9996C8.9451 20.2618 8.76799 20.5168 8.59796 20.786C7.95325 21.8346 7.35105 22.9539 6.81262 24.13C6.87638 23.6553 6.91889 23.1948 6.8693 22.7414C6.81262 21.9692 6.55049 21.2536 6.4088 20.5593C6.25293 19.858 6.13958 19.107 6.28836 18.271C6.03331 18.6111 5.78534 18.9724 5.55155 19.3549C5.32484 19.7375 5.09105 20.113 4.9281 20.5239C4.60221 21.3457 4.38967 22.1746 4.36133 22.9256C4.38967 24.3638 5.12647 25.3982 5.96955 26.1846L5.98372 26.1562Z" fill="#999999"/>
<path d="M0.620766 32.7026C0.606583 32.653 0.578217 32.6104 0.564034 32.5608C0.549851 32.6317 0.535668 32.7097 0.521484 32.7877L0.620766 32.7026Z" fill="#999999"/>
<path d="M6.45814 29.819C6.38729 29.8827 6.32353 29.9465 6.25977 30.0173H9.06529L9.58247 29.5002C9.83043 28.9334 10.0005 28.3312 10.1138 27.7432C9.61081 28.1966 8.98028 28.48 8.32849 28.7492C7.6767 29.0255 6.99657 29.3018 6.45814 29.8119V29.819Z" fill="#999999"/>
<path d="M1.87467 30.0741C1.97385 30.5133 2.16514 30.8959 2.40602 31.243L3.70251 30.1803C3.83004 30.0741 4.00007 30.0174 4.16301 30.0174H4.58809C4.5385 29.7836 4.47474 29.5569 4.38972 29.3372C4.08508 28.5863 3.68834 27.9557 3.33411 27.2969C2.97988 26.638 2.63981 25.9154 2.56897 25.0439C2.2289 25.8303 1.9526 26.723 1.78965 27.5873C1.69755 28.0195 1.71172 28.4658 1.71172 28.8838C1.72589 29.3018 1.77548 29.7057 1.86758 30.0812L1.87467 30.0741Z" fill="#999999"/>
<path d="M76.0011 49.5212C75.5052 49.7267 75.0234 49.9534 74.57 50.2439C74.2441 50.4423 73.9536 50.6902 73.6844 50.9524C73.8473 50.4777 74.0032 50.003 74.1449 49.5212H72.813C72.6784 49.918 72.5367 50.3147 72.3879 50.7044C72.3667 50.2935 72.31 49.8967 72.1754 49.5212H71.4173L69.9366 51.002C70.3759 51.6183 70.9285 52.1922 71.5307 52.7377C70.9072 54.0767 70.1846 55.3519 69.3982 56.5634C69.4407 56.1596 69.4265 55.7487 69.3486 55.3519C69.1998 54.5514 68.7393 53.7862 68.3426 53.0848C68.2859 52.9857 68.2292 52.8794 68.1725 52.7802L66.288 54.6647C66.288 54.6647 66.288 54.7001 66.288 54.7143C66.3801 55.4157 66.6139 56.0958 66.9965 56.7972C67.294 57.3569 67.6766 57.9024 68.0733 58.4408C67.7829 58.8234 67.4924 59.206 67.1878 59.5744C66.5714 60.3112 65.9196 60.9984 65.2537 61.6573C65.3528 61.303 65.4024 60.9346 65.3883 60.5592C65.3528 59.6948 65.0978 58.8872 64.8002 58.0654C64.6231 57.5694 64.4602 57.0877 64.3468 56.613L62.5615 58.3983C62.4977 58.6534 62.4481 58.9155 62.4127 59.1847C62.3135 60.4458 62.8449 61.8982 63.4967 63.2868C62.4127 64.2219 61.2933 65.0721 60.1739 65.8301C60.3015 65.5184 60.4007 65.1925 60.4432 64.8525C60.5778 63.9952 60.429 63.0742 60.2873 62.1957C60.2165 61.7352 60.1456 61.2818 60.1102 60.8425L57.5951 63.3576C57.4605 64.4911 57.7085 65.8301 58.0698 67.1408C57.333 67.5659 56.6033 67.9768 55.8877 68.331C55.3989 68.579 54.91 68.8057 54.4354 69.0253C54.5841 68.7703 54.7046 68.494 54.7896 68.1964C55.0021 67.4738 55.0447 66.6874 55.0517 65.9081L51.9699 68.9899C51.9912 69.33 52.0195 69.6771 52.062 70.0172C51.4527 70.251 50.8718 70.4564 50.305 70.6548L46.4014 74.5585C47.1523 75.8762 48.1442 77.031 49.4265 77.5269C51.0914 78.1716 53.0822 77.7607 54.6054 76.9247C53.6631 76.7051 52.813 76.1242 52.0266 75.5007C51.2402 74.8843 50.475 74.1971 49.632 73.7437C49.3769 73.6091 49.1219 73.4957 48.8668 73.4036C50.057 73.014 51.389 72.5322 52.8201 71.923C53.8332 73.2194 55.0588 74.3601 56.5395 74.6505C58.2328 74.9977 60.1244 74.268 61.4988 73.1911C60.5423 73.1628 59.6284 72.7448 58.7783 72.2914C57.921 71.845 57.078 71.3208 56.1924 71.0303C55.8806 70.9311 55.5689 70.8603 55.2572 70.8178C55.7531 70.5698 56.2632 70.3147 56.7733 70.0384C57.5172 69.6417 58.2753 69.2024 59.0333 68.7278C60.2094 69.7976 61.5838 70.669 63.0857 70.6761C63.5179 70.6831 63.9359 70.6052 64.361 70.4848C64.779 70.3643 65.2111 70.2085 65.6008 69.9817C66.3872 69.5354 67.1382 68.9615 67.7191 68.2956C66.791 68.4656 65.8346 68.2531 64.9348 67.9839C64.0351 67.7218 63.1424 67.4029 62.2285 67.2825C61.9026 67.2471 61.5838 67.24 61.2721 67.2542C62.4127 66.4394 63.5462 65.5326 64.6444 64.5336C65.9479 65.313 67.4216 65.8726 68.8668 65.5538C69.7099 65.3909 70.468 64.9162 71.1835 64.3495C71.5448 64.0661 71.8424 63.7118 72.1399 63.3647C72.4304 63.0104 72.7067 62.642 72.9334 62.2595C72.062 62.6208 71.1127 62.6279 70.2129 62.5783C69.3202 62.5429 68.378 62.3941 67.4995 62.4933C67.1736 62.5287 66.8548 62.5925 66.5431 62.6846C67.1807 62.0115 67.8112 61.3101 68.4134 60.5592C68.7322 60.1624 69.0298 59.7444 69.3344 59.3335C69.9295 59.5319 70.5459 59.6807 71.1623 59.7373C71.9628 59.8082 72.813 59.7373 73.5356 59.3618C74.2583 58.9864 74.9809 58.4125 75.4981 57.6757C75.7673 57.3144 76.0082 56.9176 76.2278 56.5209C76.4545 56.1241 76.6104 55.692 76.7521 55.2811C76.0294 55.8337 75.1297 56.0533 74.2653 56.2021C73.3868 56.3509 72.5438 56.4713 71.7007 56.7405C71.3819 56.8468 71.0843 56.9814 70.8009 57.1443C71.5448 55.9187 72.2179 54.6364 72.7988 53.2974C72.7988 53.2903 72.7988 53.2832 72.8059 53.2761C74.1874 53.4107 75.6894 53.2903 76.7804 52.3693C77.0921 52.1142 77.3826 51.8096 77.6447 51.4625C77.921 51.1224 78.1052 50.7327 78.2965 50.3289C78.417 50.0668 78.5161 49.7975 78.6153 49.5283H76.0294L76.0011 49.5212Z" fill="#999999"/>
<path d="M77.2764 35.3521L79.09 37.2579C79.3734 36.6486 79.501 35.926 79.5647 35.1821C79.6001 34.7429 79.6072 34.2965 79.586 33.8573C79.5505 33.418 79.4655 32.9788 79.3734 32.5537C79.1113 33.3826 78.6154 34.0061 78.0415 34.5728C77.7865 34.835 77.5243 35.09 77.2764 35.3521Z" fill="#999999"/>
<path d="M60.7134 10.7684C61.8045 11.5973 63.0018 12.5608 64.2558 13.7014C63.859 13.503 63.4481 13.3401 63.0585 13.2622C62.35 13.1275 61.7336 13.1488 61.0889 13.1984C60.4513 13.2409 59.8066 13.2622 59.1336 13.0638C59.3957 13.3117 59.672 13.5526 59.9625 13.7793C60.2459 14.0131 60.5647 14.2186 60.8551 14.4311C61.4502 14.8491 62.0808 15.175 62.6971 15.3734C63.7882 15.756 64.8792 15.5363 65.8215 15.2104C66.0128 15.4017 66.2041 15.5859 66.3953 15.7843C67.2313 16.6557 68.0602 17.6263 68.8608 18.6678C68.4995 18.3985 68.1098 18.1789 67.7202 18.0443C67.0259 17.8105 66.3883 17.7609 65.7223 17.7468C65.0634 17.7255 64.4045 17.683 63.7669 17.4279C63.9795 17.7042 64.2062 17.9735 64.4471 18.2356C64.6808 18.4977 64.9642 18.7315 65.2051 18.9866C65.701 19.4754 66.2749 19.8721 66.8488 20.1484C67.8689 20.6798 69.045 20.616 70.1006 20.4389C70.2706 20.694 70.4478 20.9419 70.6107 21.2111C71.2342 22.2243 71.8151 23.3082 72.3252 24.4417C72.0206 24.1017 71.6451 23.8254 71.2838 23.6129C70.632 23.2515 70.0014 23.0815 69.3142 22.9611C68.6483 22.8264 67.9823 22.6848 67.4084 22.3376C67.5501 22.6422 67.706 22.9398 67.8831 23.2374C68.0532 23.5349 68.2728 23.8041 68.4641 24.0875C68.8395 24.6472 69.3001 25.1431 69.8314 25.5115C70.7382 26.2271 71.9639 26.4113 73.1399 26.4538C73.3454 27.0206 73.5367 27.6015 73.7067 28.1895C73.9618 29.0893 74.1601 30.0103 74.3302 30.9526C74.0822 30.5204 73.7988 30.1307 73.4658 29.8261C72.9274 29.316 72.2402 29.0326 71.5955 28.7634C70.9437 28.4871 70.3202 28.2108 69.8101 27.7574C69.9164 28.2887 70.0652 28.8413 70.2777 29.3585L73.6429 32.7237C73.9688 32.8371 74.3018 32.9292 74.6348 33.0142C74.6631 33.2763 74.6915 33.5314 74.7127 33.7935L75.0882 34.169H75.6833C75.6408 33.7439 75.5983 33.3188 75.5487 32.8938C76.0517 32.6245 76.5406 32.3128 76.9657 31.9019C77.4687 31.4201 77.8867 30.825 78.0496 30.0812C78.1417 29.7057 78.1913 29.3089 78.2055 28.8838C78.2055 28.4658 78.2196 28.0195 78.1275 27.5873C77.9575 26.7159 77.6883 25.8303 77.3482 25.0439C77.2774 25.9154 76.9373 26.638 76.5831 27.2969C76.2288 27.9557 75.8321 28.5863 75.5275 29.3373C75.3504 29.7978 75.2582 30.2937 75.2087 30.7967C75.0245 29.8332 74.8048 28.8768 74.5285 27.9487C74.3514 27.3394 74.153 26.7443 73.9405 26.1562C74.7836 25.3698 75.5133 24.3355 75.5487 22.8973C75.5204 22.1463 75.3078 21.3174 74.9819 20.4956C74.8261 20.0847 74.5852 19.7092 74.3585 19.3266C74.1247 18.9511 73.8767 18.5827 73.6217 18.2427C73.7705 19.0787 73.6571 19.8296 73.5013 20.531C73.3596 21.2253 73.0974 21.9409 73.0408 22.7131C72.9912 23.1665 73.0408 23.627 73.0974 24.1017C72.5661 22.9256 71.9639 21.8063 71.3121 20.7577C71.1421 20.4885 70.9649 20.2335 70.7878 19.9713C71.3688 19.0432 71.7584 17.938 71.4325 16.5849C71.2412 15.8764 70.8374 15.1467 70.3486 14.4453C70.1148 14.084 69.8101 13.7793 69.5197 13.4605C69.2221 13.1488 68.9104 12.8583 68.6058 12.582C68.9246 13.333 68.9883 14.0556 69.0025 14.7358C69.0237 15.4159 68.96 16.1385 69.1017 16.8753C69.1725 17.2933 69.3213 17.7184 69.4842 18.1435C68.6624 17.0808 67.8123 16.096 66.9621 15.2104C66.7637 15.0121 66.5725 14.8208 66.3741 14.6295C66.7 13.666 66.8133 12.575 66.2466 11.3706C65.9277 10.7329 65.4177 10.1166 64.8296 9.52854C64.5392 9.23099 64.2062 8.97593 63.8803 8.72088C63.5473 8.46584 63.2072 8.23204 62.8743 8.01242C63.2993 8.67129 63.4835 9.33018 63.6181 9.97488C63.7669 10.6054 63.8449 11.2855 64.1212 11.9657C64.2699 12.3341 64.4825 12.7025 64.7163 13.0638C63.441 11.9373 62.2225 10.9951 61.1173 10.1874C61.259 9.25224 61.1952 8.20372 60.4655 7.14102C59.6649 6.02164 58.2055 4.98727 56.8169 4.27881C57.2986 4.85975 57.5537 5.46195 57.7733 6.04997C57.9929 6.63092 58.1771 7.24728 58.5384 7.86365C58.7581 8.22496 59.0415 8.58627 59.3532 8.94051C59.1761 8.82007 58.999 8.69963 58.8289 8.58627C57.7804 7.88489 56.8948 7.41732 56.2855 7.11976C55.6621 6.83638 55.322 6.70884 55.322 6.70884C55.322 6.70884 55.5912 6.96391 56.1155 7.38899C56.6398 7.82115 57.4332 8.40916 58.4605 9.12471C58.6235 9.23807 58.8077 9.36558 58.9848 9.49311C58.5455 9.31599 58.1063 9.1814 57.6883 9.13181C56.9869 9.03971 56.3776 9.11764 55.7613 9.1814C55.152 9.24517 54.5214 9.28767 53.8271 9.13181C55.0103 10.0103 56.4201 10.8605 57.6883 11.1509C58.836 11.4414 59.842 11.1509 60.6993 10.74L60.7134 10.7684Z" fill="#999999"/>
<path d="M9.99316 30.0177H12.3594L40.0109 2.36627L71.8068 34.1622H74.1731L40.0109 0L9.99316 30.0177Z" fill="#999999"/>
<path d="M70.4816 49.5217H68.1153L40.0104 77.6337L11.8985 49.5217H9.53223L40.0104 80L70.4816 49.5217Z" fill="#999999"/>
<path d="M42.0444 12.5397L41.8035 12.5043L41.6901 12.2776L40.0111 8.86987L38.332 12.2776L38.2187 12.5043L37.9707 12.5397L34.2158 13.0852L36.9363 15.7349L37.1134 15.912L37.0709 16.1529L36.4262 19.8865L37.1418 18.9018L37.6873 15.7066L35.3635 13.4466L38.5729 12.979L40.0111 10.0672L41.4422 12.979L44.6515 13.4466L45.7922 13.0852L42.0444 12.5397Z" fill="#999999"/>
<path d="M50.8498 53.39C50.9489 53.305 51.0056 53.1704 51.0056 53.0003C51.0056 52.8303 50.956 52.6886 50.8498 52.6036C50.7506 52.5186 50.6089 52.4761 50.4318 52.4761H49.8721V53.5317H50.4318C50.6089 53.5317 50.7435 53.4892 50.8498 53.4042V53.39Z" fill="#999999"/>
<path d="M70.0716 34.162L40.0114 4.10181L14.0957 30.0175H25.1407V26.0855C25.1407 25.9651 25.169 25.8375 25.2328 25.7313L26.6072 23.2375C26.7347 23.0037 26.9827 22.862 27.2519 22.862H52.7425C53.0117 22.862 53.2526 23.0037 53.3872 23.2375L54.7617 25.7313C54.8183 25.8375 54.8538 25.9651 54.8538 26.0855V34.162H70.0645H70.0716ZM44.2268 20.7649L40.0185 18.5474L35.8102 20.7649L36.6178 16.0749L33.2101 12.7522L37.9214 12.065L40.0256 7.8L42.1297 12.065L46.841 12.7522L43.4333 16.0749L44.2409 20.7649H44.2268Z" fill="#999999"/>
<path d="M44.5805 55.2109C44.9347 55.2109 45.1969 55.0904 45.3527 54.8495C45.5157 54.6087 45.5936 54.2473 45.5936 53.7656C45.5936 53.2838 45.5157 52.9154 45.3527 52.6816C45.1898 52.4478 44.9347 52.3274 44.5805 52.3274C44.2263 52.3274 43.9641 52.4478 43.8083 52.6816C43.6453 52.9154 43.5674 53.2767 43.5674 53.7656C43.5674 54.2544 43.6453 54.6087 43.8083 54.8495C43.9712 55.0904 44.2263 55.2109 44.5805 55.2109Z" fill="#999999"/>
<path d="M13.6348 49.5217L40.011 75.8979L66.3872 49.5217H13.6348ZM53.2097 51.1512H54.7612C54.8462 51.1512 54.91 51.1654 54.9525 51.2008C54.995 51.2362 55.0375 51.2858 55.0871 51.3567L55.9869 52.8657L56.8866 51.3567C56.9291 51.2858 56.9716 51.2291 57.0212 51.2008C57.0637 51.1654 57.1275 51.1512 57.2125 51.1512H58.7641C58.8916 51.1512 58.9553 51.2079 58.9553 51.3212C58.9553 51.3708 58.9412 51.4275 58.9057 51.4842L56.9858 54.5589V55.9546C56.9858 56.1034 56.9504 56.2167 56.8725 56.2876C56.8016 56.3584 56.667 56.3939 56.4828 56.3939H55.5051C55.3209 56.3939 55.1934 56.3584 55.1225 56.2876C55.0517 56.2167 55.0092 56.1034 55.0092 55.9546V54.5589L53.0892 51.4842C53.0538 51.4275 53.0396 51.3708 53.0396 51.3212C53.0396 51.2079 53.1034 51.1512 53.2309 51.1512H53.2097ZM48.1371 51.5905C48.1371 51.4417 48.1725 51.3283 48.2504 51.2575C48.3213 51.1866 48.4559 51.1512 48.633 51.1512H50.6025C51.4243 51.1512 52.0265 51.3071 52.402 51.6117C52.7775 51.9164 52.9688 52.3769 52.9688 52.9932C52.9688 53.3616 52.898 53.6733 52.7633 53.9284C52.6287 54.1834 52.4233 54.3818 52.1399 54.5235L52.905 56.0538C52.9263 56.0963 52.9405 56.1388 52.9405 56.1955C52.9405 56.2522 52.9192 56.3018 52.8767 56.3372C52.8342 56.3726 52.7846 56.3939 52.7138 56.3939H51.3181C51.2331 56.3939 51.1622 56.3797 51.1055 56.3584C51.0559 56.3372 51.0134 56.2947 50.9922 56.238L50.3829 54.8069H50.0995V55.9546C50.0995 56.1034 50.0641 56.2167 49.9862 56.2876C49.9153 56.3584 49.7807 56.3939 49.5965 56.3939H48.6117C48.4275 56.3939 48.3 56.3584 48.2292 56.2876C48.1583 56.2167 48.1158 56.1034 48.1158 55.9546V51.5976L48.1371 51.5905ZM42.3489 51.7463C42.8519 51.2717 43.5958 51.0379 44.5735 51.0379C45.5512 51.0379 46.2951 51.2717 46.7981 51.7463C47.3011 52.221 47.5561 52.894 47.5561 53.7655C47.5561 54.6369 47.3011 55.3099 46.7981 55.7846C46.2951 56.2593 45.5512 56.4931 44.5735 56.4931C43.5958 56.4931 42.8519 56.2593 42.3489 55.7846C41.8459 55.3099 41.5908 54.6369 41.5908 53.7655C41.5908 52.894 41.8459 52.221 42.3489 51.7463ZM36.1215 51.5905C36.1215 51.4346 36.1498 51.3212 36.2136 51.2575C36.2773 51.1937 36.3978 51.1512 36.5749 51.1512H40.932C41.1091 51.1512 41.2295 51.1866 41.2933 51.2575C41.357 51.3283 41.3854 51.4417 41.3854 51.5905V52.0226C41.3854 52.1785 41.357 52.2847 41.2933 52.3556C41.2295 52.4264 41.1091 52.4619 40.932 52.4619H39.7417V55.9475C39.7417 56.0963 39.7063 56.2097 39.6284 56.2805C39.5575 56.3513 39.4229 56.3868 39.2387 56.3868H38.254C38.0698 56.3868 37.9422 56.3513 37.8714 56.2805C37.8005 56.2097 37.758 56.0963 37.758 55.9475V52.4619H36.5678C36.3907 52.4619 36.2703 52.4264 36.2065 52.3556C36.1427 52.2847 36.1144 52.1714 36.1144 52.0226V51.5905H36.1215ZM31.0205 51.718C31.559 51.2646 32.3241 51.0308 33.316 51.0308C33.7694 51.0308 34.1661 51.0733 34.5203 51.1512C34.8746 51.2362 35.165 51.3496 35.4059 51.4984C35.4697 51.5479 35.5051 51.5975 35.5051 51.6542C35.5051 51.7038 35.4768 51.7676 35.4343 51.8455L35.0234 52.5044C34.9809 52.5752 34.9242 52.6107 34.8675 52.6107C34.8321 52.6107 34.7683 52.5894 34.6762 52.5469C34.5203 52.476 34.3645 52.4194 34.1945 52.3769C34.0244 52.3344 33.8331 52.3131 33.6064 52.3131C33.153 52.3131 32.7988 52.4335 32.5579 52.6815C32.317 52.9295 32.1966 53.2837 32.1966 53.7513C32.1966 54.2189 32.3312 54.566 32.5933 54.814C32.8555 55.0619 33.2168 55.1895 33.6702 55.1895C34.0669 55.1895 34.4282 55.1115 34.7612 54.9557C34.8462 54.9132 34.91 54.8919 34.9525 54.8919C35.0092 54.8919 35.0659 54.9273 35.1084 54.9982L35.5193 55.657C35.5689 55.7421 35.5901 55.8058 35.5901 55.8483C35.5901 55.905 35.5547 55.9546 35.4909 56.0042C35.2572 56.153 34.9596 56.2663 34.5983 56.3514C34.244 56.4364 33.8331 56.4718 33.3868 56.4718C32.3879 56.4718 31.6085 56.2451 31.0559 55.7846C30.5033 55.3241 30.22 54.6439 30.22 53.7371C30.22 52.8303 30.4892 52.1431 31.0205 51.6897V51.718ZM26.7131 51.4771L24.7506 56.0892C24.7081 56.1955 24.6514 56.2734 24.5877 56.3159C24.5239 56.3584 24.4318 56.3797 24.3113 56.3797H23.4116C23.2912 56.3797 23.1991 56.3584 23.1353 56.3159C23.0715 56.2734 23.0219 56.1955 22.9723 56.0892L21.0028 51.4771C20.9745 51.4133 20.9603 51.3567 20.9603 51.3071C20.9603 51.2008 21.017 51.1441 21.1445 51.1441H22.696C22.8661 51.1441 22.9723 51.215 23.0149 51.3496L23.8579 53.8576L24.701 51.3496C24.7435 51.2079 24.8498 51.1441 25.0198 51.1441H26.5714C26.6918 51.1441 26.7556 51.2008 26.7556 51.3071C26.7556 51.3567 26.7414 51.4133 26.7131 51.4771ZM29.4761 55.9405C29.4761 56.0892 29.4406 56.2026 29.3627 56.2734C29.2919 56.3443 29.1573 56.3797 28.9731 56.3797H27.9883C27.8041 56.3797 27.6766 56.3443 27.6057 56.2734C27.5349 56.2026 27.4924 56.0892 27.4924 55.9405V51.5834C27.4924 51.4346 27.5278 51.3212 27.6057 51.2504C27.6766 51.1795 27.8112 51.1441 27.9883 51.1441H28.9731C29.1573 51.1441 29.2919 51.1795 29.3627 51.2504C29.4336 51.3212 29.4761 51.4346 29.4761 51.5834V55.9405ZM37.8997 67.4034L33.1884 66.7162L36.5961 63.3935L35.7885 58.7035L39.9968 60.921L44.2051 58.7035L43.3974 63.3935L46.8051 66.7162L42.0938 67.4034L39.9897 71.6684L37.8856 67.4034H37.8997Z" fill="#999999"/>
<path d="M38.8131 13.2624L38.8343 13.2199L39.139 12.5114C39.2381 12.2705 39.3373 12.0367 39.4365 11.7958L39.5853 11.4345L39.727 11.0732C39.8191 10.8323 39.9112 10.5915 40.0033 10.3506C39.8828 10.5773 39.7766 10.8111 39.6561 11.0449L39.4932 11.392L39.3302 11.7463C39.224 11.9801 39.1177 12.2138 39.0114 12.4476L38.7139 13.1136L37.9912 13.1986C37.7362 13.227 37.4811 13.2624 37.219 13.2978C36.964 13.3332 36.7089 13.3686 36.4468 13.4041C36.1917 13.4466 35.9367 13.482 35.6816 13.5245C35.9438 13.5174 36.1988 13.4962 36.4539 13.482C36.7089 13.4607 36.971 13.4466 37.2261 13.4253C37.4811 13.4041 37.7433 13.3757 37.9983 13.3545L38.7706 13.2766H38.8131V13.2624Z" fill="#999999"/>
<path d="M41.2078 66.2204L41.1865 66.2629L40.8819 66.9713C40.7827 67.2122 40.6835 67.446 40.5844 67.6869L40.4356 68.0482L40.2939 68.4095C40.2018 68.6504 40.1097 68.8913 40.0176 69.1322C40.138 68.9055 40.2443 68.6717 40.3647 68.4379L40.5277 68.0907L40.6906 67.7365C40.7969 67.5027 40.9032 67.2689 41.0094 67.0351L41.307 66.3692L42.0296 66.2841C42.2847 66.2558 42.5397 66.2204 42.8018 66.192C43.0569 66.1566 43.3119 66.1212 43.5741 66.0858C43.8291 66.0433 44.0842 66.0078 44.3392 65.9653C44.0771 65.9724 43.822 65.9937 43.567 66.0078C43.3119 66.0291 43.0498 66.0433 42.7948 66.0645C42.5397 66.0858 42.2776 66.1141 42.0225 66.1354L41.2503 66.2133H41.2078V66.2204Z" fill="#999999"/>
<path d="M36.6375 64.8884L37.1971 64.3713L37.7568 63.8541L37.7923 63.8187V63.762C37.7072 63.2306 37.6151 62.6922 37.5301 62.1608L37.3955 61.3603L37.3034 60.8289L38.5007 61.4524C38.9825 61.7003 39.4642 61.9483 39.946 62.1892L39.9956 62.2175L40.0452 62.1892L40.7253 61.8137L41.4054 61.4311L42.0856 61.0415C42.3123 60.9139 42.539 60.7793 42.7586 60.6447C42.5248 60.751 42.2839 60.8643 42.0501 60.9777L41.3488 61.3178L40.6474 61.6649L40.0027 61.9908C39.5422 61.7358 39.0817 61.4949 38.6282 61.2398L37.1971 60.4818L36.9563 60.3542L37.0059 60.6235L37.1475 61.424L37.2892 62.2246C37.3813 62.7418 37.4734 63.2519 37.5726 63.7691L37.0767 64.2721L36.5453 64.8176L36.0211 65.3702C35.844 65.5544 35.6739 65.7386 35.5039 65.9299C35.6952 65.7598 35.8865 65.5969 36.0778 65.4269L36.6445 64.9168L36.6375 64.8884Z" fill="#999999"/>
<path d="M43.377 14.5944L42.8173 15.1116L42.2576 15.6288L42.2222 15.6642V15.7209C42.3072 16.2522 42.3993 16.7907 42.4843 17.322L42.6189 18.1226L42.711 18.6539L41.5137 18.0305C41.032 17.7825 40.5502 17.5346 40.0685 17.2937L40.0189 17.2653L39.9693 17.2937L39.2892 17.6692L38.609 18.0517L37.9289 18.4414C37.7022 18.5689 37.4755 18.7035 37.2559 18.8381C37.4897 18.7319 37.7305 18.6185 37.9643 18.5051L38.6657 18.1651L39.3671 17.8179L40.0118 17.492C40.4723 17.7471 40.9328 17.988 41.3862 18.243L42.8173 19.0011L43.0582 19.1286L43.0086 18.8594L42.8669 18.0588L42.7252 17.2583C42.6331 16.7411 42.541 16.231 42.4418 15.7138L42.9378 15.2108L43.4691 14.6653L43.9934 14.1127C44.1705 13.9285 44.3405 13.7443 44.5106 13.553C44.3193 13.723 44.128 13.886 43.9367 14.056L43.3699 14.5661L43.377 14.5944Z" fill="#999999"/>
<path d="M41.6896 67.2051L41.803 66.9784L42.0439 66.943L45.8058 66.3975L43.0853 63.7478L42.9082 63.5707L42.9507 63.3298L43.5883 59.5962L42.8799 60.581L42.3343 63.7762L44.651 66.0362L41.4417 66.5037L40.0106 69.4155L38.5724 66.5037L35.363 66.0362L34.2295 66.4046L37.9702 66.943L38.2182 66.9784L38.3315 67.2051L40.0106 70.6129L41.6896 67.2051Z" fill="#999999"/>
<path d="M79.9611 39.2421L75.8308 34.8921H54.1234V26.0858L52.7489 23.592H27.2583L25.8839 26.0858V30.7546H4.16942L0.0390625 34.1269V48.7993H79.9611V39.2491V39.2421ZM1.24345 47.5878V34.4528L4.60158 31.7181H25.8768V33.7585L1.98026 34.4528H27.0812V26.1567L27.9668 24.5555H52.0405L52.6923 25.7387L27.4567 26.0858L52.919 26.4401V34.3961V39.49H54.1234L58.5938 36.4719L74.8602 36.1248L62.2849 35.8556H75.3136L78.1191 38.8099L54.676 39.5042H78.7638V47.5878H1.24345Z" fill="#999999"/>
<path d="M41.6831 46.1777V45.0654H41.1163V40.8997H39.8057L38.3037 41.2468V42.012H39.1539V45.0654H38.5021V46.1777H41.6831Z" fill="#999999"/>
<path d="M16.4545 44.6688H15.1296V45.0655H14.3007C14.5203 44.8884 14.7471 44.6971 14.9808 44.4987C15.2217 44.3004 15.4343 44.0807 15.6326 43.854C15.831 43.6273 15.994 43.3864 16.1215 43.1314C16.249 42.8834 16.3128 42.6142 16.3128 42.3379C16.3128 41.8278 16.1569 41.4453 15.8381 41.1902C15.5972 40.9918 15.2713 40.8714 14.8533 40.8218C14.7116 40.8076 14.5629 40.8005 14.3999 40.8005C14.1803 40.8005 13.9607 40.8147 13.7481 40.836C13.5356 40.8643 13.3301 40.8926 13.1388 40.9422C12.9475 40.9918 12.7846 41.0343 12.6429 41.0839C12.5012 41.1335 12.3737 41.1831 12.2533 41.2469V42.8551H13.6135V42.515C13.6135 42.43 13.6206 42.3521 13.6418 42.2883C13.6631 42.2246 13.6914 42.175 13.7269 42.1325C13.8048 42.0545 13.9181 42.012 14.074 42.012C14.2299 42.012 14.3432 42.0545 14.4212 42.1325C14.4991 42.2104 14.5345 42.3379 14.5345 42.515C14.5345 42.6213 14.4778 42.763 14.3574 42.9401C14.237 43.1172 14.074 43.3156 13.8615 43.5423C13.7552 43.6557 13.6418 43.7761 13.5143 43.9036C13.3868 44.0311 13.2522 44.1587 13.1034 44.2933C12.8129 44.5625 12.487 44.8459 12.1328 45.1434V46.1849H16.4403V44.6758L16.4545 44.6688Z" fill="#999999"/>
<path d="M67.8038 44.6758C67.8038 44.5908 67.8038 44.5129 67.7826 44.4421C67.7684 44.3712 67.7543 44.3004 67.7259 44.2366C67.6763 44.1091 67.6126 44.0028 67.5417 43.9107C67.4709 43.8186 67.3929 43.7407 67.3079 43.6769C67.2229 43.6131 67.145 43.5565 67.0741 43.514V43.4431C67.1379 43.3935 67.2087 43.3369 67.2796 43.266C67.3575 43.1952 67.4213 43.1172 67.485 43.0251C67.5488 42.933 67.5984 42.8268 67.6409 42.7063C67.6834 42.5859 67.7047 42.4513 67.7047 42.2954C67.7047 41.8137 67.5417 41.4452 67.2158 41.1831C66.8899 40.921 66.4082 40.7864 65.7705 40.7864C65.643 40.7864 65.5226 40.7864 65.4021 40.7935C65.2817 40.8006 65.1754 40.8076 65.0763 40.8218C64.8708 40.8501 64.6937 40.8856 64.5307 40.9281C64.3749 40.9706 64.2332 41.0202 64.1198 41.0769C64.0065 41.1264 63.9073 41.176 63.8223 41.2256V42.6071H65.1825V42.4938C65.1825 42.3167 65.2179 42.1891 65.2959 42.1112C65.3738 42.0333 65.4872 41.9908 65.643 41.9908C65.7989 41.9908 65.9122 42.0333 65.9902 42.1112C66.0681 42.1891 66.1035 42.3167 66.1035 42.4938C66.1035 42.6355 66.0681 42.7417 65.9902 42.8268C65.9547 42.8693 65.9052 42.8976 65.8414 42.9189C65.7776 42.9401 65.7068 42.9472 65.6218 42.9472H65.14V43.9816H65.6289C65.7989 43.9816 65.9193 44.0241 65.9902 44.1091C66.0681 44.1941 66.1035 44.3216 66.1035 44.4846C66.1035 44.5412 66.1035 44.5908 66.0964 44.6333C66.0823 44.768 66.0468 44.8671 65.9902 44.9309C65.9122 45.0088 65.7989 45.0513 65.643 45.0513C65.4872 45.0513 65.3738 45.0088 65.2959 44.9309C65.2179 44.853 65.1825 44.7254 65.1825 44.5483V44.3571H63.8223V45.7881C63.9073 45.8448 64.0065 45.8944 64.1269 45.9511C64.1836 45.9794 64.2473 46.0078 64.3111 46.029C64.3749 46.0574 64.4457 46.0786 64.5236 46.0999C64.6016 46.1211 64.6795 46.1424 64.7645 46.1565C64.8495 46.1778 64.9416 46.192 65.0408 46.2061C65.2321 46.2345 65.4517 46.2486 65.6926 46.2486C66.0468 46.2486 66.3586 46.2132 66.6278 46.1353C66.7624 46.0999 66.8828 46.0503 66.9891 46.0007C67.0954 45.9511 67.1946 45.8873 67.2867 45.8165C67.4638 45.6748 67.5913 45.5048 67.6763 45.3135C67.7613 45.1151 67.8038 44.8955 67.8038 44.6617V44.6758Z" fill="#999999"/>
</svg>
