<svg width="72" height="80" viewBox="0 0 72 80" fill="none" xmlns="http://www.w3.org/2000/svg">
<path d="M17.8277 15.759V16.7358L18.7976 16.667V17.0522L17.8277 17.0179V17.8364L18.3367 17.8983V18.0909H16.9816L16.9541 17.9602C17.0573 17.9121 17.1742 17.8639 17.3049 17.8227V15.7109L16.9954 15.6834V15.4839H19.0865V15.5939C19.0865 15.7866 19.0728 15.986 19.0315 16.1924H18.7357L18.6738 15.8072L17.8277 15.7522V15.759Z" fill="#999999"/>
<path d="M21.8449 17.8915V18.0841H20.5861L20.5586 17.9534L20.9232 17.809V15.7109L20.593 15.6697V15.4771H21.7761L21.8036 15.6077C21.7349 15.6421 21.611 15.6903 21.4391 15.7522V17.8433L21.8449 17.8915Z" fill="#999999"/>
<path d="M25.9376 17.8917V18.0843H25.1809L24.5824 17.0594H24.1491V17.8367L24.5687 17.8917V18.0843H23.2892L23.2617 17.9536L23.6263 17.8092V15.7043L23.3168 15.6767V15.4773L24.5962 15.4429C24.9126 15.4429 25.1671 15.5185 25.3666 15.663C25.5661 15.8143 25.6624 16.0001 25.6624 16.227C25.6624 16.3853 25.6074 16.5366 25.5042 16.6742C25.401 16.8117 25.2566 16.9149 25.0708 16.9837L25.6418 17.8504L25.9238 17.8848L25.9376 17.8917ZM24.156 16.7636C24.2867 16.7842 24.3898 16.798 24.4793 16.798C24.7131 16.798 24.8782 16.743 24.9745 16.6398C25.0708 16.5366 25.119 16.4059 25.119 16.2477C25.119 16.0001 25.0227 15.8281 24.8232 15.7249L24.156 15.7868V16.7705V16.7636Z" fill="#999999"/>
<path d="M29.4526 17.3826C29.4526 17.6096 29.3563 17.8022 29.1706 17.9467C28.9849 18.0911 28.7441 18.1668 28.4552 18.1668C28.2901 18.1668 28.1182 18.1462 27.9324 18.098C27.7467 18.0498 27.6022 17.9879 27.4922 17.9054V17.8916V17.7541C27.4922 17.5477 27.5128 17.362 27.5472 17.2038H27.8155L27.9531 17.7265C28.1319 17.8297 28.3451 17.8779 28.5928 17.8779H28.6891C28.8473 17.8022 28.9298 17.6784 28.9298 17.5064C28.9298 17.3551 28.8335 17.2313 28.6409 17.1281L27.9668 16.8048C27.6642 16.6397 27.5128 16.4265 27.5128 16.1651C27.5128 15.9449 27.6091 15.7592 27.8086 15.6216C28.0012 15.4841 28.2557 15.4153 28.5584 15.4153C28.7923 15.4153 29.0468 15.4566 29.3288 15.546C29.3426 15.7661 29.3288 16.0069 29.2738 16.2476H28.9918L28.9092 15.8349C28.751 15.7455 28.5653 15.7042 28.3451 15.7042H28.2145C28.0838 15.7867 28.015 15.8968 28.015 16.0481C28.015 16.1857 28.1181 16.3095 28.3245 16.4127L28.9642 16.7085C29.2944 16.8805 29.4595 17.1075 29.4595 17.3964L29.4526 17.3826Z" fill="#999999"/>
<path d="M33.5178 15.4634V15.5666C33.5178 15.773 33.5041 15.9931 33.4628 16.2201H33.1739L33.1189 15.773L32.4998 15.7386V17.8366L32.9675 17.8916V18.0842H31.5643L31.5367 17.9535L31.8463 17.8435L31.9839 17.8022V15.7317L31.3648 15.7661L31.3098 16.2132H31.0277C30.9865 15.9931 30.9658 15.7867 30.9658 15.5872V15.4565L32.259 15.4703C32.713 15.4703 33.1326 15.4703 33.5316 15.4565L33.5178 15.4634Z" fill="#999999"/>
<path d="M38.2369 17.1282V17.8298L38.7459 17.8917V18.0843H37.3908L37.3633 17.9536C37.4665 17.9055 37.5834 17.8573 37.7141 17.816V15.7043L37.4046 15.6767V15.4773L38.6909 15.4429C39.0004 15.4429 39.2549 15.5254 39.4544 15.6836C39.6539 15.8418 39.7502 16.0413 39.7502 16.289C39.7502 16.5366 39.6539 16.7154 39.4682 16.8805C39.2825 17.0387 39.0417 17.1213 38.7528 17.1213H38.2369V17.1282ZM38.2369 15.7868V16.8186C38.3676 16.8393 38.4983 16.853 38.6221 16.853C38.8147 16.853 38.9592 16.798 39.0555 16.6879C39.1518 16.5779 39.1999 16.4472 39.1999 16.289C39.1999 16.172 39.1724 16.0551 39.1243 15.9519C39.0692 15.8487 39.0004 15.7731 38.9041 15.7249L38.2369 15.7868Z" fill="#999999"/>
<path d="M43.3686 17.2311C43.3686 17.582 43.3549 17.864 43.3136 18.0841H41.1261L41.0986 17.9534L41.4632 17.809V15.7109L41.133 15.6697V15.4771H42.3162L42.3437 15.6077C42.2749 15.6421 42.1511 15.6903 41.9791 15.7522V17.7883L42.9215 17.7333L43.0591 17.2105L43.3686 17.2311Z" fill="#999999"/>
<path d="M47.7294 17.8916V18.0842H46.4843L46.4568 17.9535C46.5531 17.9053 46.6838 17.8572 46.8489 17.8021L46.6494 17.3206H45.5694L45.3562 17.8365L45.7758 17.8916V18.0842H44.6408L44.6133 17.9535C44.7165 17.9053 44.8334 17.8572 44.9641 17.8159L45.934 15.6078L45.8927 15.5115L46.3398 15.3877L47.4198 17.8572L47.7294 17.8916ZM46.5393 17.0524L46.1128 16.0205L45.6795 17.0524H46.5393Z" fill="#999999"/>
<path d="M51.2927 17.7954L50.4328 18.1462C49.9926 18.1531 49.6418 18.0361 49.3804 17.7954C49.119 17.5546 48.9883 17.2244 48.9883 16.8186C48.9883 16.4127 49.119 16.0688 49.3735 15.8074C49.628 15.5391 49.9582 15.4084 50.364 15.4084C50.6873 15.4084 50.9694 15.491 51.2101 15.6561V15.6698V15.7799C51.2101 15.9794 51.1826 16.1582 51.1276 16.3233H50.8043L50.7355 15.8624C50.5429 15.773 50.3296 15.7249 50.1026 15.7249H49.9995C49.8412 15.8212 49.7243 15.9656 49.6486 16.1445C49.573 16.3233 49.5386 16.5228 49.5386 16.7223C49.5386 17.0456 49.628 17.307 49.8069 17.5065C49.9857 17.6991 50.2196 17.7885 50.5154 17.7747L51.1964 17.5615L51.2927 17.8023V17.7954Z" fill="#999999"/>
<path d="M54.9384 17.3343C54.9384 17.6026 54.9246 17.8502 54.8902 18.0841H52.7853L52.7578 17.9534L53.1224 17.809V15.704L52.8128 15.6765V15.4771H54.904V15.5871C54.904 15.7728 54.8902 15.9723 54.849 16.1787H54.5532L54.4913 15.7935L53.6452 15.7384V16.6396L54.5944 16.5708V16.9422L53.6452 16.9078V17.7746L54.5257 17.7264L54.6563 17.2999L54.9453 17.3206L54.9384 17.3343Z" fill="#999999"/>
<path d="M5.37002 78.9682C4.54456 78.2872 4.13184 77.276 4.13184 75.9346C4.13184 74.5933 4.5308 73.5752 5.32186 72.9011C6.1198 72.227 7.2548 71.8831 8.72685 71.8831C9.39409 71.8831 9.99254 71.945 10.5153 72.0688C11.0381 72.1926 11.4715 72.3646 11.8223 72.5847C11.9186 72.6535 11.9667 72.7291 11.9667 72.8117C11.9667 72.8805 11.9323 72.9768 11.8567 73.0937L11.2445 74.0774C11.1826 74.1874 11.1 74.2356 11.0106 74.2356C10.9556 74.2356 10.8593 74.2081 10.7286 74.1462C10.5016 74.043 10.2608 73.9536 10.0132 73.8917C9.76554 73.8297 9.46975 73.8022 9.13957 73.8022C8.46546 73.8022 7.94267 73.988 7.58498 74.3525C7.22728 74.7171 7.04843 75.2468 7.04843 75.9415C7.04843 76.6363 7.24103 77.1522 7.63312 77.5236C8.02521 77.8951 8.56176 78.0808 9.23588 78.0808C9.82057 78.0808 10.364 77.9639 10.8524 77.7369C10.9831 77.675 11.0794 77.6475 11.1344 77.6475C11.2238 77.6475 11.2995 77.7025 11.3683 77.8057L11.9805 78.7893C12.0562 78.9132 12.0906 79.0026 12.0906 79.0714C12.0906 79.1539 12.0424 79.2296 11.9461 79.2984C11.5953 79.5185 11.1551 79.6905 10.6254 79.8143C10.0957 79.9381 9.49727 80 8.83003 80C7.34422 80 6.19547 79.6561 5.37002 78.9751V78.9682Z" fill="#999999"/>
<path d="M12.8672 79.663C12.7572 79.5598 12.7021 79.3947 12.7021 79.1746V72.7155C12.7021 72.4953 12.7572 72.3302 12.8672 72.2271C12.9773 72.1239 13.1699 72.0688 13.4382 72.0688H14.8965C15.1716 72.0688 15.3642 72.117 15.4743 72.2202C15.5843 72.3234 15.6394 72.4885 15.6394 72.7155V74.9786H17.8131V72.7155C17.8131 72.4953 17.8681 72.3302 17.9782 72.2271C18.0882 72.1239 18.2808 72.0688 18.5491 72.0688H20.0074C20.2825 72.0688 20.4751 72.117 20.5852 72.2202C20.6953 72.3234 20.7503 72.4885 20.7503 72.7155V79.1746C20.7503 79.3947 20.6953 79.5598 20.5852 79.663C20.4751 79.7731 20.2825 79.8212 20.0074 79.8212H18.5491C18.2808 79.8212 18.0882 79.7662 17.9782 79.663C17.8681 79.5598 17.8131 79.3947 17.8131 79.1746V76.9115H15.6394V79.1746C15.6394 79.3947 15.5843 79.5598 15.4743 79.663C15.3642 79.7731 15.1716 79.8212 14.8965 79.8212H13.4382C13.1699 79.8212 12.9773 79.7662 12.8672 79.663Z" fill="#999999"/>
<path d="M21.3623 79.5805C21.3623 79.5118 21.3829 79.4292 21.4242 79.326L24.4715 72.4885C24.5472 72.3303 24.6297 72.2134 24.7191 72.1515C24.8154 72.0896 24.9461 72.0552 25.1181 72.0552H26.4526C26.6246 72.0552 26.7553 72.0896 26.8516 72.1515C26.9479 72.2134 27.0304 72.3303 27.0992 72.4885L30.1327 79.326C30.174 79.4223 30.1946 79.5118 30.1946 79.5805C30.1946 79.7388 30.1052 79.8213 29.9264 79.8213H27.6289C27.3743 79.8213 27.2161 79.7181 27.1542 79.5118L26.8584 78.6657H24.6916L24.4096 79.5118C24.3408 79.7181 24.1826 79.8213 23.935 79.8213H21.6375C21.4586 79.8213 21.3692 79.7388 21.3692 79.5805H21.3623ZM26.2531 76.8634L25.7785 75.4464L25.3038 76.8634H26.26H26.2531Z" fill="#999999"/>
<path d="M30.6631 79.663C30.5531 79.5599 30.498 79.3948 30.498 79.1746V72.7017C30.498 72.4816 30.5531 72.3165 30.6631 72.2133C30.7732 72.1102 30.9658 72.062 31.241 72.062H32.6442C32.8231 72.062 32.9675 72.0826 33.0707 72.1239C33.1739 72.1652 33.2564 72.2477 33.3183 72.3716L34.7491 75.7146L36.1799 72.3716C36.2349 72.2477 36.3175 72.1652 36.4275 72.1239C36.5307 72.0826 36.6752 72.062 36.854 72.062H38.2573C38.5324 72.062 38.725 72.1102 38.8351 72.2133C38.9452 72.3165 39.0002 72.4747 39.0002 72.7017V79.1746C39.0002 79.3948 38.9452 79.5599 38.8351 79.663C38.725 79.7731 38.5324 79.8213 38.2642 79.8213H37.0879C36.8196 79.8213 36.627 79.7662 36.5101 79.663C36.3931 79.5599 36.3381 79.3948 36.3381 79.1746V76.0586L35.6158 77.6132C35.5195 77.8333 35.4095 77.9915 35.2994 78.0878C35.1825 78.1841 34.9968 78.2323 34.7354 78.2323C34.474 78.2323 34.2882 78.1841 34.1713 78.0878C34.0544 77.9915 33.9512 77.8333 33.8549 77.6132L33.1326 76.0586V79.1746C33.1326 79.3948 33.0776 79.5599 32.9675 79.663C32.8575 79.7731 32.6649 79.8213 32.3897 79.8213H31.2134C30.9452 79.8213 30.7526 79.7662 30.6425 79.663H30.6631Z" fill="#999999"/>
<path d="M40.0323 79.663C39.9222 79.5598 39.8672 79.3947 39.8672 79.1746V72.7155C39.8672 72.4953 39.9222 72.3302 40.0323 72.2271C40.1423 72.1239 40.3349 72.0688 40.6032 72.0688H43.5267C44.7511 72.0688 45.6385 72.2959 46.1957 72.7498C46.7528 73.2038 47.0349 73.8848 47.0349 74.7997C47.0349 75.7146 46.7528 76.3956 46.1957 76.8427C45.6385 77.2898 44.7511 77.5168 43.5336 77.5168H42.7975V79.1815C42.7975 79.4016 42.7425 79.5667 42.6325 79.6699C42.5224 79.7799 42.3298 79.8281 42.0546 79.8281H40.5963C40.3281 79.8281 40.1355 79.7731 40.0254 79.6699L40.0323 79.663ZM43.2653 75.5633C43.5267 75.5633 43.7331 75.5014 43.8844 75.3707C44.0357 75.24 44.1114 75.0474 44.1114 74.786C44.1114 74.5246 44.0357 74.3251 43.8844 74.1944C43.7331 74.0637 43.5267 74.0018 43.2653 74.0018H42.433V75.5633H43.2653Z" fill="#999999"/>
<path d="M47.5645 79.663C47.4544 79.5598 47.3994 79.3947 47.3994 79.1746V72.7155C47.3994 72.4953 47.4544 72.3302 47.5645 72.2271C47.6746 72.1239 47.8672 72.0688 48.1354 72.0688H49.5937C49.8689 72.0688 50.0615 72.117 50.1716 72.2202C50.2816 72.3234 50.3366 72.4885 50.3366 72.7155V79.1746C50.3366 79.3947 50.2816 79.5598 50.1716 79.663C50.0615 79.7731 49.8689 79.8212 49.5937 79.8212H48.1354C47.8672 79.8212 47.6746 79.7662 47.5645 79.663Z" fill="#999999"/>
<path d="M52.0695 78.9338C51.3197 78.2322 50.9414 77.2279 50.9414 75.9346C50.9414 74.6414 51.3129 73.644 52.0695 72.9355C52.8193 72.2339 53.9199 71.8831 55.3713 71.8831C56.8227 71.8831 57.9234 72.2339 58.6731 72.9355C59.4229 73.6371 59.8013 74.6414 59.8013 75.9346C59.8013 77.2279 59.4229 78.2253 58.6731 78.9338C57.9234 79.6354 56.8227 79.9862 55.3713 79.9862C53.9199 79.9862 52.8193 79.6354 52.0695 78.9338ZM56.5201 77.5374C56.754 77.1866 56.8778 76.65 56.8778 75.9346C56.8778 75.2193 56.7608 74.6758 56.5201 74.325C56.2862 73.9742 55.901 73.8022 55.3713 73.8022C54.8417 73.8022 54.4565 73.9742 54.2226 74.325C53.9887 74.6758 53.8649 75.2124 53.8649 75.9346C53.8649 76.6569 53.9818 77.1866 54.2226 77.5374C54.4565 77.8882 54.8417 78.0671 55.3713 78.0671C55.901 78.0671 56.2862 77.8882 56.5201 77.5374Z" fill="#999999"/>
<path d="M60.5713 79.663C60.4613 79.5599 60.4062 79.3948 60.4062 79.1746V72.7017C60.4062 72.4816 60.4613 72.3165 60.5713 72.2133C60.6814 72.1102 60.874 72.062 61.1492 72.062H62.3117C62.4836 72.062 62.6143 72.0826 62.7106 72.1239C62.8069 72.1652 62.8964 72.2477 62.9858 72.3716L65.2007 75.4395V72.7086C65.2007 72.4885 65.2558 72.3234 65.3658 72.2202C65.4759 72.117 65.6685 72.062 65.9368 72.062H67.3951C67.6702 72.062 67.8628 72.1102 67.9729 72.2133C68.0829 72.3165 68.138 72.4816 68.138 72.7086V79.1815C68.138 79.4016 68.0829 79.5667 67.9729 79.663C67.8628 79.7662 67.6702 79.8144 67.3951 79.8144H66.2326C66.0606 79.8144 65.9299 79.7937 65.8336 79.7525C65.7373 79.7112 65.6479 79.6286 65.5584 79.5048L63.3435 76.4369V79.1746C63.3435 79.3948 63.2885 79.5599 63.1784 79.6562C63.0683 79.7593 62.8757 79.8075 62.6006 79.8075H61.1423C60.874 79.8075 60.6814 79.7525 60.5713 79.6493V79.663Z" fill="#999999"/>
<path d="M69.3351 36.6019C69.3351 18.2149 54.3806 3.2605 35.9937 3.2605C17.6068 3.2605 2.65234 18.2149 2.65234 36.6019C2.65234 49.7747 10.3359 61.1866 21.452 66.6001L3.95243 71.0576H24.2173C23.5844 70.6105 23.1786 69.9639 23.0685 69.1866C22.9103 68.0722 23.4743 66.6483 25.3454 65.6096L25.0565 65.6853C13.3075 61.2485 4.92234 49.8916 4.92234 36.6087C4.92234 19.4737 18.8587 5.53737 35.9937 5.53737C53.1287 5.53737 67.0651 19.4737 67.0651 36.6087C67.0651 49.871 58.7142 61.2072 46.9928 65.6577L46.8071 65.6096C48.6781 66.6483 49.2422 68.0653 49.084 69.1866C48.9739 69.9639 48.5612 70.6105 47.9352 71.0576H68.2001L50.5904 66.5726C61.679 61.1522 69.3351 49.7541 69.3351 36.6019Z" fill="#999999"/>
<path d="M36.0766 71.0645H45.4111C46.0302 71.0645 46.5736 70.9545 47.0345 70.755C47.7912 70.4179 48.2933 69.8332 48.3965 69.0766C48.4378 68.7945 48.4171 68.4987 48.3208 68.1892C48.2521 67.9553 48.1351 67.7214 47.9769 67.4876C47.8187 67.2537 47.6055 67.0198 47.3441 66.7997C46.8213 66.3526 46.0784 65.9398 45.0809 65.6097C44.7232 64.9974 43.9666 63.9656 42.866 63.7868C42.5771 63.5735 41.9786 63.0783 41.3871 62.2735C41.222 62.0465 41.05 61.7851 40.8987 61.5099C40.7404 61.2279 40.596 60.9252 40.4584 60.5882C40.1282 59.7558 39.9012 58.7584 39.9012 57.589C39.9012 55.4772 40.0595 53.4342 40.2383 51.804C40.3484 50.7859 40.4653 49.933 40.5616 49.3276C40.6166 48.9631 40.6648 48.6948 40.6923 48.5297C40.7611 48.4196 40.8574 48.2683 40.9743 48.0688C41.0362 47.9725 41.0981 47.8556 41.1669 47.7386C41.4146 47.3122 41.7379 46.7481 42.0956 46.0809C42.2469 45.8057 42.3982 45.5168 42.5564 45.2073C42.5908 45.5443 42.6734 45.847 42.7766 46.1152C43.0104 46.6518 43.3131 47.0164 43.5745 47.2709C43.6639 47.3534 43.7465 47.4291 43.8153 47.491C43.8909 47.5529 43.9597 47.6079 44.0216 47.6492C44.0835 47.6905 44.1386 47.7318 44.1798 47.7593C44.228 47.7868 44.2624 47.8143 44.2899 47.8281C44.3105 47.8418 44.3174 47.8487 44.3174 47.8487C44.3587 47.8762 44.4068 47.89 44.455 47.8968C44.4687 47.8968 44.4825 47.8968 44.4894 47.8968C44.5031 47.8968 44.5169 47.8968 44.5306 47.8968C44.565 47.8968 44.5926 47.8968 44.627 47.8831C44.627 47.8831 44.6269 47.8831 44.6338 47.8831C44.682 47.8693 44.7233 47.8487 44.7645 47.8281C44.7714 47.8281 44.7852 47.8143 44.792 47.8074C44.8333 47.7799 44.8677 47.7455 44.8952 47.7042C44.9296 47.6561 44.9503 47.6011 44.9571 47.546C44.9778 47.436 44.9571 47.319 44.8883 47.2227C44.8539 47.1746 44.8127 47.1333 44.7645 47.0989H44.7576C44.7576 47.0989 44.7508 47.0852 44.7301 47.0783C44.7164 47.0714 44.6957 47.0508 44.6682 47.0301C44.6407 47.0095 44.5994 46.9751 44.5582 46.9407C44.5169 46.9063 44.4619 46.8582 44.4068 46.8031C44.2968 46.6999 44.1661 46.5624 44.0423 46.3835C43.9184 46.2047 43.7946 45.9983 43.7052 45.7438C43.6914 45.6956 43.6777 45.6406 43.6639 45.5925C43.6226 45.448 43.5951 45.2898 43.5883 45.1247C43.5883 45.049 43.5883 44.9734 43.5883 44.8908C43.5883 44.8083 43.6089 44.7326 43.6226 44.6501L43.6364 44.54V44.5263L43.6777 44.4024C43.7052 44.3199 43.7258 44.2305 43.7533 44.141C43.7946 44.0516 43.829 43.9691 43.8703 43.8797L43.8978 43.8109V43.7902H43.9047L44.001 43.6458C44.001 43.6458 44.0354 43.5907 44.0491 43.577L44.0904 43.5426C44.0904 43.5426 44.1386 43.4944 44.1661 43.4669C44.228 43.405 44.3036 43.3362 44.3862 43.2674C44.4687 43.1987 44.5582 43.1299 44.6545 43.0611C44.7508 42.9923 44.8471 42.9235 44.9502 42.8547C45.1566 42.7171 45.3767 42.5864 45.6037 42.4557C45.7207 42.387 45.8376 42.325 45.9545 42.2563C46.4292 41.988 46.9382 41.7128 47.4679 41.4308C47.7293 41.2864 48.0044 41.1419 48.2796 40.9906C48.5547 40.8392 48.8299 40.6879 49.1119 40.5297C50.2331 39.89 51.4163 39.1815 52.565 38.3147C52.8539 38.1015 53.1429 37.8745 53.4249 37.6337C53.7069 37.393 53.9821 37.1453 54.2572 36.8839C54.7525 36.4093 55.2134 35.8865 55.6467 35.3293C55.688 35.2743 55.7361 35.2193 55.7843 35.1643C56.2589 34.5383 56.651 33.8435 56.9881 33.1144C57.0706 32.9287 57.1463 32.7429 57.2151 32.5572C57.2839 32.3715 57.3458 32.1789 57.4077 31.9794C57.5246 31.5942 57.614 31.1952 57.6897 30.7962C57.7172 30.5968 57.7447 30.3973 57.7723 30.1978C57.7998 29.9983 57.8135 29.7988 57.8204 29.5925L57.8342 29.2898V29.2141V29.1385V29.1041V29.0422V28.9734L57.8135 28.4162C57.8135 28.3199 57.8067 28.2098 57.7929 28.0998C57.786 28.0035 57.7723 27.914 57.7654 27.8177C57.7585 27.7283 57.7448 27.632 57.7379 27.5426C57.7241 27.4325 57.7104 27.3225 57.6897 27.2124C57.6691 27.1161 57.6553 27.0129 57.6347 26.9166C57.614 26.8203 57.6003 26.7171 57.5797 26.6208L57.4214 26.0361C57.3595 25.8435 57.2976 25.6509 57.222 25.4583C56.995 24.8874 56.7061 24.3371 56.3277 23.8418C55.9563 23.3465 55.4954 22.9132 54.9795 22.5692C54.8075 22.4523 54.6287 22.3491 54.4498 22.2597C53.7138 21.8882 52.9159 21.7094 52.1386 21.6888C52.0904 21.6888 52.0423 21.6888 51.9941 21.6888C51.9116 21.6888 51.829 21.6956 51.7465 21.7025C51.6708 21.7025 51.5883 21.7025 51.5126 21.7163C51.4025 21.7232 51.2925 21.7438 51.1824 21.7575C51.1136 21.7644 51.0379 21.7782 50.9692 21.7851C50.8453 21.8057 50.7284 21.8401 50.6115 21.8676C50.5564 21.8814 50.4945 21.8951 50.4395 21.9089C50.2675 21.957 50.0956 22.0121 49.9236 22.0809C49.5797 22.2184 49.2564 22.3904 48.9537 22.5968C48.651 22.7962 48.3759 23.0301 48.1282 23.2915C47.8668 23.5667 47.6467 23.8693 47.4679 24.1926C47.461 24.0207 47.4472 23.8625 47.4404 23.7042C47.3716 22.6243 47.3028 21.957 47.2959 21.9089C47.2546 21.5099 46.9657 21.1797 46.5805 21.0766C46.4911 21.0559 44.3036 20.5056 36.0904 20.5056C31.9838 20.5056 29.3836 20.6432 27.7946 20.7808C27.5951 20.8014 27.4163 20.8152 27.2443 20.8358C27.1618 20.8427 27.0792 20.8564 27.0036 20.8633C26.8522 20.8771 26.7147 20.8977 26.5908 20.9115C26.5289 20.9183 26.467 20.9252 26.412 20.9321C26.0749 20.9803 25.8617 21.0146 25.731 21.0422C25.6484 21.0559 25.6003 21.0697 25.5934 21.0766C25.4971 21.1041 25.4077 21.1385 25.3251 21.1935C25.0775 21.3448 24.9124 21.6062 24.878 21.9089C24.878 21.9295 24.8643 22.0671 24.8436 22.301C24.8367 22.3766 24.8299 22.4661 24.823 22.5624C24.8092 22.755 24.7886 22.982 24.768 23.2434C24.768 23.264 24.768 23.2778 24.768 23.2984C24.7473 23.5667 24.7267 23.8625 24.7129 24.1926C24.5341 23.8693 24.314 23.5667 24.0526 23.2915C23.8049 23.0301 23.5298 22.8031 23.2271 22.5968C22.9726 22.4248 22.6975 22.2803 22.4154 22.1565C22.3604 22.1359 22.3122 22.1015 22.2572 22.0809C22.0921 22.0121 21.9202 21.957 21.7482 21.9089C21.6932 21.8951 21.6312 21.8814 21.5693 21.8676C21.4524 21.8401 21.3355 21.8057 21.2116 21.7851C21.1429 21.7713 21.0672 21.7644 20.9984 21.7575C20.8883 21.7438 20.7783 21.7232 20.6682 21.7163C20.5926 21.7163 20.51 21.7094 20.4343 21.7025C20.3518 21.7025 20.2692 21.6888 20.1867 21.6888C20.1386 21.6888 20.0904 21.6888 20.0423 21.6888C19.8634 21.6888 19.6846 21.7094 19.5057 21.73C19.2925 21.7576 19.0861 21.7919 18.8729 21.8401C18.4808 21.9364 18.1024 22.0671 17.731 22.2528C17.2701 22.4867 16.8505 22.7962 16.4722 23.1608C16.2521 23.3741 16.0388 23.5942 15.8531 23.8418C15.3509 24.5022 14.9932 25.2588 14.7594 26.0293L14.6012 26.614C14.5599 26.8134 14.5255 27.006 14.4911 27.2055C14.4498 27.3981 14.4361 27.6114 14.4154 27.8109C14.3948 28.0103 14.3673 28.2305 14.3673 28.4093L14.3535 28.9665V29.0353V29.0972V29.1178V29.1385V29.2898L14.3742 29.5925C14.3742 29.9983 14.4498 30.3973 14.498 30.7962C14.5392 30.9957 14.5805 31.1952 14.6218 31.3878C14.7594 31.9794 14.9451 32.5572 15.1927 33.1075C15.5298 33.8367 15.9288 34.5314 16.3965 35.1574C16.8643 35.7833 17.3802 36.3543 17.9236 36.8771C18.1919 37.1385 18.4739 37.3861 18.7559 37.6269C19.038 37.8676 19.3269 38.0877 19.6158 38.3078C19.9047 38.528 20.1936 38.7343 20.4825 38.9338C21.0603 39.3328 21.645 39.6974 22.2159 40.0344C22.5049 40.2064 22.7869 40.3715 23.0689 40.5297C23.3509 40.6879 23.6261 40.8392 23.9012 40.9906C24.1764 41.1419 24.4447 41.2864 24.7129 41.4308C25.2426 41.7128 25.7516 41.988 26.2263 42.2563C26.4601 42.3938 26.694 42.5245 26.9073 42.6552C27.1274 42.7859 27.3337 42.9235 27.5195 43.0611C27.6089 43.1299 27.7052 43.1987 27.7877 43.2674C27.8703 43.3362 27.946 43.405 28.0079 43.4669C28.0285 43.4944 28.056 43.5151 28.0766 43.5426L28.1179 43.577C28.1179 43.577 28.1523 43.6251 28.1661 43.6458L28.2624 43.7902L28.2692 43.8109L28.2968 43.8797C28.338 43.9691 28.3724 44.0585 28.4137 44.141C28.4481 44.2305 28.4619 44.313 28.4894 44.4024L28.5031 44.4575L28.5238 44.5263L28.5444 44.6501C28.5513 44.7326 28.5719 44.8152 28.5788 44.8908C28.5857 45.0422 28.5788 45.1866 28.5582 45.3242C28.5375 45.4755 28.5031 45.6131 28.4619 45.7438C28.2761 46.2459 27.9803 46.5899 27.7602 46.7962C27.7052 46.8513 27.657 46.8925 27.6089 46.9338C27.5676 46.9682 27.5263 47.0026 27.4988 47.0232C27.4713 47.0439 27.4507 47.0576 27.4369 47.0714C27.4163 47.0852 27.4094 47.092 27.4094 47.092H27.4025C27.2099 47.2227 27.148 47.4772 27.265 47.6767C27.2925 47.7249 27.3269 47.7593 27.3681 47.7937C27.375 47.8005 27.3888 47.8074 27.3957 47.8143C27.4369 47.8418 27.4782 47.8625 27.5195 47.8762C27.5195 47.8762 27.5195 47.8762 27.5264 47.8762C27.5607 47.8831 27.602 47.89 27.6433 47.89C27.657 47.89 27.6639 47.89 27.6777 47.89C27.6914 47.89 27.6983 47.89 27.7121 47.89C27.7602 47.8831 27.8153 47.8693 27.8565 47.8418C27.8565 47.8418 27.8703 47.8418 27.8909 47.8212C27.9184 47.8074 27.9528 47.7799 28.001 47.7524C28.0904 47.6974 28.2142 47.6079 28.3656 47.4841C28.6269 47.264 28.9915 46.9201 29.2804 46.3629C29.3217 46.2803 29.363 46.1978 29.4042 46.1084C29.5006 45.8607 29.5762 45.5787 29.6106 45.2692C29.6106 45.2416 29.6175 45.221 29.6244 45.2004C30.3879 46.6931 31.0345 47.7937 31.3647 48.3302C31.4128 48.4059 31.4541 48.4747 31.4885 48.5297C31.516 48.6948 31.5642 48.9631 31.6192 49.3276C31.6536 49.5684 31.6949 49.8504 31.7361 50.1668C31.7774 50.4833 31.8256 50.8341 31.8668 51.2124C31.9769 52.1617 32.0938 53.2898 32.1695 54.5142C32.2314 55.491 32.2727 56.5297 32.2727 57.5821C32.2727 58.5177 32.1282 59.3362 31.9012 60.0585C31.2753 62.0327 30.0302 63.2158 29.4524 63.6767C29.3974 63.718 29.3561 63.7524 29.3148 63.7868C28.6269 63.9037 28.0766 64.344 27.6708 64.8117C27.43 65.0938 27.2374 65.3827 27.0999 65.6097C26.4326 65.8298 25.8823 66.0843 25.4352 66.3663C24.651 66.8547 24.1833 67.4119 23.9494 67.9553C23.7843 68.3474 23.7361 68.7257 23.7912 69.0766C23.8118 69.2279 23.8462 69.3723 23.9012 69.5099C24.2108 70.3285 25.0431 70.8857 26.185 71.0301C26.3776 71.0508 26.5702 71.0645 26.7766 71.0645H36.111H36.0766ZM27.774 41.7747C27.4782 41.5615 27.1687 41.3551 26.8453 41.1488C26.1162 40.7017 25.3458 40.2614 24.5478 39.7868C24.2796 39.6286 24.0113 39.4704 23.743 39.3053C22.9382 38.8169 22.1059 38.2941 21.2942 37.7094C21.0259 37.5168 20.7576 37.3104 20.4963 37.1041C20.2349 36.8977 19.9735 36.6776 19.719 36.4575C19.4644 36.2373 19.2168 36.0035 18.976 35.7627C18.4945 35.2812 18.0405 34.7653 17.6416 34.215C17.2357 33.6647 16.9124 33.0662 16.6373 32.4471C16.3621 31.8281 16.1833 31.1746 16.0594 30.5073C16.0182 30.1703 15.9631 29.8401 15.9631 29.4962L15.9494 29.2416V29.1178V29.0903V29.0146L15.97 28.4575C15.97 28.2649 15.9975 28.1135 16.0113 27.9484C16.0319 27.7833 16.0388 27.6251 16.0732 27.46L16.1626 26.9648L16.1901 26.8616L16.2933 26.4833C16.4309 26.0155 16.6235 25.5753 16.8574 25.1763C16.9399 25.0456 17.0225 24.9149 17.1119 24.798C17.2013 24.6741 17.2976 24.5641 17.4008 24.454C17.6416 24.1926 17.9098 23.9794 18.2056 23.8005C18.2813 23.7524 18.357 23.7042 18.4395 23.663C18.5771 23.5942 18.7147 23.5323 18.8522 23.4772C18.9004 23.4566 18.9485 23.4497 18.9967 23.4291C19.093 23.3947 19.1893 23.3672 19.2856 23.3397C19.3406 23.3259 19.4025 23.3122 19.4576 23.3053C19.547 23.2846 19.6364 23.2709 19.7327 23.2571C19.7946 23.2502 19.8565 23.2434 19.9184 23.2365C20.0079 23.2296 20.0973 23.2227 20.1867 23.2227C20.2555 23.2227 20.3312 23.2227 20.4 23.2227C20.455 23.2227 20.5031 23.2227 20.5582 23.2296C20.6407 23.2296 20.7232 23.2434 20.7989 23.2571C20.8471 23.2571 20.9021 23.2709 20.9502 23.2778C21.0397 23.2915 21.1222 23.3121 21.2048 23.3328C21.246 23.3397 21.2873 23.3465 21.3286 23.3603C21.4524 23.3947 21.5762 23.4291 21.6932 23.4704C21.817 23.5185 21.9408 23.5667 22.0646 23.6217C22.8969 24.0207 23.5023 24.6948 23.7224 25.4308C23.7499 25.5065 23.7637 25.589 23.7843 25.6716C23.7843 25.6991 23.7981 25.7266 23.8049 25.7541C23.8325 25.8573 23.8256 25.9674 23.8393 26.0774V26.16L23.8462 26.2425V26.442C23.8462 26.5452 23.8462 26.6277 23.8462 26.7103C23.8462 26.7378 23.8462 26.7653 23.8462 26.7997C23.8256 27.2537 23.7637 27.6939 23.6398 28.0035C23.5848 28.1479 23.516 28.2649 23.4541 28.3268C23.4541 28.3268 23.4472 28.3405 23.4404 28.3474C23.406 28.3818 23.3785 28.4024 23.3509 28.4162C23.3234 28.4299 23.2959 28.4368 23.2615 28.4437C23.234 28.4437 23.1996 28.4437 23.1652 28.4368C23.1515 28.4368 23.1377 28.4368 23.1239 28.4368C23.0758 28.4231 23.0276 28.4093 22.9795 28.3887C22.8694 28.3405 22.7662 28.2649 22.6699 28.1823C22.381 27.9278 22.2022 27.632 22.0921 27.3844C22.0577 27.3018 22.0302 27.2262 22.0096 27.1643C22.0096 27.1436 22.0027 27.1367 21.9958 27.1161C21.9683 27.006 21.9477 26.9166 21.9408 26.8547C21.9339 26.7859 21.927 26.7515 21.927 26.7515V26.724V26.6965C21.927 26.6415 21.9064 26.5933 21.8789 26.5452C21.872 26.5314 21.8583 26.5177 21.8514 26.5039C21.8307 26.4764 21.8101 26.442 21.7895 26.4214C21.7757 26.4076 21.7551 26.4007 21.7344 26.387C21.7069 26.3732 21.6863 26.3526 21.6588 26.3388C21.6381 26.3319 21.6175 26.3319 21.59 26.325C21.5625 26.325 21.5281 26.3113 21.5005 26.3113C21.4386 26.3113 21.3836 26.325 21.3286 26.3457C21.2254 26.387 21.1429 26.4764 21.1016 26.5796C21.0809 26.6346 21.0672 26.6896 21.0672 26.7515C21.0672 26.7515 21.0672 26.8066 21.0672 26.9166C21.0672 26.9648 21.0672 27.0336 21.0809 27.1023C21.0878 27.1849 21.1016 27.2812 21.1222 27.3913C21.1429 27.4944 21.1704 27.6045 21.2116 27.7214C21.2392 27.7971 21.2736 27.8796 21.3079 27.9691C21.3561 28.0791 21.4111 28.1892 21.4799 28.3061C21.6037 28.5125 21.7619 28.7257 21.9683 28.939C22.1128 29.0766 22.2779 29.2141 22.4911 29.3379C22.7043 29.4549 22.9657 29.5581 23.289 29.5649C23.3028 29.5649 23.3165 29.5649 23.3303 29.5649C23.3716 29.5649 23.406 29.5581 23.4472 29.5512C23.4816 29.5512 23.516 29.5512 23.5504 29.5443C23.5986 29.5374 23.6467 29.5168 23.6949 29.503C23.7293 29.4962 23.7568 29.4893 23.7912 29.4755C23.8462 29.4549 23.8944 29.4274 23.9425 29.4067C23.97 29.393 23.9975 29.3861 24.0182 29.3723C24.0938 29.3311 24.1557 29.2829 24.2177 29.2279C24.3346 29.1316 24.424 29.0215 24.5066 28.9115C24.5478 28.8496 24.596 28.7945 24.6304 28.7326C24.6923 30.2115 24.8918 31.6974 25.1945 33.1557C25.3114 33.7404 25.449 34.3182 25.5934 34.8891C25.8135 35.749 26.0612 36.5882 26.3294 37.4136C26.866 39.0508 27.4782 40.5985 28.0904 41.9949C27.9941 41.9192 27.8909 41.8504 27.7946 41.7816L27.774 41.7747ZM47.4816 29.5581C47.5023 29.2829 47.5229 29.0009 47.5298 28.7257C47.633 28.9046 47.7637 29.0766 47.9425 29.221C48.0044 29.276 48.0732 29.3173 48.142 29.3586C48.1626 29.3723 48.1901 29.3792 48.2177 29.393C48.2658 29.4205 48.3208 29.4411 48.369 29.4618C48.4034 29.4755 48.4309 29.4824 48.4653 29.4893C48.5134 29.503 48.5616 29.5168 48.6097 29.5306C48.6441 29.5306 48.6785 29.5306 48.7129 29.5374C48.7542 29.5374 48.7955 29.5512 48.8299 29.5512C48.8436 29.5512 48.8574 29.5512 48.8711 29.5512C48.9537 29.5512 49.0294 29.5443 49.0981 29.5306C49.2426 29.503 49.3802 29.4618 49.4971 29.4067C49.559 29.3792 49.614 29.3517 49.6622 29.3242C49.7035 29.2967 49.7379 29.2692 49.7791 29.2485C49.9305 29.1453 50.068 29.0353 50.185 28.9252C50.2538 28.8564 50.3157 28.7808 50.3776 28.712C50.4945 28.5675 50.5908 28.4299 50.6734 28.2924C50.7422 28.1754 50.7972 28.0654 50.8453 27.9553C50.9348 27.7421 50.9967 27.5426 51.0311 27.3775C51.0723 27.1711 51.0861 27.0129 51.0861 26.9029C51.0861 26.8478 51.0861 26.8066 51.0861 26.779C51.0861 26.7515 51.0861 26.7378 51.0861 26.7378C51.0861 26.6827 51.0792 26.6277 51.0586 26.5796C51.0311 26.5108 50.9829 26.4489 50.921 26.4007C50.8591 26.3457 50.7834 26.3113 50.7009 26.2975C50.6871 26.2975 50.6665 26.2975 50.6527 26.2975C50.6252 26.2975 50.6046 26.3044 50.584 26.3113C50.5633 26.3113 50.5358 26.3113 50.5152 26.325C50.4808 26.3388 50.4533 26.3526 50.4257 26.3732C50.4051 26.387 50.3913 26.3938 50.3707 26.4076C50.3432 26.4282 50.3226 26.4626 50.3019 26.4901C50.2882 26.5039 50.2744 26.5177 50.2675 26.5314C50.24 26.5796 50.2263 26.6346 50.2194 26.6896V26.7378C50.2194 26.7378 50.2194 26.7447 50.2125 26.7653C50.2125 26.7859 50.2125 26.8066 50.2056 26.8478C50.2056 26.8616 50.2056 26.8891 50.1987 26.9097C50.185 26.9785 50.1712 27.0542 50.1437 27.1574C50.1024 27.2881 50.0337 27.46 49.9236 27.6389C49.8686 27.7283 49.8067 27.8177 49.731 27.914C49.6553 28.0035 49.5728 28.0929 49.4765 28.1823C49.4558 28.203 49.4283 28.2167 49.4008 28.2373C49.3251 28.2924 49.2495 28.3474 49.1669 28.3818C49.1188 28.4024 49.0706 28.4231 49.0225 28.43C49.0087 28.43 48.995 28.43 48.9812 28.43C48.9468 28.43 48.9124 28.4368 48.8849 28.4368C48.8505 28.4368 48.823 28.4231 48.7955 28.4093C48.768 28.3956 48.7404 28.3749 48.7061 28.3405C48.6373 28.2786 48.5685 28.1548 48.5066 27.9966C48.4447 27.8453 48.3965 27.6526 48.369 27.4463C48.3346 27.2399 48.314 27.0198 48.3002 26.7928C48.3002 26.7378 48.3002 26.6827 48.3002 26.6208C48.3002 26.5658 48.3002 26.5039 48.3002 26.4351V26.2356V26.1531V26.0705C48.314 26.0155 48.3208 25.9605 48.3208 25.9054C48.3208 25.8504 48.3277 25.7954 48.3415 25.7472C48.3552 25.6922 48.369 25.6441 48.3759 25.589C48.3896 25.534 48.3965 25.479 48.4171 25.4308C48.6648 24.5847 49.4214 23.8281 50.4395 23.4635C50.5564 23.4222 50.6803 23.3809 50.8041 23.3534C50.8453 23.3397 50.8866 23.3328 50.9279 23.3259C51.0104 23.3053 51.0999 23.2846 51.1824 23.2709C51.2306 23.264 51.2856 23.2571 51.3337 23.2502C51.4163 23.2434 51.492 23.2296 51.5745 23.2227C51.6295 23.2227 51.6777 23.2227 51.7327 23.2158C51.8015 23.2158 51.8772 23.2158 51.946 23.2158C52.0354 23.2158 52.1248 23.2227 52.2142 23.2296C52.2761 23.2296 52.338 23.2434 52.3999 23.2502C52.4894 23.264 52.5788 23.2778 52.6682 23.2984C52.7232 23.3121 52.7852 23.319 52.8402 23.3328C52.9365 23.3603 53.0328 23.3878 53.1291 23.4222C53.1772 23.436 53.2254 23.4497 53.2736 23.4704C53.418 23.5254 53.5556 23.5873 53.6863 23.6561C53.7344 23.6836 53.7826 23.718 53.8307 23.7455C54.0302 23.8625 54.2228 23.9931 54.4017 24.1445C54.5117 24.2408 54.6218 24.344 54.7181 24.454C54.8213 24.5641 54.9176 24.681 55.007 24.798C55.0964 24.9218 55.1858 25.0456 55.2615 25.1763C55.5023 25.5753 55.688 26.0155 55.8256 26.4833L55.9563 26.9579L56.0457 27.4532C56.0801 27.6183 56.0938 27.7833 56.1076 27.9416C56.1145 28.0241 56.1282 28.1066 56.1351 28.1823C56.142 28.2649 56.1489 28.3474 56.1489 28.4437L56.1695 29.0009V29.0697V29.0766V29.1041V29.2279L56.1558 29.4824C56.1558 29.8263 56.0938 30.1565 56.0595 30.4936C55.9632 30.9888 55.8462 31.4841 55.6742 31.9656C55.6192 32.1238 55.5573 32.2821 55.4885 32.4334C55.2134 33.0525 54.8832 33.6509 54.4842 34.2012C53.6863 35.3087 52.682 36.258 51.6295 37.0903C51.3681 37.2967 51.0999 37.503 50.8316 37.6956C50.295 38.0877 49.7447 38.4454 49.2013 38.7894C48.9262 38.9613 48.6579 39.1264 48.3896 39.2915C48.1214 39.4566 47.8531 39.6148 47.5848 39.773C46.8901 40.1858 46.2159 40.5778 45.5693 40.9631C45.4799 41.0181 45.3836 41.0731 45.2942 41.1281C45.0809 41.2588 44.8677 41.3964 44.6682 41.534C44.4619 41.6716 44.2624 41.816 44.0698 41.9605C45.6037 38.4592 47.1377 33.988 47.4748 29.5306L47.4816 29.5581ZM24.7061 68.6982C24.7129 68.6019 24.7405 68.5056 24.7748 68.4024C24.8092 68.2993 24.8643 68.2029 24.9262 68.0998C24.9606 68.0516 24.995 67.9966 25.0362 67.9484C25.1532 67.7971 25.3045 67.6389 25.4902 67.4944C25.7379 67.295 26.0474 67.1023 26.4189 66.9166C26.6046 66.8272 26.811 66.7378 27.0311 66.6552C27.2512 66.5727 27.4851 66.497 27.7396 66.4213C27.7396 66.4213 28.1936 65.4721 28.8746 64.9906C29.1016 64.8324 29.3561 64.7292 29.6312 64.7292C29.6312 64.7292 33.2151 62.4936 33.2151 57.589C33.2151 54.8306 32.9537 52.1961 32.7198 50.4214C32.541 49.0387 32.3828 48.1789 32.3828 48.1789C32.3828 48.1789 32.2177 47.9175 31.9356 47.4428C31.8256 47.2502 31.6949 47.0232 31.5435 46.7687C31.3991 46.5142 31.234 46.2184 31.062 45.902C30.3742 44.6294 29.4937 42.8891 28.6476 40.8736C28.5444 40.6191 28.4343 40.3646 28.3312 40.1032C26.8591 36.4575 25.5521 32.0138 25.5521 27.7696C25.5521 24.4815 25.8204 21.9983 25.8204 21.9983C25.8204 21.9983 26.3363 21.8607 27.8772 21.73C28.1661 21.7025 28.4894 21.6819 28.8539 21.6544C29.3423 21.62 29.8926 21.5925 30.5255 21.5649C30.8419 21.5512 31.179 21.5374 31.5367 21.5237C32.0732 21.503 32.651 21.4893 33.2839 21.4824C34.1231 21.4686 35.0517 21.4618 36.0766 21.4618C38.381 21.4618 40.197 21.503 41.6209 21.5649C42.2538 21.5925 42.811 21.62 43.2925 21.6544C43.657 21.6819 43.9803 21.7025 44.2693 21.73C45.8101 21.8676 46.326 21.9983 46.326 21.9983C46.326 21.9983 46.326 22.0258 46.3329 22.0809L26.013 22.5417L40.0182 22.8582C40.3759 24.0275 41.4627 28.4506 40.4928 36.5538C40.4309 37.0972 40.3552 37.6475 40.2727 38.2253C40.0113 40.0482 39.7568 41.5821 39.5229 42.8547C39.0139 45.6612 38.6012 47.2227 38.4223 47.8625L32.596 48.2133L38.2847 48.5572C38.2297 49.1901 38.1128 50.6346 38.0027 52.3749C37.8582 54.6105 37.7138 57.3414 37.7138 59.46C37.7138 61.5787 38.1128 62.8513 38.5324 63.6423C38.6424 63.8556 38.7594 64.0344 38.8694 64.1789C38.9382 64.2752 39.007 64.3577 39.0758 64.4265L30.1196 64.7498L40.3759 65.1213C40.4722 65.1763 40.5685 65.2313 40.6648 65.3001C40.9468 65.4996 41.1944 65.761 41.3045 66.0843L28.1661 66.4489L42.185 66.841C42.2469 66.8891 42.3019 66.9441 42.3638 66.9992C42.7903 67.4188 43.2237 68.1548 43.4025 69.4342L34.5771 69.8263L40.6097 70.0946H26.7422C26.6596 70.0946 26.5771 70.0946 26.4945 70.0877C26.3363 70.0809 26.185 70.0602 26.0474 70.0327C25.9786 70.0189 25.9098 70.0052 25.8479 69.9845C25.0706 69.7713 24.651 69.276 24.7061 68.6982ZM49.2426 39.0989C49.4283 38.982 49.6072 38.865 49.786 38.7412C49.9717 38.6174 50.1506 38.4936 50.3432 38.3698C50.5289 38.2459 50.7147 38.1084 50.9004 37.9777C51.0861 37.847 51.2718 37.7094 51.4507 37.5718C51.6295 37.4342 51.8153 37.2967 51.9941 37.1591C52.1661 37.0146 52.3449 36.8702 52.5169 36.7257C52.6957 36.5882 52.8539 36.4299 53.0122 36.2855C53.1704 36.1342 53.3423 35.9966 53.4868 35.8453C53.7826 35.5357 54.0852 35.2537 54.326 34.951C54.4498 34.7997 54.5736 34.6552 54.6975 34.5177C54.8075 34.3732 54.9107 34.2287 55.0139 34.0912C55.1239 33.9536 55.2134 33.8229 55.2959 33.6922C55.3785 33.5615 55.4541 33.4377 55.5298 33.3139C55.6054 33.1969 55.6742 33.0869 55.7361 32.9837C55.7912 32.8736 55.8393 32.7773 55.8875 32.6879C56.0732 32.3302 56.1764 32.1238 56.1764 32.1238C56.1764 32.1238 56.1351 32.2477 56.0595 32.4678C56.0319 32.5434 56.0044 32.626 55.97 32.7223C55.9356 32.8186 55.9012 32.9218 55.86 33.0387C55.8049 33.1488 55.7499 33.2657 55.688 33.3964C55.6261 33.5271 55.5573 33.6578 55.4885 33.8023C55.4266 33.9467 55.3234 34.0843 55.234 34.2356C55.1446 34.387 55.0483 34.5383 54.9451 34.7034C54.835 34.8616 54.7181 35.0129 54.5943 35.1711C54.3604 35.5013 54.0715 35.8109 53.7757 36.1342C53.6312 36.2993 53.4662 36.4437 53.3011 36.6088C53.136 36.767 52.9778 36.9321 52.7989 37.0697C52.6269 37.221 52.4481 37.3655 52.2692 37.5168C52.0904 37.6612 51.9047 37.8057 51.719 37.9433C51.5332 38.0877 51.3475 38.2184 51.1549 38.3491C50.9623 38.4798 50.7766 38.6174 50.584 38.7412C50.1987 38.9888 49.8204 39.2296 49.4421 39.4497C49.0706 39.6767 48.6992 39.8762 48.3552 40.0688C48.1833 40.1651 48.0113 40.2545 47.8462 40.344C47.6811 40.4334 47.5229 40.5159 47.3647 40.5916C46.5943 40.9837 45.9752 41.2864 45.6244 41.4514C45.4111 41.5546 45.2942 41.6097 45.2942 41.6097C45.2942 41.6097 45.4868 41.479 45.817 41.252C45.9821 41.1419 46.1884 41.0043 46.4292 40.853C46.6631 40.7017 46.9313 40.5297 47.2271 40.3508C47.3716 40.2614 47.5229 40.1651 47.6811 40.0619C48.1557 39.7661 48.6785 39.4428 49.2151 39.092L49.2426 39.0989ZM48.6235 23.209C48.6854 23.1471 48.7748 23.0508 48.8987 22.9476C49.0225 22.8444 49.1807 22.7206 49.3802 22.6036C49.5728 22.4798 49.8135 22.3698 50.0749 22.2666C50.3432 22.1703 50.639 22.074 50.9623 22.0258C51.2856 21.9708 51.6295 21.9295 51.9872 21.9433C52.3449 21.957 52.7164 21.9845 53.0878 22.074C53.4524 22.1634 53.8238 22.2803 54.1747 22.4454C54.5186 22.6174 54.8488 22.8169 55.1515 23.0508C55.4472 23.2846 55.7155 23.546 55.9425 23.8281C56.0044 23.8968 56.0526 23.9656 56.1076 24.0344C56.1626 24.1032 56.2108 24.1789 56.2589 24.2477C56.3002 24.3233 56.3484 24.3921 56.3896 24.4678C56.4309 24.5366 56.4722 24.6122 56.5135 24.681C56.6717 24.9699 56.7886 25.252 56.878 25.5202C56.8987 25.589 56.9193 25.6509 56.9399 25.7197C56.9606 25.7816 56.9812 25.8435 56.995 25.9054C57.0225 26.0293 57.05 26.1462 57.0775 26.2563C57.0981 26.3663 57.1188 26.4764 57.1325 26.5727C57.1463 26.669 57.16 26.7584 57.1738 26.841C57.2013 27.1643 57.2151 27.35 57.2151 27.35C57.2151 27.35 57.1669 27.1711 57.0844 26.8616C57.0569 26.7859 57.0294 26.7034 57.0018 26.6071C56.9743 26.5108 56.9399 26.4145 56.9055 26.3113C56.8299 26.1049 56.7336 25.871 56.6235 25.6234C56.5685 25.4996 56.4997 25.3758 56.4309 25.252C56.3621 25.1281 56.2864 24.9974 56.2039 24.8668C56.1626 24.798 56.1214 24.7361 56.0732 24.6741C56.0251 24.6122 55.9769 24.5503 55.9356 24.4815C55.8324 24.3577 55.7361 24.227 55.6192 24.1101C55.5092 23.9863 55.3922 23.8693 55.2615 23.7524C55.1377 23.6423 55.0001 23.5323 54.8625 23.4222C54.5874 23.2158 54.2779 23.037 53.9614 22.8857C53.8032 22.81 53.6381 22.7412 53.473 22.6862C52.9778 22.5073 52.4619 22.411 51.9666 22.3766C51.6364 22.3491 51.3131 22.3629 51.0104 22.3904C50.8591 22.4042 50.7078 22.4248 50.5702 22.4523C50.4257 22.4798 50.295 22.5073 50.1575 22.5417C49.903 22.6174 49.6622 22.6931 49.4627 22.7825C49.2632 22.865 49.0913 22.9545 48.9537 23.037C48.8849 23.0783 48.823 23.1127 48.768 23.1471C48.7198 23.1815 48.6717 23.2158 48.6373 23.2365C48.5685 23.2846 48.5272 23.3122 48.5272 23.3122C48.5272 23.3122 48.5616 23.2778 48.6166 23.2158L48.6235 23.209ZM24.0388 40.6741C23.8049 40.5503 23.5573 40.4196 23.289 40.2683C22.7594 39.9725 22.1609 39.6355 21.5281 39.2296C20.2624 38.4317 18.8247 37.393 17.5246 36.0035C16.878 35.3087 16.2933 34.5108 15.8049 33.6372C15.3303 32.7567 14.9726 31.7868 14.8006 30.7756C14.7594 30.5211 14.7181 30.2735 14.6975 30.0189C14.6699 29.7644 14.6631 29.5099 14.6562 29.2554C14.6493 28.7533 14.6768 28.2442 14.7387 27.749C14.7662 27.5013 14.8075 27.2537 14.8557 27.0129C15.0001 26.2838 15.2409 25.5753 15.5848 24.9424C15.9219 24.3096 16.369 23.7455 16.878 23.2984C17.05 23.1471 17.2288 23.0164 17.4077 22.8925C17.7723 22.6449 18.1575 22.4592 18.5496 22.3147C18.9417 22.1772 19.3337 22.0877 19.7121 22.0465C20.4756 21.9639 21.1772 22.0465 21.7688 22.2322C22.3604 22.411 22.8282 22.6862 23.1721 22.9613C23.4335 23.1677 23.6192 23.3741 23.7499 23.546C23.7912 23.6011 23.8325 23.6561 23.8668 23.7042C23.9012 23.7524 23.9288 23.7937 23.9494 23.8349C23.97 23.8693 23.9907 23.9037 24.0044 23.9312C24.0182 23.9588 24.0319 23.9794 24.0388 23.9931C24.0457 24.0069 24.0526 24.0138 24.0526 24.0138C24.0526 24.0138 24.0388 23.9863 24.0044 23.9381C23.97 23.89 23.9219 23.8143 23.8531 23.718C23.743 23.5804 23.5917 23.4016 23.3716 23.2158C23.2959 23.1539 23.2202 23.092 23.1308 23.0301C22.78 22.7756 22.3122 22.528 21.7344 22.3835C21.1566 22.2322 20.4756 22.1772 19.7533 22.2872C19.5745 22.3147 19.3888 22.3491 19.2099 22.3973C18.6596 22.5417 18.1093 22.7894 17.6003 23.1539C17.0913 23.5116 16.6373 23.9863 16.2727 24.5434C16.1489 24.7292 16.0388 24.9218 15.9356 25.1281C15.8325 25.3276 15.743 25.5409 15.6605 25.7541C15.4129 26.4007 15.2615 27.0955 15.179 27.8109C15.0758 28.7601 15.1033 29.7507 15.2753 30.7068C15.3165 30.9476 15.3716 31.1815 15.4335 31.4153C15.6261 32.117 15.9081 32.7911 16.2383 33.4239C16.3552 33.6372 16.4722 33.8435 16.6029 34.043C16.9812 34.6484 17.4146 35.2055 17.8754 35.7146C18.4945 36.3956 19.148 37.0078 19.7946 37.5443C19.9597 37.6819 20.1179 37.8126 20.283 37.9364C20.7714 38.3216 21.2529 38.6655 21.7069 38.982C21.8582 39.0851 22.0096 39.1883 22.1609 39.2915C22.3054 39.3878 22.4567 39.4841 22.5943 39.5804C23.0208 39.8625 23.4197 40.1101 23.7774 40.3371C23.8944 40.4128 24.0113 40.4815 24.1282 40.5503C24.3484 40.6879 24.5547 40.8117 24.7473 40.9287C24.9331 41.0387 25.0981 41.1419 25.2426 41.2313C25.3871 41.3207 25.5109 41.3964 25.6072 41.4583C25.8067 41.5821 25.9098 41.6509 25.9098 41.6509C25.9098 41.6509 25.8823 41.6372 25.8273 41.6097C25.7723 41.5821 25.6966 41.5409 25.5865 41.4858C25.3802 41.3827 25.0706 41.2244 24.6854 41.025C24.4928 40.9218 24.2796 40.8117 24.0457 40.6879L24.0388 40.6741Z" fill="#999999"/>
<path d="M28.6955 39.0371C28.5648 38.6863 28.441 38.3355 28.3103 37.9778C28.1934 37.6201 28.0696 37.2555 27.9526 36.8909C27.8357 36.5263 27.7256 36.1618 27.6225 35.7903C27.3886 35.0612 27.2166 34.3114 27.0309 33.5754C26.8727 32.8393 26.7076 32.1102 26.6113 31.3948C26.5769 31.2159 26.5494 31.044 26.5287 30.8651C26.5012 30.6932 26.4806 30.5143 26.4599 30.3492C26.4187 30.0053 26.3843 29.6682 26.343 29.3449C26.3155 29.0147 26.3086 28.6914 26.288 28.3819C26.2742 28.0655 26.2536 27.7766 26.2536 27.4876C26.2536 27.1987 26.2536 26.9236 26.2536 26.6622C26.2536 26.0018 26.2536 25.4309 26.2605 24.9631C26.2605 24.8668 26.2605 24.7843 26.2605 24.6949C26.2605 24.6123 26.2605 24.5298 26.2605 24.4541C26.2605 24.3784 26.2605 24.3097 26.2605 24.2409C26.2673 23.8488 26.2742 23.6287 26.2742 23.6287C26.2742 23.6287 26.2329 24.0139 26.1779 24.688C26.1779 24.7705 26.1642 24.86 26.1573 24.9563C26.1435 25.142 26.1298 25.3484 26.116 25.5685C26.0816 26.1188 26.0472 26.7654 26.0335 27.4876C26.0197 27.7766 26.0335 28.0861 26.0335 28.3956C26.0335 28.5539 26.0335 28.7121 26.0403 28.8703C26.0403 29.0285 26.0403 29.1936 26.0541 29.3587C26.0679 29.5238 26.0816 29.6957 26.0954 29.8677C26.1091 30.0397 26.1229 30.2116 26.1366 30.3836C26.1642 30.7344 26.2054 31.0921 26.2673 31.4498C26.3568 32.1721 26.515 32.9081 26.6663 33.6579C26.7557 34.0294 26.8452 34.4008 26.9346 34.7791C27.0309 35.1506 27.1272 35.5289 27.2372 35.9004C27.4505 36.6433 27.705 37.3793 27.9526 38.0947C28.2209 38.8101 28.4754 39.5117 28.7575 40.179C28.895 40.516 29.0257 40.8462 29.1771 41.1626C29.3215 41.479 29.4522 41.7955 29.6035 42.0913C29.748 42.3939 29.8856 42.6828 30.0163 42.9649C30.1538 43.2469 30.2914 43.5152 30.4221 43.7766C30.5528 44.0379 30.6835 44.2787 30.8073 44.5126C30.9311 44.7465 31.055 44.9666 31.165 45.1729C31.392 45.5857 31.5984 45.9434 31.7704 46.2323C31.8116 46.3079 31.8529 46.3767 31.8942 46.4386C32.0111 46.6312 32.1074 46.7895 32.1762 46.9064C32.2725 47.0577 32.3206 47.1403 32.3206 47.1403C32.3206 47.1403 32.2931 47.0921 32.245 47.0027C32.2106 46.9408 32.1693 46.8582 32.1212 46.7619C32.073 46.6656 32.0111 46.5487 31.9423 46.4111C31.9079 46.3423 31.8735 46.2735 31.8323 46.1979C31.791 46.1222 31.7497 46.0465 31.7084 45.964C31.6259 45.7989 31.5296 45.6132 31.4333 45.4206C31.3851 45.3243 31.337 45.2211 31.282 45.1179C31.0825 44.6914 30.8486 44.2168 30.601 43.694C30.4771 43.4326 30.3533 43.1575 30.2226 42.8754C30.0988 42.5934 29.9681 42.2976 29.8374 41.995C29.6998 41.6923 29.5829 41.3759 29.4453 41.0526C29.3146 40.7293 29.1771 40.406 29.0464 40.0689C28.9088 39.7318 28.7781 39.3948 28.6543 39.044L28.6955 39.0371Z" fill="#999999"/>
<path d="M30.5869 64.3372C30.5869 64.3372 30.6351 64.296 30.7314 64.2272C30.7795 64.1928 30.8345 64.1446 30.9033 64.0896C30.9721 64.0346 31.0478 63.9658 31.1303 63.8901C31.2954 63.7388 31.4949 63.5462 31.7013 63.3123C31.9145 63.0784 32.1346 62.8033 32.3548 62.48C32.4579 62.3149 32.568 62.1429 32.6781 61.9641C32.7812 61.7852 32.8913 61.5926 32.9807 61.3862C33.0358 61.2899 33.077 61.1868 33.1252 61.0767C33.1665 60.9735 33.2146 60.8635 33.2628 60.7534C33.3453 60.5333 33.421 60.3063 33.4898 60.0724C33.5173 59.9555 33.5517 59.8316 33.5861 59.7147C33.6204 59.5909 33.648 59.4739 33.6686 59.3501C33.6892 59.2263 33.7168 59.1025 33.7374 58.9787C33.758 58.8549 33.7649 58.7242 33.7787 58.5935C33.7993 58.4628 33.8062 58.3321 33.8131 58.2083C33.8199 58.0776 33.8268 57.9537 33.8268 57.823V57.6304C33.8337 57.5548 33.8337 57.4997 33.8337 57.431V57.0457C33.8199 56.0139 33.7649 54.989 33.6824 54.026C33.6411 53.5445 33.5929 53.0836 33.5448 52.6433C33.5173 52.4232 33.4897 52.21 33.4622 52.0036C33.4347 51.7972 33.4072 51.5978 33.3866 51.4052C33.3384 51.02 33.2765 50.676 33.2284 50.3665C33.1733 50.0569 33.1252 49.7887 33.0839 49.5685C33.022 49.2383 32.9738 49.0114 32.9532 48.9219C32.9532 48.8944 32.9463 48.8738 32.9463 48.8738C32.9463 48.8738 32.9463 48.9357 32.967 49.0595C32.967 49.1214 32.9807 49.1902 32.9876 49.2796C32.9945 49.369 33.0082 49.4654 33.0151 49.5754C33.0289 49.6855 33.0426 49.8093 33.0564 49.9469C33.0701 50.0844 33.0839 50.2289 33.0977 50.3802C33.1252 50.6898 33.1527 51.0406 33.194 51.4258C33.249 51.9967 33.2903 52.6433 33.3384 53.3381C33.3522 53.5651 33.3659 53.8058 33.3797 54.0397C33.4072 54.5212 33.4278 55.0165 33.4485 55.5187C33.4691 56.0208 33.4829 56.5298 33.4829 57.0457V57.431V57.6167V57.8093C33.4691 58.0638 33.4622 58.3183 33.4347 58.5591C33.4141 58.7998 33.3797 59.0475 33.3384 59.2882C33.2971 59.529 33.2421 59.7629 33.1871 59.9899C33.0633 60.4439 32.9257 60.8841 32.7468 61.2762C32.5818 61.682 32.3823 62.0397 32.1897 62.363C31.9902 62.6863 31.7907 62.9752 31.605 63.2229C31.5087 63.3467 31.4192 63.4568 31.3367 63.5599C31.2473 63.6631 31.1647 63.7525 31.0891 63.8351C30.7864 64.1653 30.5938 64.3372 30.5938 64.3372H30.5869Z" fill="#999999"/>
<path d="M40.534 31.1058C40.5409 30.4042 40.5203 29.7301 40.4859 29.0904C40.4584 28.4506 40.4033 27.8453 40.3483 27.295C40.3208 27.0198 40.2864 26.7516 40.252 26.4971C40.1488 25.7404 40.025 25.1076 39.9218 24.626C39.853 24.3096 39.7911 24.062 39.743 23.89C39.7086 23.7662 39.6879 23.6836 39.6742 23.6493C39.6742 23.6355 39.6742 23.6355 39.6742 23.6355C39.6742 23.6355 39.7017 23.78 39.743 24.0413C39.7705 24.1996 39.798 24.399 39.8324 24.6398C39.8943 25.0388 39.9493 25.5478 39.9975 26.1462C40.025 26.5039 40.0525 26.896 40.0731 27.3088C40.1007 27.8591 40.1213 28.4644 40.1282 29.0972C40.135 29.7301 40.1282 30.4042 40.1075 31.0921C40.0938 31.7868 40.0456 32.4953 40.0044 33.2245C39.9837 33.5891 39.9562 33.9536 39.9218 34.3182C39.8874 34.6828 39.853 35.0542 39.8186 35.4188C39.7774 35.7834 39.743 36.1548 39.7017 36.5194C39.6604 36.884 39.6191 37.2486 39.5641 37.6063C39.4747 38.3285 39.3715 39.0439 39.2752 39.7249C39.1307 40.7567 38.9794 41.7335 38.8418 42.6209C38.7937 42.9167 38.7524 43.2056 38.7043 43.4738C38.6836 43.6114 38.663 43.7421 38.6355 43.8797C38.5736 44.2718 38.5117 44.6364 38.4498 44.9734C38.4291 45.0835 38.4154 45.1935 38.3947 45.2967C38.3603 45.5031 38.3259 45.6957 38.2915 45.8745C38.2778 45.964 38.2571 46.0465 38.2434 46.129C38.1677 46.528 38.1127 46.8169 38.0783 46.982C38.0577 47.0783 38.0508 47.1333 38.0508 47.1333C38.0508 47.1333 38.0508 47.1333 38.0508 47.1196C38.0508 47.1058 38.0577 47.0921 38.0645 47.0714C38.0783 47.0302 38.0989 46.9614 38.1196 46.8788C38.1333 46.8376 38.1471 46.7894 38.1608 46.7413C38.1884 46.6381 38.2296 46.5143 38.264 46.3767C38.2847 46.3079 38.3053 46.2322 38.3259 46.1566C38.3672 45.9984 38.4154 45.8264 38.4635 45.6338C38.608 45.0628 38.7868 44.3543 38.9657 43.5358C39.0826 42.9923 39.2064 42.4008 39.3234 41.7748C39.4403 41.1488 39.5641 40.4885 39.6811 39.8006C39.7911 39.1127 39.9218 38.4042 40.0112 37.6751C40.1213 36.9528 40.2038 36.2099 40.2864 35.467C40.3552 34.7241 40.4171 33.9812 40.4515 33.252C40.4721 32.8874 40.4859 32.5229 40.4996 32.1652C40.5065 31.8075 40.5134 31.4498 40.5134 31.099L40.534 31.1058Z" fill="#999999"/>
<path d="M38.1065 63.835C38.1065 63.835 38.1065 63.8212 38.0859 63.7937C38.0721 63.7662 38.0515 63.7318 38.0308 63.6837C38.0102 63.6355 37.9827 63.5736 37.9483 63.4979C37.9208 63.4223 37.8864 63.3397 37.8451 63.2434C37.6938 62.8651 37.5493 62.301 37.453 61.6131C37.4324 61.4412 37.4118 61.2623 37.3911 61.0766C37.3774 60.8909 37.3636 60.6983 37.3498 60.4988C37.3292 60.1067 37.3292 59.6802 37.3361 59.2469C37.343 58.8135 37.3567 58.3595 37.3705 57.8986C37.3842 57.4377 37.4049 56.9769 37.4255 56.5091C37.453 55.8075 37.4805 55.1127 37.5149 54.4386C37.5631 53.3174 37.6044 52.258 37.6388 51.3844C37.6594 50.8616 37.6731 50.4008 37.6869 50.0293C37.6869 49.9055 37.6938 49.7954 37.7007 49.6923C37.7007 49.5891 37.7007 49.4996 37.7007 49.4171C37.7007 49.1763 37.7075 49.0457 37.7075 49.0457C37.7075 49.0457 37.7007 49.1007 37.6869 49.2107C37.6731 49.3208 37.6525 49.479 37.625 49.6785C37.5768 50.0843 37.5012 50.6622 37.4324 51.3638C37.4118 51.5358 37.398 51.7215 37.3774 51.9072C37.3567 52.0929 37.343 52.2924 37.3223 52.4919C37.2879 52.8909 37.2535 53.3105 37.2192 53.7507C37.1848 54.1841 37.1572 54.6381 37.1297 55.099C37.1022 55.5598 37.0816 56.0276 37.0609 56.4953C37.0472 56.9631 37.0334 57.4309 37.0197 57.8917C37.0059 58.3526 37.0128 58.8066 37.0197 59.2469C37.0197 59.6871 37.0403 60.1136 37.0816 60.5194C37.116 60.9253 37.1779 61.3036 37.2467 61.6475C37.3911 62.3423 37.6044 62.8995 37.7832 63.2641C37.8726 63.4498 37.9552 63.5874 38.0102 63.6837C38.0721 63.7731 38.0996 63.8281 38.0996 63.8281L38.1065 63.835Z" fill="#999999"/>
<path d="M45.0809 57.6855C45.3147 57.1214 45.4042 56.461 45.4936 55.8213C45.5761 55.1816 45.6656 54.5487 45.8788 54.0535C45.0877 54.2461 44.2898 54.7001 43.822 55.5806C43.3543 56.461 43.2786 57.8161 43.2305 59.1231C44.0078 59.1025 44.73 58.5315 45.0809 57.6786V57.6855Z" fill="#999999"/>
<path d="M47.1785 60.9872C46.6901 60.5745 46.2086 60.1136 45.6927 59.804C44.9016 59.3432 44.0487 59.24 43.292 59.5358C43.7873 60.7327 44.5233 61.9158 45.562 62.3423C46.5938 62.7757 47.8388 62.5005 48.7881 61.9365C48.1965 61.792 47.6738 61.3999 47.1854 60.9803L47.1785 60.9872Z" fill="#999999"/>
<path d="M48.8984 56.0895C49.0566 55.5117 49.0635 54.872 49.0635 54.246C49.0635 53.62 49.0635 53.0147 49.2148 52.4988C48.4719 52.829 47.7427 53.4068 47.3782 54.3354C47.0205 55.264 47.103 56.5779 47.2681 57.8229C48.0316 57.6372 48.6645 56.97 48.9052 56.0895H48.8984Z" fill="#999999"/>
<path d="M53.0734 59.4393C52.4818 59.4187 51.9109 59.1366 51.3812 58.834C50.8516 58.5313 50.3219 58.1805 49.7716 57.9879C48.9393 57.699 48.0794 57.754 47.3984 58.1874C48.0726 59.2123 48.9324 60.196 49.9848 60.4161C51.0373 60.65 52.2136 60.1547 53.0734 59.4324V59.4393Z" fill="#999999"/>
<path d="M51.2985 51.2398C51.1678 51.4186 51.044 51.5975 50.9408 51.8038C50.8376 52.0102 50.7689 52.2372 50.707 52.4711C50.48 53.4135 50.7345 54.6516 51.0509 55.8004C51.78 55.484 52.3028 54.7135 52.4198 53.8399C52.5023 53.2621 52.4129 52.643 52.3235 52.0583C52.2409 51.4736 52.1584 50.889 52.2134 50.373C51.8901 50.6138 51.553 50.889 51.2916 51.2466L51.2985 51.2398Z" fill="#999999"/>
<path d="M54.8487 57.6234C55.1101 57.5409 55.3784 57.4377 55.6191 57.2864C56.1075 56.9906 56.5753 56.6054 56.9398 56.1514C56.362 56.2683 55.7705 56.1239 55.2064 55.945C54.6423 55.7662 54.092 55.5529 53.5211 55.4773C52.6681 55.3672 51.8496 55.6011 51.2305 56.1376C52.0284 56.9837 52.9914 57.7541 54.0576 57.7541C54.3259 57.7541 54.5873 57.706 54.8487 57.6303V57.6234Z" fill="#999999"/>
<path d="M55.2342 52.1893C55.413 51.811 55.5093 51.3914 55.4887 50.9512C55.468 50.3734 55.3098 49.823 55.1241 49.2727C54.9453 48.7293 54.7733 48.1928 54.7595 47.6975C54.622 47.8488 54.4775 48.0002 54.3537 48.179C54.223 48.351 54.1267 48.5436 54.0166 48.7362C53.8034 49.1145 53.6864 49.5685 53.6383 50.0363C53.5695 50.9856 53.9891 52.0999 54.4637 53.1317C54.7939 52.9047 55.0622 52.5814 55.2342 52.1962V52.1893Z" fill="#999999"/>
<path d="M57.6551 54.3077C58.1779 54.1977 58.6526 53.8812 59.0928 53.496C59.3198 53.3034 59.5055 53.0696 59.6912 52.8357C59.8701 52.5949 60.0421 52.3542 60.1865 52.0928C59.6431 52.3335 59.0515 52.3404 58.4943 52.306C57.9372 52.2785 57.3525 52.1822 56.809 52.251C56.3963 52.306 55.9974 52.423 55.6328 52.6156C55.282 52.815 54.9587 53.0696 54.6973 53.3929C55.5846 54.0257 56.6371 54.5554 57.662 54.3077H57.6551Z" fill="#999999"/>
<path d="M56.4988 48.4266C56.7327 48.8943 57.0353 49.3552 57.3449 49.7954C57.6132 49.4859 57.8126 49.1144 57.9227 48.7155C58.019 48.3027 58.0328 47.8694 57.9571 47.4635C57.8608 46.927 57.5788 46.4111 57.3311 45.9364C57.0766 45.4618 56.8359 44.9872 56.7258 44.4988C56.6157 44.6776 56.5332 44.8771 56.43 45.0697C56.3337 45.2692 56.258 45.4756 56.1961 45.6888C56.093 46.129 55.9967 46.5555 56.0586 47.0302C56.1136 47.5048 56.2649 47.9588 56.4988 48.4266Z" fill="#999999"/>
<path d="M61.775 49.011C61.9401 48.7634 62.0914 48.502 62.229 48.2337C62.3735 47.9654 62.4629 47.6765 62.5523 47.4014C62.0983 47.7728 61.5411 47.9173 61.0046 48.0205C60.4612 48.1168 59.9315 48.1993 59.4087 48.385C59.0166 48.5295 58.6589 48.7496 58.3632 49.0248C58.0467 49.293 57.7785 49.6163 57.5996 49.9947C58.0674 50.1873 58.5764 50.3455 59.0785 50.3936C59.5807 50.4418 60.1035 50.3936 60.5575 50.1391C61.0046 49.8846 61.4586 49.4994 61.7819 49.0041L61.775 49.011Z" fill="#999999"/>
<path d="M57.8822 41.4925C57.8272 41.7126 57.779 41.9327 57.7584 42.1597C57.7309 42.3867 57.7446 42.6206 57.7446 42.8407C57.7446 43.0677 57.7859 43.2879 57.841 43.5149C58.0955 44.4091 58.7696 45.1795 59.5056 45.8743C59.7051 45.5097 59.8564 45.1176 59.8702 44.6911C59.8977 44.2715 59.8427 43.8519 59.7051 43.4736C59.5125 42.9646 59.1754 42.5381 58.8659 42.1322C58.5563 41.7264 58.2537 41.3205 58.0748 40.8528C57.9992 41.0591 57.951 41.2793 57.8891 41.4994L57.8822 41.4925Z" fill="#999999"/>
<path d="M63.1096 44.8428C63.2816 44.6158 63.3985 44.3544 63.5154 44.0793C63.6324 43.8041 63.7287 43.5221 63.8112 43.2332C63.9007 42.9443 63.935 42.6485 63.9694 42.3665C63.6186 42.8205 63.1233 43.0818 62.635 43.302C62.1466 43.5221 61.6582 43.7147 61.2179 44.0242C60.874 44.2512 60.5713 44.547 60.3375 44.891C60.1105 45.2349 59.8903 45.5995 59.7803 46.0122C60.7227 46.1567 61.8095 46.1429 62.5799 45.4413C62.7725 45.2693 62.9514 45.0629 63.1165 44.8359L63.1096 44.8428Z" fill="#999999"/>
<path d="M58.6937 38.2665C58.7144 38.5073 58.7212 38.7274 58.7694 38.9544C58.8107 39.1814 58.8795 39.4015 58.9689 39.6079C59.3403 40.4471 60.0832 41.0524 60.8881 41.5683C61.0188 41.1693 61.0807 40.7429 61.0394 40.3301C60.9912 39.9105 60.8743 39.5116 60.6886 39.1607C60.4478 38.7067 60.0695 38.3491 59.7118 37.9982C59.3541 37.6474 59.0101 37.2966 58.8038 36.8701C58.7144 37.3172 58.6662 37.7988 58.7006 38.2665H58.6937Z" fill="#999999"/>
<path d="M61.1562 41.644C62.0505 41.5684 63.0685 41.3207 63.667 40.4884C63.8183 40.282 63.949 40.0481 64.0591 39.7936C64.1691 39.5391 64.2723 39.264 64.3274 38.9819C64.4443 38.4179 64.4993 37.8126 64.4924 37.2554C64.2035 37.7575 63.7977 38.1015 63.385 38.411C62.9722 38.7205 62.5526 39.0026 62.1743 39.3947C61.8923 39.6905 61.6653 40.0413 61.5002 40.4265C61.3282 40.8117 61.1975 41.2175 61.1562 41.644Z" fill="#999999"/>
<path d="M60.9847 34.7101C60.6752 34.2974 60.2899 34.0154 59.9185 33.7333C59.5608 33.4513 59.1756 33.1761 58.8936 32.8047C58.8936 33.0248 58.9142 33.2518 58.928 33.4788C58.9348 33.7127 58.9623 33.9397 58.9967 34.1667C59.0724 34.6207 59.2513 35.0472 59.4439 35.4461C59.8635 36.2234 60.7027 36.6981 61.5075 37.0558C61.5694 36.643 61.5419 36.2097 61.4593 35.8038C61.3768 35.398 61.2186 35.0196 60.9778 34.7101H60.9847Z" fill="#999999"/>
<path d="M63.9357 35.5082C64.1833 35.068 64.2727 34.497 64.3278 33.9123C64.3484 33.6165 64.3553 33.3208 64.3415 33.025C64.3209 32.7292 64.2659 32.4334 64.2108 32.1514C64.0457 32.7085 63.7362 33.1281 63.3854 33.5065C63.0414 33.8848 62.6769 34.2425 62.4017 34.6896C62.2022 35.0267 62.0234 35.4119 61.9133 35.8177C61.8033 36.2236 61.762 36.6501 61.7895 37.0766C62.6218 36.8358 63.4748 36.4093 63.9426 35.5082H63.9357Z" fill="#999999"/>
<path d="M27.0099 57.6854C27.3607 58.5315 28.0898 59.1093 28.8602 59.13C28.8121 57.823 28.7295 56.461 28.2687 55.5874C27.8009 54.7069 27.0099 54.2598 26.2119 54.0603C26.4252 54.5556 26.5146 55.1884 26.5971 55.8281C26.6797 56.4679 26.7691 57.1214 27.0099 57.6923V57.6854Z" fill="#999999"/>
<path d="M26.5357 62.3491C27.5744 61.9158 28.3035 60.7395 28.8057 59.5426C28.049 59.2468 27.2029 59.35 26.405 59.8109C25.8822 60.1135 25.4076 60.5744 24.9192 60.994C24.4308 61.4136 23.9011 61.8057 23.3164 61.9502C24.2657 62.5142 25.5039 62.7894 26.5425 62.356L26.5357 62.3491Z" fill="#999999"/>
<path d="M23.1992 56.0895C23.4399 56.9631 24.0659 57.6303 24.8363 57.8229C25.0014 56.5779 25.0771 55.264 24.7263 54.3354C24.3617 53.4137 23.6394 52.8358 22.8896 52.4988C23.0341 53.0147 23.041 53.62 23.041 54.246C23.041 54.872 23.041 55.5117 23.2061 56.0895H23.1992Z" fill="#999999"/>
<path d="M22.1061 60.4161C23.1586 60.196 24.0184 59.2123 24.6926 58.1874C24.0116 57.754 23.1517 57.6921 22.3194 57.9879C21.7691 58.1805 21.2394 58.5313 20.7098 58.834C20.1801 59.1367 19.6092 59.4187 19.0176 59.4393C19.8774 60.1616 21.0537 60.65 22.1061 60.423V60.4161Z" fill="#999999"/>
<path d="M19.6772 53.84C19.7942 54.7205 20.317 55.484 21.0461 55.8004C21.3625 54.6517 21.6171 53.4135 21.3901 52.4711C21.3281 52.2372 21.2594 52.0102 21.1562 51.8039C21.0599 51.5975 20.9292 51.4187 20.7985 51.2398C20.5371 50.8821 20.2069 50.607 19.8767 50.3662C19.9386 50.8821 19.8561 51.4668 19.7667 52.0515C19.6772 52.6431 19.5878 53.2622 19.6704 53.8331L19.6772 53.84Z" fill="#999999"/>
<path d="M16.4721 57.2864C16.7197 57.4378 16.9811 57.5409 17.2425 57.6235C17.5039 57.6992 17.7653 57.7542 18.0336 57.7473C19.0998 57.7473 20.0628 56.9769 20.8607 56.1308C20.2485 55.5943 19.4231 55.3604 18.5701 55.4704C18.0061 55.553 17.4489 55.7662 16.8848 55.9382C16.3208 56.117 15.7292 56.2615 15.1514 56.1446C15.5159 56.5917 15.9768 56.9769 16.4721 57.2795V57.2864Z" fill="#999999"/>
<path d="M17.6273 53.1247C18.1019 52.0997 18.5215 50.9785 18.4528 50.0292C18.4046 49.5683 18.2877 49.1075 18.0744 48.7291C17.9644 48.5434 17.8681 48.3439 17.7374 48.1719C17.6135 48 17.4691 47.8418 17.3315 47.6904C17.3178 48.1926 17.1458 48.7222 16.9669 49.2657C16.7812 49.816 16.623 50.3663 16.6024 50.9441C16.5817 51.3843 16.678 51.8039 16.8569 52.1823C17.0288 52.5675 17.2971 52.8908 17.6273 53.1178V53.1247Z" fill="#999999"/>
<path d="M12.998 53.496C13.4451 53.8812 13.9129 54.1977 14.4356 54.3077C15.4606 54.5554 16.5062 54.0326 17.4004 53.3929C17.139 53.0696 16.8157 52.815 16.4649 52.6156C16.1072 52.423 15.7013 52.306 15.2886 52.251C14.7452 52.1822 14.1536 52.2854 13.6033 52.306C13.0461 52.3404 12.4546 52.3335 11.9111 52.0928C12.0487 52.3473 12.2207 52.5949 12.4064 52.8357C12.5921 53.0696 12.7779 53.3103 13.0049 53.496H12.998Z" fill="#999999"/>
<path d="M14.1669 48.7084C14.2839 49.1073 14.4834 49.4857 14.7448 49.7883C15.0543 49.3481 15.357 48.8872 15.5908 48.4195C15.8316 47.9517 15.976 47.4977 16.0311 47.0231C16.093 46.5484 15.9967 46.122 15.8935 45.6817C15.8316 45.4685 15.7559 45.2621 15.6596 45.0626C15.5564 44.87 15.4739 44.6705 15.3638 44.4917C15.2538 44.9801 15.0061 45.4478 14.7585 45.9294C14.5109 46.404 14.222 46.9199 14.1325 47.4564C14.0569 47.8623 14.0706 48.2957 14.1669 48.7084Z" fill="#999999"/>
<path d="M10.3153 49.0112C10.6386 49.5065 11.0858 49.8917 11.5398 50.1462C11.9938 50.4007 12.5165 50.442 13.0187 50.4007C13.5277 50.3526 14.0299 50.1943 14.4976 50.0017C14.3119 49.6234 14.0505 49.2932 13.7341 49.0318C13.4314 48.7498 13.0806 48.5366 12.6885 48.3921C12.1657 48.2064 11.6361 48.1307 11.0926 48.0275C10.5492 47.9244 9.99204 47.7799 9.54492 47.4084C9.63435 47.6905 9.73064 47.9725 9.86821 48.2408C10.0058 48.509 10.1571 48.7704 10.3222 49.0181L10.3153 49.0112Z" fill="#999999"/>
<path d="M12.3927 43.4736C12.2551 43.852 12.2001 44.2716 12.2276 44.6912C12.2413 45.1177 12.3927 45.5166 12.5922 45.8743C13.3282 45.1796 14.0023 44.4023 14.2568 43.5149C14.3187 43.2948 14.3462 43.0678 14.3531 42.8408C14.3531 42.6207 14.36 42.3868 14.3394 42.1598C14.3187 41.9328 14.2775 41.7058 14.2155 41.4925C14.1468 41.2793 14.1055 41.0523 14.0298 40.8459C13.851 41.3137 13.5483 41.7196 13.2388 42.1254C12.9292 42.5312 12.5922 42.9646 12.3996 43.4668L12.3927 43.4736Z" fill="#999999"/>
<path d="M8.57506 44.0792C8.69199 44.3475 8.80893 44.6089 8.9809 44.8428C9.14599 45.0698 9.32484 45.2761 9.51744 45.4481C10.281 46.1429 11.3747 46.1566 12.3171 46.019C12.207 45.6063 11.9869 45.2417 11.7599 44.8978C11.526 44.5539 11.2234 44.2581 10.8794 44.0311C10.4392 43.7215 9.9508 43.5289 9.46241 43.3088C8.97402 43.0887 8.47875 42.8204 8.12793 42.3733C8.16232 42.6622 8.19672 42.958 8.28615 43.24C8.36869 43.5289 8.46499 43.811 8.58193 44.0861L8.57506 44.0792Z" fill="#999999"/>
<path d="M12.3855 38.0053C12.0278 38.3561 11.6495 38.7069 11.4087 39.1678C11.223 39.5118 11.0992 39.9176 11.0579 40.3372C11.0166 40.7568 11.0854 41.1833 11.2092 41.5754C12.0072 41.0595 12.7569 40.4542 13.1284 39.6149C13.2178 39.4086 13.2866 39.1885 13.3279 38.9615C13.376 38.7345 13.376 38.5075 13.4035 38.2736C13.4379 37.799 13.3898 37.3243 13.3004 36.8772C13.094 37.3106 12.7432 37.6614 12.3924 38.0053H12.3855Z" fill="#999999"/>
<path d="M7.76274 38.9888C7.81777 39.2708 7.92783 39.546 8.03101 39.8005C8.14107 40.055 8.27177 40.2889 8.42311 40.4952C9.02156 41.3207 10.0327 41.5752 10.9338 41.6509C10.8995 41.2244 10.7619 40.8185 10.5899 40.4333C10.4248 40.0481 10.1978 39.6973 9.9158 39.4015C9.53746 39.0094 9.11098 38.7274 8.70514 38.4178C8.29241 38.1083 7.88656 37.7644 7.59766 37.2622C7.59766 37.8263 7.63892 38.4247 7.76274 38.9888Z" fill="#999999"/>
<path d="M12.1793 33.7333C11.8079 34.0085 11.4227 34.2974 11.1131 34.7101C10.8723 35.0196 10.721 35.398 10.6316 35.8038C10.5422 36.2097 10.5215 36.643 10.5834 37.0558C11.3883 36.7049 12.2206 36.2303 12.6471 35.4461C12.8466 35.0472 13.0185 34.6207 13.0942 34.1667C13.1355 33.9397 13.1561 33.7058 13.163 33.4788C13.1836 33.2518 13.2042 33.0248 13.1974 32.8047C12.9222 33.1761 12.5301 33.4513 12.1724 33.7333H12.1793Z" fill="#999999"/>
<path d="M10.316 37.0766C10.3435 36.6501 10.3023 36.2236 10.1922 35.8177C10.0821 35.4119 9.90329 35.0267 9.70381 34.6896C9.42866 34.2425 9.06408 33.8848 8.72014 33.5065C8.36244 33.1281 8.0529 32.7085 7.89469 32.1514C7.83966 32.4334 7.78463 32.7292 7.76399 33.025C7.75024 33.3208 7.75712 33.6234 7.77775 33.9123C7.8259 34.497 7.91533 35.068 8.16985 35.5082C8.64448 36.4093 9.49056 36.8358 10.3229 37.0766H10.316Z" fill="#999999"/>
<path d="M46.1746 12.2993C44.7988 12.2374 43.1961 12.1892 41.4764 12.1617C40.6166 12.148 39.7292 12.1204 38.8281 12.1204C37.927 12.1204 37.0121 12.1136 36.0903 12.1067C35.1755 12.1067 34.2606 12.1204 33.3526 12.1204C32.4515 12.1204 31.5641 12.148 30.7043 12.1617C28.9846 12.1961 27.3818 12.2443 26.0061 12.2993C24.6303 12.3474 23.4884 12.43 22.6836 12.4713C21.8788 12.5194 21.4248 12.5607 21.4248 12.5607C21.4248 12.5607 21.8857 12.602 22.6836 12.6501C23.4884 12.6914 24.6303 12.7739 26.0061 12.8221C27.3818 12.884 28.9846 12.9321 30.7043 12.9597C31.5641 12.9734 32.4515 12.994 33.3526 13.0009C34.2537 13.0009 35.1686 13.0147 36.0903 13.0147C37.0052 13.0147 37.9201 13.0009 38.8281 13.0009C39.7292 13.0009 40.6166 12.9734 41.4764 12.9597C43.1961 12.9253 44.7988 12.8771 46.1746 12.8221C47.5503 12.7739 48.6922 12.6914 49.497 12.6501C50.3018 12.602 50.7558 12.5607 50.7558 12.5607C50.7558 12.5607 50.295 12.5194 49.497 12.4713C48.6922 12.43 47.5503 12.3474 46.1746 12.2993Z" fill="#999999"/>
<path d="M63.5501 12.8358C60.3446 9.03181 56.2036 5.71625 51.4366 3.47377C46.6834 1.21754 41.3386 0.0206363 35.9938 0C30.6421 0.027515 25.3042 1.21754 20.5509 3.47377C15.784 5.72313 11.6567 9.02493 8.43744 12.8426C5.19754 16.6604 2.92755 21.0284 1.59995 25.3964C0.251713 29.7644 -0.133497 34.1255 0.10726 38.0877C0.368653 42.0499 1.24913 45.6131 2.41852 48.6053C3.58791 51.5976 4.97055 54.0396 6.27751 55.9243C7.5776 57.816 8.80889 59.1367 9.62746 60.0447C10.4942 60.9114 10.9551 61.3723 10.9551 61.3723C10.9551 61.3723 10.5217 60.8908 9.70313 59.9759C8.92583 59.0335 7.79771 57.644 6.57329 55.7248C5.35575 53.8126 4.08318 51.35 3.05137 48.3715C2.01955 45.3998 1.30416 41.8917 1.14595 38.0396C1.02213 34.1874 1.52428 29.9914 2.89315 25.8091C4.25515 21.6337 6.53202 17.4996 9.65497 13.8813C12.7711 10.2562 16.7745 7.18831 21.3007 5.06277C25.8338 2.93723 30.9172 1.82287 36.0006 1.81599C41.084 1.81599 46.1674 2.93723 50.7005 5.06277C55.2337 7.19518 59.2233 10.2494 62.3532 13.8882C65.4692 17.4927 67.7461 21.6337 69.1081 25.8091C70.477 29.9914 70.9723 34.1874 70.8553 38.0396C70.6971 41.8917 69.9748 45.3998 68.9499 48.3715C67.9181 51.35 66.6455 53.8126 65.428 55.7248C64.2104 57.644 63.0754 59.0335 62.2981 59.9759C61.4796 60.8839 61.0462 61.3723 61.0462 61.3723C61.0462 61.3723 61.5071 60.9114 62.3738 60.0447C63.1924 59.1367 64.4237 57.816 65.7238 55.9243C67.0307 54.0396 68.4134 51.5976 69.5828 48.6053C70.7521 45.6199 71.6395 42.0567 71.894 38.0877C72.1348 34.1324 71.7427 29.7713 70.4013 25.3964C69.0737 21.0284 66.8037 16.6672 63.557 12.8358H63.5501Z" fill="#999999"/>
</svg>
