<?xml version="1.0" standalone="no"?>
<!DOCTYPE svg PUBLIC "-//W3C//DTD SVG 20010904//EN"
 "http://www.w3.org/TR/2001/REC-SVG-20010904/DTD/svg10.dtd">
<svg version="1.0" xmlns="http://www.w3.org/2000/svg"
 width="512.000000pt" height="512.000000pt" viewBox="0 0 512.000000 512.000000"
 preserveAspectRatio="xMidYMid meet">
<metadata>
Created by potrace 1.16, written by Peter Selinger 2001-2019
</metadata>
<g transform="translate(0.000000,512.000000) scale(0.100000,-0.100000)"
fill="#000000" stroke="none">
<path d="M3006 3768 c10 -36 22 -45 89 -77 35 -17 66 -35 70 -41 3 -5 10 -10
16 -10 38 0 -40 84 -99 106 -26 10 -51 24 -55 31 -13 22 -29 15 -21 -9z"/>
<path d="M3631 3734 c-84 -22 -158 -70 -260 -169 -106 -102 -180 -206 -210
-298 -25 -73 -46 -107 -68 -107 -10 0 -13 -5 -8 -17 17 -44 108 -312 153 -453
120 -370 265 -786 298 -852 55 -109 157 -207 244 -233 23 -7 21 -4 -12 29 -45
44 -115 171 -158 286 -17 47 -38 101 -45 120 -29 75 -88 251 -127 380 -118
391 -137 498 -113 615 38 178 170 328 407 459 104 57 113 93 43 171 l-44 50 9
-35 c13 -45 13 -50 -3 -50 -7 0 -13 10 -13 23 -1 108 1 106 -93 81z"/>
<path d="M1550 3360 l0 -370 158 1 c86 1 148 3 137 6 -11 2 -30 6 -41 8 -36 8
-47 53 -41 177 2 62 10 131 17 153 30 98 130 137 299 117 149 -17 198 -37 341
-139 l25 -18 -22 30 c-64 90 -169 163 -288 202 -69 22 -105 26 -255 32 l-175
6 29 19 c36 25 101 34 239 35 313 2 496 -82 637 -293 58 -87 91 -158 214 -466
148 -367 140 -346 286 -770 104 -303 110 -316 166 -401 90 -136 251 -261 391
-305 128 -39 316 -61 418 -47 l60 8 6 45 6 45 1 -38 c4 -80 14 -77 -277 -77
-221 0 -268 3 -333 19 -94 24 -183 65 -273 124 l-70 47 55 -52 c227 -213 465
-301 750 -278 119 9 171 25 210 63 64 62 59 142 -16 231 l-39 47 -3 -38 -3
-38 -132 3 c-320 7 -504 65 -655 206 -119 111 -126 125 -328 681 -155 427
-335 879 -394 992 -89 171 -187 270 -335 339 -118 55 -190 64 -495 64 l-270 0
0 -370z"/>
<path d="M820 3707 c0 -12 137 -110 191 -137 35 -18 79 -43 97 -57 37 -28 40
-17 13 42 -27 59 -80 101 -159 124 -69 20 -142 35 -142 28z"/>
<path d="M2917 3450 c23 -30 60 -89 82 -130 28 -51 41 -68 41 -52 0 13 7 36
14 51 15 27 14 29 -27 59 -23 17 -66 53 -96 79 l-55 48 41 -55z"/>
<path d="M2133 3242 l-43 -3 0 -231 c0 -216 -1 -230 -17 -222 -10 5 -132 10
-270 12 l-253 3 0 -191 0 -190 183 1 c111 1 165 4 138 9 -53 8 -81 38 -81 86
0 78 49 118 145 119 33 0 68 -4 77 -8 14 -7 17 -2 20 35 l3 43 90 8 c64 5 98
13 117 27 16 12 45 21 70 21 24 1 33 4 21 6 -36 7 -46 66 -38 228 l6 140 -45
54 c-46 56 -51 58 -123 53z"/>
<path d="M2360 2660 l0 -100 -150 0 c-178 0 -190 -7 -122 -72 44 -42 50 -54
30 -61 -7 -2 59 -7 147 -10 225 -9 318 -35 404 -113 113 -102 122 -350 21
-552 -90 -177 -226 -292 -427 -361 -137 -46 -204 -51 -707 -50 -545 2 -521 14
52 27 398 9 397 9 470 85 l34 35 -44 -9 c-24 -4 -241 -8 -483 -9 -498 0 -452
7 -578 -86 -56 -42 -59 -46 -32 -42 21 3 37 -2 50 -15 36 -34 99 -65 190 -94
l90 -28 440 1 c531 1 603 10 785 97 87 42 122 67 207 154 75 76 81 84 173 261
30 58 60 107 66 109 7 2 19 -3 28 -12 9 -9 16 -13 16 -9 0 3 -21 77 -46 163
-25 86 -48 163 -51 173 -3 9 -16 19 -30 23 -14 3 -51 30 -82 59 -89 83 -159
135 -243 177 -86 43 -110 70 -103 114 3 17 7 44 10 62 4 22 -1 46 -15 72 -22
45 -77 111 -91 111 -5 0 -9 -45 -9 -100z"/>
<path d="M1555 2187 c-3 -7 -4 -147 -3 -312 l3 -300 25 2 c14 1 84 5 155 9 77
4 122 10 110 14 -55 21 -76 96 -68 245 5 90 28 155 65 179 32 21 149 37 229
31 174 -14 187 -16 233 -45 31 -20 48 -40 56 -62 9 -30 9 -28 5 21 -2 32 -14
70 -30 96 l-25 44 47 3 47 3 -36 27 c-68 52 -120 58 -480 58 -255 0 -330 -3
-333 -13z"/>
</g>
</svg>