<svg width="40" height="40" viewBox="0 0 40 40" fill="none" xmlns="http://www.w3.org/2000/svg">
<path d="M25.837 33.3334C24.7344 35.9706 22.6375 38.0674 20.0003 39.17C17.3631 38.0674 15.2663 35.9706 14.1637 33.3334H17.9303C18.4737 34.1484 19.1753 34.8534 20.0003 35.405C20.8253 34.855 21.527 34.1484 22.072 33.3334H25.837ZM30.0003 24.675L33.3337 28.455V31.6667H6.66699V28.455L10.0003 24.675V15C10.0003 9.19505 14.1737 4.25505 20.0003 2.42505C25.827 4.25505 30.0003 9.19505 30.0003 15V24.675ZM28.7837 28.3334L26.667 25.9334V15C26.667 11.1367 24.0503 7.61671 20.0003 5.96672C15.9503 7.61671 13.3337 11.135 13.3337 15V25.9334L11.217 28.3334H28.7837ZM20.0003 18.3334C19.1163 18.3334 18.2684 17.9822 17.6433 17.3571C17.0182 16.7319 16.667 15.8841 16.667 15C16.667 14.116 17.0182 13.2681 17.6433 12.643C18.2684 12.0179 19.1163 11.6667 20.0003 11.6667C20.8844 11.6667 21.7322 12.0179 22.3573 12.643C22.9825 13.2681 23.3337 14.116 23.3337 15C23.3337 15.8841 22.9825 16.7319 22.3573 17.3571C21.7322 17.9822 20.8844 18.3334 20.0003 18.3334Z" fill="#2F2B43"/>
</svg>
