<svg width="158" height="48" viewBox="0 0 158 48" fill="none" xmlns="http://www.w3.org/2000/svg">
<path d="M51.7642 31V16.4545H54.8395V28.4645H61.0753V31H51.7642ZM69.4508 26.3551V20.0909H72.4763V31H69.5715V29.0185H69.4579C69.2117 29.6577 68.8021 30.1714 68.2292 30.5597C67.661 30.9479 66.9674 31.142 66.1482 31.142C65.4191 31.142 64.7775 30.9763 64.2235 30.6449C63.6695 30.3134 63.2363 29.8423 62.9238 29.2315C62.616 28.6207 62.4598 27.8892 62.455 27.0369V20.0909H65.4806V26.4972C65.4853 27.1411 65.6582 27.6501 65.9991 28.0241C66.34 28.3982 66.7969 28.5852 67.3698 28.5852C67.7344 28.5852 68.0753 28.5024 68.3925 28.3366C68.7098 28.1662 68.9655 27.9152 69.1596 27.5838C69.3585 27.2524 69.4555 26.8428 69.4508 26.3551ZM76.8249 20.0909L78.8277 23.9048L80.8803 20.0909H83.9839L80.8234 25.5455L84.0692 31H80.9797L78.8277 27.2287L76.7112 31H73.5862L76.8249 25.5455L73.6999 20.0909H76.8249ZM89.7618 31.2131C88.6396 31.2131 87.6737 30.9858 86.8641 30.5312C86.0591 30.072 85.4389 29.4233 85.0033 28.5852C84.5677 27.7424 84.3499 26.7457 84.3499 25.5952C84.3499 24.473 84.5677 23.4882 85.0033 22.6406C85.4389 21.7931 86.052 21.1326 86.8428 20.6591C87.6382 20.1856 88.571 19.9489 89.6411 19.9489C90.3607 19.9489 91.0307 20.0649 91.651 20.2969C92.276 20.5241 92.8205 20.8674 93.2845 21.3267C93.7533 21.786 94.1179 22.3636 94.3783 23.0597C94.6387 23.7509 94.7689 24.5606 94.7689 25.4886V26.3196H85.5572V24.4446H91.9209C91.9209 24.009 91.8262 23.6231 91.6368 23.2869C91.4474 22.9508 91.1846 22.688 90.8484 22.4986C90.517 22.3045 90.1311 22.2074 89.6908 22.2074C89.2315 22.2074 88.8243 22.3139 88.4692 22.527C88.1188 22.7353 87.8442 23.017 87.6453 23.3722C87.4464 23.7225 87.3447 24.1132 87.3399 24.544V26.3267C87.3399 26.8665 87.4393 27.3329 87.6382 27.7259C87.8418 28.1188 88.1283 28.4219 88.4976 28.6349C88.8669 28.848 89.3049 28.9545 89.8115 28.9545C90.1477 28.9545 90.4554 28.9072 90.7348 28.8125C91.0142 28.7178 91.2533 28.5758 91.4521 28.3864C91.651 28.197 91.8025 27.965 91.9067 27.6903L94.705 27.875C94.5629 28.5473 94.2717 29.1345 93.8314 29.6364C93.3958 30.1335 92.8323 30.5218 92.1411 30.8011C91.4545 31.0758 90.6614 31.2131 89.7618 31.2131ZM98.7072 31H95.4118L100.433 16.4545H104.396L109.41 31H106.115L102.471 19.7784H102.358L98.7072 31ZM98.5013 25.2827H106.285V27.6832H98.5013V25.2827ZM117.5 26.3551V20.0909H120.526V31H117.621V29.0185H117.507C117.261 29.6577 116.851 30.1714 116.278 30.5597C115.71 30.9479 115.017 31.142 114.197 31.142C113.468 31.142 112.827 30.9763 112.273 30.6449C111.719 30.3134 111.286 29.8423 110.973 29.2315C110.665 28.6207 110.509 27.8892 110.504 27.0369V20.0909H113.53V26.4972C113.535 27.1411 113.707 27.6501 114.048 28.0241C114.389 28.3982 114.846 28.5852 115.419 28.5852C115.784 28.5852 116.125 28.5024 116.442 28.3366C116.759 28.1662 117.015 27.9152 117.209 27.5838C117.408 27.2524 117.505 26.8428 117.5 26.3551ZM122.346 31V20.0909H125.279V21.9943H125.393C125.591 21.3172 125.925 20.8059 126.394 20.4602C126.863 20.1098 127.402 19.9347 128.013 19.9347C128.165 19.9347 128.328 19.9441 128.503 19.9631C128.679 19.982 128.832 20.008 128.965 20.0412V22.7259C128.823 22.6832 128.626 22.6454 128.375 22.6122C128.125 22.5791 127.895 22.5625 127.687 22.5625C127.242 22.5625 126.844 22.6596 126.493 22.8537C126.148 23.0431 125.873 23.3082 125.67 23.6491C125.471 23.9901 125.371 24.383 125.371 24.8281V31H122.346ZM132.728 31.206C132.032 31.206 131.411 31.0852 130.867 30.8438C130.322 30.5975 129.891 30.2353 129.574 29.7571C129.262 29.2741 129.105 28.6728 129.105 27.9531C129.105 27.3471 129.217 26.8381 129.439 26.4261C129.662 26.0142 129.965 25.6828 130.348 25.4318C130.732 25.1809 131.167 24.9915 131.655 24.8636C132.148 24.7358 132.664 24.6458 133.203 24.5938C133.838 24.5275 134.349 24.4659 134.738 24.4091C135.126 24.3475 135.407 24.2576 135.583 24.1392C135.758 24.0208 135.845 23.8456 135.845 23.6136V23.571C135.845 23.1212 135.703 22.7732 135.419 22.527C135.14 22.2808 134.742 22.1577 134.226 22.1577C133.682 22.1577 133.248 22.2784 132.926 22.5199C132.604 22.7566 132.391 23.0549 132.287 23.4148L129.489 23.1875C129.631 22.5246 129.91 21.9517 130.327 21.4688C130.744 20.9811 131.281 20.607 131.939 20.3466C132.602 20.0814 133.369 19.9489 134.24 19.9489C134.846 19.9489 135.426 20.0199 135.98 20.1619C136.539 20.304 137.034 20.5241 137.465 20.8224C137.9 21.1207 138.244 21.5043 138.495 21.973C138.746 22.437 138.871 22.9934 138.871 23.642V31H136.002V29.4872H135.916C135.741 29.8281 135.507 30.1288 135.213 30.3892C134.92 30.6449 134.567 30.8461 134.155 30.9929C133.743 31.1349 133.267 31.206 132.728 31.206ZM133.594 29.1179C134.039 29.1179 134.432 29.0303 134.773 28.8551C135.114 28.6752 135.381 28.4337 135.576 28.1307C135.77 27.8277 135.867 27.4844 135.867 27.1009V25.9432C135.772 26.0047 135.642 26.0616 135.476 26.1136C135.315 26.161 135.133 26.206 134.929 26.2486C134.726 26.2865 134.522 26.322 134.318 26.3551C134.115 26.3835 133.93 26.4096 133.764 26.4332C133.409 26.4853 133.099 26.5682 132.834 26.6818C132.569 26.7955 132.363 26.9493 132.216 27.1435C132.069 27.3329 131.996 27.5696 131.996 27.8537C131.996 28.2656 132.145 28.5805 132.443 28.7983C132.746 29.0114 133.13 29.1179 133.594 29.1179Z" fill="#808080"/>
<path d="M24.6658 19.5581C27.4895 19.5581 29.7769 17.2707 29.7769 14.447C29.7769 11.6233 27.488 9.33594 24.6658 9.33594C21.8436 9.33594 19.5547 11.6233 19.5547 14.447C19.5547 17.2707 21.8436 19.5581 24.6658 19.5581Z" fill="#808080"/>
<path d="M14.4451 19.3398C11.6229 19.3398 9.33398 21.6288 9.33398 24.4509C9.33398 27.2731 11.6229 29.5621 14.4451 29.5621C17.2673 29.5621 19.5562 27.2731 19.5562 24.4509C19.5562 21.6288 17.2688 19.3398 14.4451 19.3398Z" fill="#808080"/>
<path d="M34.8904 19.3398C32.0667 19.3398 29.7793 21.6288 29.7793 24.4509C29.7793 27.2731 32.0667 29.5621 34.8904 29.5621C37.7141 29.5621 40.0015 27.2731 40.0015 24.4509C40.0015 21.6288 37.7126 19.3398 34.8904 19.3398Z" fill="#808080"/>
<path d="M24.6658 29.3477C21.8436 29.3477 19.5547 31.635 19.5547 34.4587C19.5547 37.2825 21.8436 39.5699 24.6658 39.5699C27.488 39.5699 29.7769 37.2825 29.7769 34.4587C29.7769 31.635 27.488 29.3477 24.6658 29.3477Z" fill="#808080"/>
</svg>
