<svg width="40" height="40" viewBox="0 0 40 40" fill="none" xmlns="http://www.w3.org/2000/svg">
<path d="M18.333 3.33325C26.613 3.33325 33.333 10.0533 33.333 18.3333C33.333 26.6132 26.613 33.3332 18.333 33.3332C10.053 33.3332 3.33301 26.6132 3.33301 18.3333C3.33301 10.0533 10.053 3.33325 18.333 3.33325ZM18.333 29.9999C24.778 29.9999 29.9997 24.7782 29.9997 18.3333C29.9997 11.8866 24.778 6.66658 18.333 6.66658C11.8863 6.66658 6.66634 11.8866 6.66634 18.3333C6.66634 24.7782 11.8863 29.9999 18.333 29.9999ZM32.4747 30.1182L37.1897 34.8316L34.8313 37.1899L30.118 32.4749L32.4747 30.1182Z" fill="#2F2B43"/>
</svg>
