<svg width="32" height="32" viewBox="0 0 32 32" fill="none" xmlns="http://www.w3.org/2000/svg">
<path d="M14.6667 0.724081C15.1067 0.685415 15.5507 0.666748 16.0001 0.666748C24.4681 0.666748 31.3334 7.53208 31.3334 16.0001C31.3334 16.4494 31.3148 16.8934 31.2761 17.3334H29.2681C28.5987 24.0707 22.9134 29.3334 16.0001 29.3334C8.63608 29.3334 2.66675 23.3641 2.66675 16.0001C2.66675 9.08675 7.92941 3.40141 14.6667 2.73341V0.722748V0.724081ZM14.6667 17.3334V5.41608C11.977 5.75833 9.51855 7.1119 7.791 9.20171C6.06344 11.2915 5.19645 13.9607 5.36624 16.6668C5.53603 19.3729 6.72986 21.9128 8.70507 23.7702C10.6803 25.6277 13.2887 26.6634 16.0001 26.6667C18.5982 26.6667 21.1071 25.7185 23.0557 24.0001C25.0044 22.2817 26.259 19.9111 26.5841 17.3334H14.6667ZM28.5974 14.6667C28.2917 11.7839 27.0068 9.09314 24.9569 7.04327C22.907 4.99339 20.2162 3.70842 17.3334 3.40275V14.6667H28.5974Z" fill="#2F2B43"/>
</svg>
