<svg width="40" height="40" viewBox="0 0 40 40" fill="none" xmlns="http://www.w3.org/2000/svg">
<path d="M27.6598 1.73327L38.2382 12.3099C38.3472 12.4188 38.4239 12.5557 38.4598 12.7054C38.4957 12.8552 38.4894 13.012 38.4416 13.1584C38.3937 13.3048 38.3063 13.4351 38.1889 13.5348C38.0715 13.6346 37.9287 13.6998 37.7765 13.7233L35.3198 14.1066L25.8932 4.67993L26.2465 2.20493C26.2685 2.05188 26.3326 1.90796 26.4317 1.78927C26.5308 1.67058 26.6609 1.58179 26.8076 1.53285C26.9543 1.4839 27.1116 1.47672 27.2622 1.51212C27.4127 1.54751 27.5504 1.62408 27.6598 1.73327ZM7.65818 33.5833C13.8615 28.0316 20.9832 26.3699 28.7298 24.3833L29.4732 17.6866L22.3115 10.5249L15.6148 11.2683C13.6282 19.0149 11.9665 26.1349 6.41484 32.3399L4.08984 30.0166C8.80318 24.5166 10.5732 18.4283 12.9282 8.21493L23.5348 7.0366L32.9632 16.4649L31.7848 27.0716C21.5715 29.4283 15.4815 31.1966 9.98318 35.9099L7.65818 33.5833ZM16.4648 23.5333C16.1465 23.2258 15.8925 22.858 15.7178 22.4513C15.5431 22.0446 15.4512 21.6072 15.4473 21.1646C15.4435 20.722 15.5278 20.2831 15.6954 19.8734C15.863 19.4638 16.1106 19.0916 16.4235 18.7786C16.7365 18.4656 17.1087 18.2181 17.5183 18.0505C17.928 17.8829 18.3669 17.7986 18.8095 17.8024C19.2521 17.8063 19.6895 17.8982 20.0962 18.0729C20.5029 18.2476 20.8707 18.5016 21.1782 18.8199C21.777 19.45 22.106 20.2891 22.0951 21.1583C22.0841 22.0276 21.734 22.8581 21.1194 23.4729C20.5049 24.0877 19.6745 24.438 18.8053 24.4493C17.936 24.4606 17.0968 24.1319 16.4665 23.5333H16.4648Z" fill="#2F2B43"/>
</svg>
