<svg width="40" height="40" viewBox="0 0 40 40" fill="none" xmlns="http://www.w3.org/2000/svg">
<path d="M11.7499 23.5348L8.2166 27.0715L12.9299 31.7848L31.7849 12.9282L27.0716 8.2165L23.5333 11.7498L25.8916 14.1065L23.5333 16.4665L21.1766 14.1082L18.8199 16.4665L21.1766 18.8232L18.8199 21.1798L16.4633 18.8232L14.1049 21.1798L16.4633 23.5365L14.1049 25.8948L11.7499 23.5332V23.5348ZM28.2499 4.67983L35.3199 11.7498C35.6324 12.0624 35.8079 12.4862 35.8079 12.9282C35.8079 13.3701 35.6324 13.7939 35.3199 14.1065L14.1066 35.3198C13.7941 35.6323 13.3702 35.8078 12.9283 35.8078C12.4863 35.8078 12.0625 35.6323 11.7499 35.3198L4.67993 28.2498C4.36748 27.9373 4.19195 27.5134 4.19195 27.0715C4.19195 26.6296 4.36748 26.2057 4.67993 25.8932L25.8933 4.67983C26.2058 4.36738 26.6297 4.19185 27.0716 4.19185C27.5135 4.19185 27.9374 4.36738 28.2499 4.67983ZM23.5333 30.6048L25.8916 28.2482L29.6283 31.9865H31.9849V29.6298L28.2483 25.8915L30.6049 23.5348L34.9999 27.9282V34.9998H27.9299L23.5349 30.6048H23.5333ZM9.39326 16.4632L4.67826 11.7498C4.5233 11.595 4.40037 11.4112 4.3165 11.2089C4.23262 11.0066 4.18945 10.7897 4.18945 10.5707C4.18945 10.3516 4.23262 10.1348 4.3165 9.93243C4.40037 9.7301 4.5233 9.54629 4.67826 9.3915L9.39326 4.67816C9.70581 4.36571 10.1297 4.19019 10.5716 4.19019C11.0135 4.19019 11.4374 4.36571 11.7499 4.67816L16.4666 9.3915L14.1066 11.7498L10.5716 8.21316L8.21493 10.5715L11.7499 14.1048L9.39326 16.4632Z" fill="#2F2B43"/>
</svg>
