<svg width="40" height="40" viewBox="0 0 40 40" fill="none" xmlns="http://www.w3.org/2000/svg">
<path d="M21.6663 3.41675C30.088 4.25175 36.6663 11.3584 36.6663 20.0001V21.6667H21.6663V31.6667C21.6663 32.5508 22.0175 33.3986 22.6427 34.0238C23.2678 34.6489 24.1156 35.0001 24.9997 35.0001C25.8837 35.0001 26.7316 34.6489 27.3567 34.0238C27.9818 33.3986 28.333 32.5508 28.333 31.6667V30.0001H31.6663V31.6667C31.6663 33.4349 30.964 35.1305 29.7137 36.3808C28.4635 37.631 26.7678 38.3334 24.9997 38.3334C23.2316 38.3334 21.5359 37.631 20.2856 36.3808C19.0354 35.1305 18.333 33.4349 18.333 31.6667V21.6667H3.33301V20.0001C3.33301 11.3584 9.91134 4.25175 18.333 3.41675V3.33341C18.333 2.89139 18.5086 2.46746 18.8212 2.1549C19.1337 1.84234 19.5576 1.66675 19.9997 1.66675C20.4417 1.66675 20.8656 1.84234 21.1782 2.1549C21.4907 2.46746 21.6663 2.89139 21.6663 3.33341V3.41675ZM33.2297 18.3334C32.823 15.1116 31.2545 12.1489 28.8187 10.0012C26.3829 7.85355 23.2471 6.66854 19.9997 6.66854C16.7523 6.66854 13.6165 7.85355 11.1806 10.0012C8.74481 12.1489 7.17639 15.1116 6.76967 18.3334H33.2297Z" fill="#2F2B43"/>
</svg>
